<?xml version="1.0" encoding="UTF-8"?>
<!DOCTYPE svg PUBLIC "-//W3C//DTD SVG 1.1//EN" "http://www.w3.org/Graphics/SVG/1.1/DTD/svg11.dtd">
<!-- Creator: CorelDRAW -->
<svg xmlns="http://www.w3.org/2000/svg" xml:space="preserve" width="7.16051in" height="7.18119in" version="1.1" style="shape-rendering:geometricPrecision; text-rendering:geometricPrecision; image-rendering:optimizeQuality; fill-rule:evenodd; clip-rule:evenodd"
viewBox="0 0 615.48 617.26"
 xmlns:xlink="http://www.w3.org/1999/xlink"
 xmlns:xodm="http://www.corel.com/coreldraw/odm/2003">
 <defs>
  <style type="text/css">
   <![CDATA[
    .fil0 {fill:black}
   ]]>
  </style>
 </defs>
 <g id="Layer_x0020_1">
  <metadata id="CorelCorpID_0Corel-Layer"/>
  <path class="fil0" d="M597.85 18.04c-2.18,0.21 -0.26,-0.46 -2.79,0.93 -1.47,0.8 -1.39,0.85 -2.66,1.95l-35.65 35.38c-13.06,12.87 -25.95,25.7 -39.05,38.61 -17.1,16.84 -232.66,229.02 -237.41,237.04 4.5,3.5 5.25,1.22 9.9,-3.54 48.95,-50.06 100.84,-100.39 150.32,-150.31 14.85,-14.99 146.74,-147.06 157.35,-160.07zm-557.44 540.46c6.16,6.73 11.67,13.03 18.77,19.08 7.04,6 14.67,9 20.81,14.57 -9.58,31.5 -41.38,7.82 -53.96,-5.81 -5.64,-6.11 -10.04,-15.12 -14.38,-19.35 -0.06,-6.14 -7.99,-17.37 5.95,-26.67 4.42,-2.95 5.01,-1.79 9.32,-2.63l13.48 20.81zm-36.23 10.89c-1.62,13.89 60.51,76.03 82.5,32.82 4.12,-8.1 0.12,-11.49 3.55,-18.63 8.17,-16.96 26.84,-26.73 33.68,-38.08 10.08,-2.81 68.18,-56.35 79.3,-67.81 10.33,-10.65 48.05,-56.57 53.43,-59.06 7.42,-3.42 4.64,2.33 20.47,-13.11 5.68,2.66 15.31,11.01 21.79,14.82 51.01,29.99 61.86,0.25 50.56,-4.49 -9.08,-5.32 -14.04,-6.48 -23.68,-14.43 -7.49,-6.18 -15.76,-14.02 -22.14,-21.33 6.97,-11.36 25.28,-31.52 37.51,-35.5 10.63,-3.46 12.17,-0.11 17.91,-13.4 18.59,-43.05 54.45,-69.28 89.34,-98.24 104.31,-86.56 134.96,-155.33 141.89,-161.38 0.56,-4.25 6.17,-14.37 8.33,-18.96 2.77,-5.9 5.09,-11.89 7.49,-17.71 2.52,-6.13 4.29,-11.48 6.1,-17.74 1.92,-6.63 5.83,-11.75 0.77,-17.01 -8.82,-1.63 -38.63,10.44 -49.8,15.52 -16.96,7.71 -34.42,17.65 -50.63,28.63 -36.98,25.05 -68.62,54.04 -100.29,87.02 -35.76,37.24 -68.59,91.61 -114.1,118.04 -6.38,3.7 -21.3,9.08 -24.46,14.24 -3.54,5.79 -1.07,11.09 -12.92,25.33 -7.27,8.74 -16.08,16.69 -25.11,23.23l-26.34 -27.13c-0.78,-3.82 -4.87,-8.95 -6.51,-12.95 -8.26,-20.15 -23.79,-6.22 -19.88,13.52 4.98,25.17 13.77,30.8 27.79,53.07 -26.11,25.88 7.39,8.56 -52.45,62.81 -21.99,19.94 -43.78,40.4 -62.87,63 -18.1,21.42 -29.43,45.19 -54.75,60.27 -17.29,10.3 -18.27,-2.82 -32.46,11.16 -10.46,10.3 -9.88,23.01 -4.01,33.48zm122.6 -37.21c-13.94,11.14 -24.74,23.92 -37.24,34.45 -14.53,-5.92 -27.44,-22.65 -36.67,-34.64 -1.58,3.35 -1.8,0.46 0.37,6.03 5.68,14.53 19.64,27.15 33.03,33.67l-6.11 10.77 -16 -10.57c-14.95,-13.25 -17.77,-19.02 -27.37,-33.94 39.98,-23.5 49.2,-51.03 80.52,-83.66 29.48,-30.72 60.28,-55.98 87.97,-88.49 14.66,5.45 39.16,30.03 44.79,44.68 -20.04,20.67 -37.14,43.74 -57.76,64.8 -20.55,20.99 -42.81,38.56 -65.53,56.93zm305.25 -408.12c27.69,-27.58 56.6,-51.94 88,-73.34 14.69,-10.01 28.96,-17.8 43.93,-25.76 19.06,-10.13 29.86,-12.47 43.95,-18.94 0.63,11.91 -23.35,55.26 -31.74,69.32 -30.15,50.52 -69.1,94.86 -113.19,134.1 -46.52,41.41 -82.28,56.27 -112.07,117.55 -4.07,8.37 -6.22,5.93 -13.14,8.44 -17.02,6.17 -30.3,23.42 -41.05,36.89 -21.47,-23.14 -29.88,-31.24 -52.9,-53.1 12.62,-11.46 28.9,-24.08 34.92,-40.36 5.25,-14.18 1.12,-9.66 16.02,-17.27 59.46,-30.4 88.51,-88.97 137.26,-137.53zm-228.82 164.86c19.2,25.95 47.73,46.52 70.24,70.31 11.59,12.24 21.88,24.79 34.17,36.77 5.78,5.63 11.91,11.21 18.4,16.02 6.82,5.05 11.81,6.36 17.93,10.2l-0.24 0.14 0.66 0.13c-9.74,8.35 -34.83,-5.04 -47.09,-13.29 -19.25,-12.96 -29.18,-29.05 -45.37,-45.3 -15.75,-15.8 -32.65,-26.61 -45.43,-45.28 -9.65,-14.1 -21.22,-34.63 -13.3,-47.46l10.03 17.77zm14.79 56.28c12.87,5.59 47.65,40.56 53.22,53.62 -2.77,3.61 -6.87,7.69 -10.78,9.03 -3.07,-0.56 -0.53,1.48 -3.24,-2.32 -4.24,-5.94 -2.39,-9.32 -19.32,-25.96 -10.24,-10.06 -20.9,-15.2 -29.35,-22.95 1.78,-4.97 5.39,-9.59 9.48,-11.42z"/>
 </g>
</svg>
