<?xml version="1.0" encoding="UTF-8"?>
<!DOCTYPE svg PUBLIC "-//W3C//DTD SVG 1.1//EN" "http://www.w3.org/Graphics/SVG/1.1/DTD/svg11.dtd">
<!-- Creator: CorelDRAW -->
<svg xmlns="http://www.w3.org/2000/svg" xml:space="preserve" width="7.05017in" height="7.1078in" version="1.1" style="shape-rendering:geometricPrecision; text-rendering:geometricPrecision; image-rendering:optimizeQuality; fill-rule:evenodd; clip-rule:evenodd"
viewBox="0 0 511.05 515.23"
 xmlns:xlink="http://www.w3.org/1999/xlink"
 xmlns:xodm="http://www.corel.com/coreldraw/odm/2003">
 <defs>
  <style type="text/css">
   <![CDATA[
    .fil0 {fill:black}
   ]]>
  </style>
 </defs>
 <g id="Layer_x0020_1">
  <metadata id="CorelCorpID_0Corel-Layer"/>
  <path class="fil0" d="M241.75 316.37c11.4,12.19 29.49,26.36 31.58,28.76 2.78,0.17 6.16,2.77 9.25,4.12 0.89,0.39 3.8,1.63 4.43,2.07 10.03,7.11 -5.64,14.73 -23.06,5.49 -6.81,1.18 -31.21,-18.22 -37.07,-25.76 -11.54,-14.84 -21.41,-26.4 -34.43,-37.01 -17.82,-14.52 -35.21,-29.44 -40.94,-55.53 -0.96,-4.39 -2.21,-11.49 1.1,-14.82 6.83,-6.89 11,8.61 13.9,13.4 10.59,17.49 29.25,32.88 43.75,46.7 11.08,10.56 21.06,21.44 31.49,32.58zm-35.16 34.64c-9.72,16.25 -62.8,73.74 -78.15,83.59 -14.8,13.13 -33.79,25.58 -46.91,39.94 -18.21,19.95 -13.44,32.45 -26.79,39.14l-5.21 0.84c-3.42,1.03 -1.73,0.78 -5.49,0.32 -5.66,-0.69 -11.31,-3.91 -16.33,-7.17 -12.78,-8.3 -28.76,-27.41 -27.66,-41.37 0.29,-3.6 2.23,-7.38 5.6,-10.69 4.42,-4.35 6.87,-4.78 11.36,-5.11 6.52,9.94 11.68,28.97 33.86,39.38l-10.11 -10.96c-14.79,-16.76 -12.55,-21.57 -17.37,-28.78l15.45 -8.91c2.6,-4.76 11.65,-11.82 15.95,-16.89 4.79,-5.65 7.5,-10.68 11.55,-16.34 17.36,-24.22 41.27,-46.16 62.67,-66.8 11.73,-11.31 21.73,-22.7 32.91,-34.01 9.25,1.39 24.79,16.71 31.77,24.55 3.05,3.42 6.24,6.57 6.83,10.21 3.52,2.96 3.86,5.13 6.06,9.07zm166.65 -159.6c-31.78,25.64 -59.25,46.84 -77.88,84.84 -3.46,7.06 -6.54,6.15 -12.74,8.74 -6.42,2.68 -8.72,5.17 -14.31,8.98 -7.93,6.94 -12.88,13.19 -19.7,20.98 -17.31,-19.36 -32.62,-34.12 -51.45,-51.77 45.17,-39.14 19.57,-38.44 41.27,-49.12 35.91,-17.67 56.84,-46.71 81.63,-76.18 20.98,-24.93 43.22,-47.21 68.07,-68.4 11.45,-9.77 23.44,-18.75 35.41,-27.26 6.74,-4.79 31.51,-18.54 34.46,-22.09 4.47,-0.69 35.88,-18.49 49.96,-20.11 -20.81,22.96 -47.49,47.08 -69.82,69.39l-173.7 173.71c-5.84,5.87 -31.51,28.85 -32.36,34.54 3.15,2.72 3.32,2.11 6.92,-1.43 2.61,-2.56 5.23,-5.38 7.84,-8l264.23 -264.07c-4.53,11.1 -8.01,22.84 -13.45,35.02 -2.75,6.16 -17.73,30.54 -18.07,34.26 -4.63,4.13 -16.7,23.63 -22.02,30.64 -8.01,10.55 -16.27,20.56 -25.18,30.74 -17.38,19.86 -38.81,40.23 -59.09,56.59zm-198.96 96.81c10.89,4.37 45.43,39.09 50.06,50.06 -3.45,4.48 -6.57,7.05 -11.54,9.22 -2.36,-2.41 -5.81,-9.11 -8.61,-12.85 -14.21,-19.01 -23.13,-22.27 -39.05,-34.24 1.88,-4.19 4.47,-8.78 9.14,-12.19z"/>
 </g>
</svg>
