<?xml version="1.0" encoding="UTF-8"?>
<!DOCTYPE svg PUBLIC "-//W3C//DTD SVG 1.1//EN" "http://www.w3.org/Graphics/SVG/1.1/DTD/svg11.dtd">
<!-- Creator: CorelDRAW -->
<svg xmlns="http://www.w3.org/2000/svg" xml:space="preserve" width="4.53085in" height="3.38652in" version="1.1" style="shape-rendering:geometricPrecision; text-rendering:geometricPrecision; image-rendering:optimizeQuality; fill-rule:evenodd; clip-rule:evenodd"
viewBox="0 0 203.25 151.92"
 xmlns:xlink="http://www.w3.org/1999/xlink"
 xmlns:xodm="http://www.corel.com/coreldraw/odm/2003">
 <defs>
  <style type="text/css">
   <![CDATA[
    .fil0 {fill:black}
   ]]>
  </style>
 </defs>
 <g id="Layer_x0020_1">
  <metadata id="CorelCorpID_0Corel-Layer"/>
  <path class="fil0" d="M62.49 15.57c0.47,2.5 -5.79,4.33 -7.64,4.48 -0.07,-1.12 0.23,-1.01 1,-1.44 0.39,-0.22 1,-0.75 1.21,-1.03 0.77,-1.02 0.07,-2.57 -0.29,-3.64l-1.57 -5.31c-0.16,-0.62 -0.52,-1.12 -0.56,-1.63 -0.26,0.25 -0.25,-0.16 -0.14,0.66l1.18 4.69c0.45,1.34 1.84,3.89 0.69,5.14 -2.22,2.43 -6.41,0.82 -6.56,-1.24 -0.06,-0.81 0.9,-1.46 1.82,-1.45 0.51,0.65 0.29,1.05 1.35,1.36 -0.12,-0.73 -0.38,-1.04 -0.72,-1.6 -0.66,-1.1 0.09,-1.21 -0.39,-1.79 -1.11,2.23 -2.74,2.32 -2.87,3.08 0.31,1.52 1.34,2.01 0.74,3.24 -0.6,0.2 -3.14,0.04 -3.83,-0.12 -0.87,-0.21 -2.33,-0.56 -2.68,-1.31 0.79,-0.47 4.38,-0.95 6.46,-3.08 0.36,-0.36 1.27,-1.11 0.97,-1.87 -0.5,0.3 -0.83,1.24 -2.39,2.39 -0.59,0.44 -2.15,1.53 -3.11,1.45l-0.67 0.32c-1.48,0.4 -3.09,0.49 -4.44,-0.43 -0.57,-0.39 -1.2,-0.97 -1.66,-1.48 -0.36,-0.4 -0.92,-1.41 -1.46,-1.62 0.24,1.02 1.9,2.32 2.37,3.26 -0.07,1.02 -0.68,1.25 -1.23,1.77 -1.33,1.27 -2.71,3.47 -3.71,5.12 -5.97,9.84 -3.38,14.93 -11,22.8 -0.37,0.38 -0.34,0.44 -0.7,0.57 0.18,0.36 -0.3,0.38 0.36,0.26 0.19,-0.28 2.45,-2.35 2.8,-2.57 0.51,-0.31 3.32,-1.7 3.81,-1.83l0.86 -0.53c1.2,-0.61 2.15,-1.05 3.5,-1.44 1.86,-0.52 3.72,-0.86 5.74,-0.81 1.91,0.05 3.78,0.39 5.42,0.98 1.11,0.4 3.75,1.56 4.24,2.37 1.02,0.27 2.79,2.53 3.62,2.87 -0.65,-1.19 -1.42,-1.55 -2.01,-2.51 1.01,-0.68 5.45,-1.57 7.02,-1.75 6.33,-0.7 12.11,1.54 16.58,5.61 0.33,0.3 0.71,0.82 1.11,1.13 0.43,0.34 0.95,0.5 1.21,1.2 -0.91,0.01 -5.59,-0.74 -6.16,-0.99 -0.05,0.42 1.52,0.71 2.32,0.91 4.09,1.05 5.65,0.91 8.78,1.55 0.94,0.19 10.27,1.82 11.09,2.57 1.25,0 3.37,1.31 3.78,1.45 0.92,0.31 0.35,0.22 0.55,-0.16l-4.5 -2.2c-4.2,-1.58 -14.97,-3.26 -16,-5.05l11.89 -4.25 0.11 2.54c0.11,0.92 -0.16,0.38 0.42,0.66 0.49,-2.77 -0.21,-6.93 0.08,-9.76 1.22,0.52 5.27,7.17 10.15,7.99 2.94,0.5 5.34,0.12 7.48,-1.27 2.16,-1.4 4.3,-4.06 4.95,-4.42 0.11,-0.32 1.74,-2.33 2.05,-2.64 0.42,1.66 -0.59,8.75 0.3,9.67 0.41,-0.5 0.26,-2.07 0.31,-2.92 0.73,0.2 2.01,0.86 2.96,1.19 1.1,0.38 2.06,0.73 3.14,1.07l4.73 1.54c0.59,0.19 1.35,0.25 1.82,0.43 -0.29,0.98 -3.58,2.07 -4.99,2.35 -2.18,0.43 -4.05,0.71 -6.22,1.26 -1.73,0.45 -3.33,0.91 -4.95,1.5 -0.73,0.27 -1.54,0.56 -2.26,0.87 -0.82,0.35 -1.49,0.89 -2.21,1.05l-0.26 0.45c0.6,-0.06 1.79,-0.64 2.47,-0.89 2.12,-0.79 6.04,-1.75 8.25,-2.2l8.97 -1.5c0.91,-0.13 2.25,-0.52 3.07,-0.49 0.74,-0.58 2.19,-0.49 3.05,-1.11 -0.6,-0.3 -4.26,0.78 -5.56,0.66 0.22,-0.45 3.5,-3.35 4.22,-3.85 1.73,-1.21 3.14,-2.1 5.48,-2.9 2.08,-0.71 4.68,-1.24 6.99,-1.22 1.56,0.01 6.16,0.6 6.97,1.41 0.53,0.03 1.76,0.3 2.15,0.67 -0.13,0.47 -0.51,0.62 -0.9,1.04 -0.32,0.33 -0.69,0.82 -1.03,0.91 0.29,0.56 0.15,0.52 0.74,0.04l1.9 -1.72c2.84,-2.42 6.17,-3.92 10.2,-4.1 5.05,-0.24 7.55,1.08 11.31,3.01 0.79,0.4 2.6,1.13 3.01,1.82 0.49,0.09 0.96,0.56 1.32,0.87 0.3,0.26 0.39,0.34 0.66,0.55 0.36,0.29 0.44,0.17 0.45,0.54 0.52,-0.02 0.25,0.18 0.42,-0.1 -0.96,-1.17 -1.83,-1.94 -2.72,-3.08 -2.86,-3.7 -3.71,-7.52 -5.16,-12.05 -0.96,-2.97 -2.08,-5.37 -3.58,-7.92 -0.73,-1.25 -1.49,-2.45 -2.31,-3.52 -0.93,-1.22 -2.46,-2.63 -2.67,-3.08 0.68,-0.45 0.83,-1.12 1.56,-1.5 0.12,-0.56 0.69,-0.96 0.89,-1.89 -0.4,0.3 -1.05,1.4 -1.76,2.16 -0.39,0.41 -1.61,1.44 -2.38,1.4 -1.04,0.66 -5.26,-0.68 -5.78,-1.22 -0.84,-0.01 -1.61,-0.74 -2.06,-1.16 -0.71,-0.67 -0.77,-1.14 -1.32,-1.78 -0.67,0.12 -0.32,0.18 -1.06,0.41l0.26 -1.01 -0.13 -0.57c-0.33,0.86 -0.18,1.41 -0.41,2.09 -0.24,0.71 -0.56,1.02 -0.62,1.96l0.37 0.1 0.96 -2.24c0.52,0.56 0.62,0.81 1.11,1.29 0.45,0.44 0.7,0.79 0.37,1.53 -0.98,2.25 -3.82,4.07 -5.4,3.66 -2.41,-0.64 -4.34,-1.45 -6.43,-2.71 -1.52,-0.92 -1.14,-1.1 -2.08,-2.41 -0.36,-0.51 -0.94,-0.68 -1.14,-1.29 -0.32,-0.95 1.35,-3.05 1.9,-4.85 0.22,-0.18 1.6,-3.09 1.87,-3.65 0.58,-1.18 1.47,-2.63 3.05,-2.61 0.15,0.92 -2.61,7.52 -3.15,8.8 -0.44,1.03 -1.69,3.61 -0.74,4.65 0.66,0.73 2.46,1.83 3.74,2.05 -0.61,-1.04 -2.07,-1.22 -2.99,-2.06 -0.99,-0.9 -0.07,-2.79 0.34,-3.85 0.97,-2.53 1.76,-4.87 2.61,-7.56 0.49,-1.55 0.51,-2.92 2.51,-2.12 0.66,0.26 6.44,-0.24 12.88,2.1 2.21,0.82 3.99,1.66 6.08,2.57 3.72,1.62 3.76,1.76 6.3,4.61l7.25 6.8c0.31,0.27 0.24,0.27 0.54,0.5 0.86,0.66 1.49,1.27 2.33,2l3.51 3.08c0.47,0.41 1.94,2.1 3.22,3.21l2.07 2.26c1.11,1.4 5.17,6.37 5.32,7.63 0.29,0.25 0.13,0.06 0.37,0.43 0.21,0.33 -0.01,-0.06 0.18,0.36 1.03,1.92 6.57,13.28 4.69,15.47 -0.07,2.26 -3.99,4.37 -6.14,5.36 -4.42,2.04 -20.05,10.8 -23.85,10.64l-0.68 0.28c-0.2,0.05 -0.51,0.11 -0.74,0.16l-4.39 0.72c-5.07,0.54 -10.36,0.08 -15.26,-1.29 -1.01,-0.28 -1.62,-0.62 -2.42,-0.89 -0.12,0.16 -0.36,-0.24 -0.04,0.4 1.53,0.2 0.67,2.54 0.37,3.98 -2.9,13.86 -11.66,22 -13.39,25.76l-0.61 0.77c-0.18,0.27 -0.37,0.53 -0.55,0.8 -2.5,3.76 -5.25,8.66 -5.47,13.31 -0.19,3.94 1.58,9.82 -1.05,14.25 -0.35,0.59 -1.56,3.25 -1.78,3.4 -0.41,1.55 2.21,-3.18 2.33,-3.35 0.59,0.34 1.23,2.34 1.39,2.97 1.01,1.34 4.94,11.53 4.28,12.81 -1.26,1.2 -4.89,2.73 -6.97,3.62 -6.62,2.85 -19.82,4.66 -26.97,4.58 -7.56,-0.09 -19.69,-2.03 -26.71,-4.99 -1.24,-0.52 -2.42,-1.05 -3.56,-1.67 -1.96,-1.06 -2.59,-1.2 -2.38,-2.76 1.65,-5.81 1.63,-5.65 3.96,-10.75 0.59,-1.28 0.82,-2.4 1.24,-3.69 0.64,0.24 0.54,0.32 0.87,0.8 0.21,0.31 0.4,0.53 0.64,0.86 0.42,0.58 0.84,1.27 1.28,1.71l-0.3 -0.98c-0.35,-0.24 -1.34,-2.04 -1.63,-2.6 -1.77,-3.45 -1.36,-7.15 -1.07,-10.94 0.43,-5.73 -0.82,-8.98 -3.13,-13.27 -0.94,-1.75 -2.15,-3.66 -3.26,-5.12 -1.89,-2.49 -9.54,-13.42 -9.68,-15.4 -1.12,-1 -4.6,-11.41 -4.4,-13.58 0.48,-0.63 0.32,-0.38 0.96,-0.75l-5.34 1.34c-6.38,1.34 -12.08,1.29 -18.42,-0.4 -4.71,-1.25 -10.3,-3.72 -14.57,-6.04 -0.91,-0.5 -3.83,-2.21 -4.56,-2.31 -1.01,-1.08 -7.84,-3.52 -8.54,-4.87 -1.37,-0.54 -2.49,-2.81 -2.32,-4.9 0.25,-3.08 4.94,-14.31 6.35,-15.21 0.1,-0.58 0.39,-0.81 0.74,-1.32 2.6,-3.86 3.48,-4.53 6.58,-7.93l4.28 -4.09c0.5,-0.4 0.6,-0.52 1.09,-1 0.38,-0.37 0.75,-0.59 1.14,-0.96l6.65 -5.76c0.78,-0.8 1.4,-1.31 2.11,-2.08 0.32,-0.35 0.7,-0.7 1,-1.09 0.85,-1.11 1.92,-2.34 3.02,-3.11 1.56,-1.09 6.85,-3.45 8.59,-3.86 0.62,-0.53 6.62,-1.72 8.01,-1.98 9.11,-1.7 9.26,-1.2 12.65,5.73 0.36,0.73 2.42,4.56 2.12,5.31 -0.14,0.34 -0.89,0.91 -1.41,0.99 -0.96,-2.03 -4.12,-9.68 -5.02,-11.1 -0.39,-0.62 -0.63,-1.08 -1.55,-1.11 -0.24,-0.01 -1.99,0.14 -2.19,0.19 1.72,0.29 2.22,-0.43 3.19,1.01 0.51,0.76 0.92,1.79 1.32,2.71 0.93,2.12 3.48,6.94 3.8,8.63zm-13.49 41.76c-1.88,-0.09 -9.3,-0.08 -10.4,-0.86 -2.19,0.13 -8.42,-2.67 -8.77,-2.72 0.76,1.15 6.2,3.16 8.25,3.59 1.15,0.24 2.21,0.32 3.34,0.46 2.59,0.07 5.29,0.06 7.58,-0.47zm12.09 -40.63c-0.14,-1.51 -1.26,-3.38 -1.93,-4.54l-2.11 -3.62c0.76,1.36 3.33,6.61 3.37,7.75 -1.5,1.4 -3.52,1.49 -4.3,2.82 0.65,-0.08 1.98,-0.82 2.55,-1.12 0.74,-0.38 1.83,-1.1 2.42,-1.29zm86.47 0.88c-2.75,-0.76 2.3,-8.66 1.37,-10.18l-2.6 7.02c-0.57,1.64 -0.59,2.58 0.71,3.46 0.74,0.5 2.45,1.37 3.51,1.19l-0.64 -0.36c-0.28,-0.07 -2.18,-0.69 -2.28,-1.04 -0.02,-0.05 -0.06,-0.06 -0.08,-0.09zm13.49 40.16c1.64,-0.07 2.8,-0.24 4.38,-0.6 2.63,-0.61 4.98,-1.63 7.05,-2.77l0.62 -0.39c-0.3,-0.15 -3.06,1.02 -3.74,1.25 -1.44,0.49 -2.66,0.82 -4.25,1.17 -1.54,0.34 -3.05,0.53 -4.66,0.65 -1.15,0.08 -4.55,0.02 -5.22,0.37l0.92 0.34c0.96,-0.26 3.64,0.05 4.9,-0.01zm-44 75.96c0.21,1.55 -2.45,8.51 -3.27,9.1 0.25,0.42 -0.4,0.48 0.32,0.33 0.3,-0.71 1.31,-2.07 1.82,-2.99 0.6,-1.1 0.94,-2.03 1.34,-3.28 1.38,-4.29 0.68,-5.93 1.08,-8.38l-0.23 0.69c-0.13,0.77 -0.69,4.05 -1.05,4.54zm-28.63 6.96c-1.07,-2.37 -3.51,-9.82 -3.16,-11.41l-0.29 -0.11c-0.01,0 -0.04,0.04 -0.06,0.05l0.03 1.79c0.24,2.77 0.64,4.94 1.63,7.32 0.64,1.53 2.45,5.04 3.44,5.71 -0.22,-1.04 -1.14,-2.33 -1.6,-3.35zm-1.9 -19.33c-0.31,-1.99 -2.05,-4.45 -2.1,-6.13 -0.51,-0.42 0.08,-0.09 -0.62,-0.33 -0.03,1.98 1.15,3.95 1.68,5.85 0.57,2.05 0.72,3.98 1.4,5.8l-0.37 -5.19zm8.29 0.83l5.01 -0.46 -0.07 -0.58c-2.85,-0.13 -8.81,0.62 -10.62,0.13l-0.94 -0.42c-0.01,-0.05 -0.06,-0.05 -0.09,-0.08 -0.8,-0.01 -0.35,-0.14 -0.56,0.19 0.59,0.23 0.87,0.5 1.5,0.73 0.47,0.17 1.2,0.29 1.72,0.39 1.28,0.23 2.7,0.19 4.06,0.11zm7.56 3.82c-0.12,-1.68 0.78,-2.37 0.88,-3.07 -0.32,-0.34 -0.65,-0.65 -1.19,-0.67 -0.07,1.54 0.4,0.97 -0.22,1.29 -0.91,-0.61 0.35,-1.4 -0.75,-1.55 -0.67,-0.09 -1.02,0.67 -1.21,1.09 0.23,0.99 0.98,1.34 1.23,2.5 0.21,0.97 0.13,2.25 0.32,3.33l0.02 0.93c0.64,-0.16 0.34,0.12 0.46,-0.49 0.07,-0.69 0.18,-2.99 0.46,-3.36zm12.84 -5.23c-3.01,0.63 -1.48,0.76 -5.75,0.63 -1.89,-0.06 -4.03,-0.46 -5.94,-0.15l0.12 0.68c1.44,-0.29 3.07,0.1 4.47,0.22 1.53,0.13 3.48,-0.21 4.65,-0.07l1.62 -0.51c0.39,-0.42 0.42,-0.04 0.81,-0.8zm2.7 -1.21c0.83,-2.06 1.55,-4.25 1.64,-6.73 -0.04,0.04 -0.08,0.08 -0.11,0.11l-0.33 0.36c0.02,1.19 -1.58,5.49 -2.13,6.51 -0.97,1.77 -0.68,5.25 -1.06,7.45l0.04 0.53c0.14,-0.48 0.3,-0.93 0.59,-1.26 -0.02,-1.47 0.82,-5.62 1.36,-6.97zm10.12 -26.22c-1.28,2.35 -3.84,4.66 -6.2,6.06 -1.11,0.66 -0.88,0.57 -1.05,1.04 1.95,-0.69 3.61,-2.09 4.75,-3.17 2.36,-2.24 2.47,-3.28 3.22,-4.1 0.24,-0.26 0.2,-0.17 0.28,-0.22l0.05 -0.74c-0.68,0.2 -0.58,0.27 -1.05,1.14zm-23.89 15.34l4.77 1.16c1.92,0.4 4.21,0.66 6.26,0.35 2.37,-0.36 3.42,-0.78 4.48,-2.36 0.89,-1.32 1.68,-2.97 1.84,-4.93l-0.05 -0.83c-0.23,0.39 -0.15,0.91 -0.49,1.31 0.06,0.95 -1.43,3.61 -1.93,4.27 -1.18,1.52 -2,1.71 -4.45,1.82 -2.14,0.09 -3.87,-0.01 -5.9,-0.4 -0.88,-0.17 -4.32,-1.36 -5.13,-0.78 0.3,0.41 -0.13,0.17 0.62,0.41zm-18.37 0.25c-2.24,-0.32 -3.39,-6.14 -4.28,-6.92 -0.12,2.07 1.15,4.8 2.52,6.45 0.52,0.62 1.23,0.95 1.61,1.4 2.64,0.12 3.25,0.96 7.71,0.06l5.05 -1.2c1.08,-0.21 1.17,0.14 1.42,-0.86 -1.07,0.13 -2.43,0.56 -3.39,0.5 -0.43,0.34 -2.44,0.77 -3.02,0.64 -0.04,0.03 -0.08,0.05 -0.11,0.07 -0.03,0.01 -0.08,0.05 -0.11,0.06l-1.64 0.3c-0.68,0.05 -1.41,0.08 -2.1,0.08 -1.04,-0 -3.07,0.14 -3.66,-0.58zm-5.88 -10.61c-1.4,-0.3 -5.97,-6.38 -6.01,-6.67 -0.16,0.11 -0.59,-0.03 0.08,0.98 1.21,1.83 2.37,3.56 3.95,5.03l0.79 0.79 2.36 1.53c0.35,-0.18 0.23,0.27 0.3,-0.25 -0.37,-0.25 -1.24,-0.93 -1.47,-1.42zm24.11 -4.62c-2.97,-2.41 -1.34,-3.16 -2.16,-4.75 -0.39,0.14 -0.25,-0.22 -0.41,0.5 -0.1,0.43 0.11,0.66 -0.36,2.05 -0.26,0.77 -0.91,1.23 -1.36,1.78 -1.24,1.51 -6.96,2.91 -9.08,3.48l-4.72 1.55c-0.43,0.49 -1.72,0.81 -2.29,1.15l0.73 -0.06 2.2 -0.69c0.45,-0.39 6.62,-2.01 7.88,-2.47 3.45,-1.27 4.31,-0.98 5.94,-3.19 0.42,-0.57 0.42,-0.5 0.78,-0.68 0.16,1.66 -0.04,8.16 -0.06,10.67 -0.01,1.84 -0.3,3.07 -0.31,3.31 -0.02,0.92 0.3,-0.01 0.34,1.32 0.02,0.56 -0.02,1.23 -0.02,1.8 -0,1.2 -0.01,2.39 -0.01,3.59 -0,1.73 0.13,5.41 -0.2,6.88 -0.02,0.88 -0.06,0.29 0.19,0.51l1.1 -0.13c0.04,-4.04 0.23,-8.85 -0.03,-12.77 -0.1,-1.46 0.08,-4.28 0.07,-6.15 -0,-2.13 -0.07,-4.32 -0.04,-6.43l0 -2.5c0.74,0.41 0.29,0.6 1.68,1.67 1.75,1.35 10.34,3.8 13.18,4.77l2.28 0.4c-0.45,-0.42 -3.92,-1.65 -4.97,-2.04 -2.18,-0.81 -8.68,-2.2 -10.35,-3.56zm8.58 -9.54c-1.76,-0.22 -3.66,-0.87 -4.95,-1.56 -1.48,-0.79 -3.22,-2.4 -3.76,-2.67 1.42,0.89 2.49,4.24 11.71,5.63 5.29,0.8 10.8,-0.7 14.33,-3.04 3.38,-2.24 5.6,-5.48 7.58,-9.91 1.07,-2.39 3.3,-11.63 4.87,-12.68 0.38,-1.33 2.72,-3.9 3.54,-4.92 0.22,-0.27 0.24,-0.25 0.5,-0.55 0.88,-1.01 2.28,-3.23 2.6,-4.4 -0.19,0.46 -2.8,3.7 -3.2,4.11l-1.81 1.93c-7.11,7.77 -4.87,13.27 -11.02,22.02 -1.03,1.46 -2.29,2.54 -3.79,3.54 -1.04,0.68 -3.6,2.24 -5.12,2.19 -1.32,1.05 -9.86,0.86 -11.49,0.33zm-11.25 -21.83l-0.23 11.4c0.01,1.93 -0.12,2.16 0.49,3.46 0.6,-0.11 0.37,0.29 0.47,-0.72l0.09 -7.22c0.01,-1.39 -0,-2.79 -0.03,-4.19 -0.03,-1.32 -0.01,-2.03 -0.33,-3.26 -0.01,-0.04 -0.06,-0.15 -0.07,-0.22 -0,-0.05 -0.02,-0.07 -0.04,-0.11 -0.26,0.51 0.07,0.41 -0.36,0.87zm-46.01 -10.57c1.63,2.8 4.76,6.07 5.44,7.83 0.01,0.01 0.06,0.04 0.18,0.18 1.58,2.05 3.2,8.24 3.96,10.52 2.04,6.1 4.98,8.74 5.38,9.65 0.58,0.28 1.56,2.13 5.01,3.75 6.23,2.92 13.61,2.59 19.82,-0.37 0.84,-0.4 0.84,-0.66 1.49,-0.7 0.29,-0.43 0.58,-0.62 1.11,-0.82l0.4 -0.61c-1.09,0.5 -4.32,2.98 -6.95,2.8 -0.53,0.45 -1.97,0.41 -2.79,0.45 -1.29,0.43 -6.19,0.03 -7.78,-0.24 -6.48,-1.12 -11.34,-5.91 -13.79,-12.23 -2.35,-6.06 -2.4,-9.71 -6.57,-15.1 -1.03,-1.33 -3.01,-3.17 -4.05,-4.63 -0.46,-0.65 -1.41,-2.15 -1.88,-2.53l0.21 0.85 0.47 0.64c0.12,0.22 0.19,0.34 0.32,0.57zm44.53 -51.69c5.03,-0.35 9.19,0.98 12.56,3.87 0.37,0.32 0.52,0.44 0.84,0.81 0.93,1.09 1.23,1.27 2.12,2.82 0.3,0.52 0.73,1.78 1.07,2.01 0.24,1.03 0.58,1.79 0.77,2.89 0.35,2.05 0.28,4.58 0.24,6.68l-0.19 3.27c0.7,-0.48 0.59,-1.67 1.94,-1.85 1.52,1.13 0.59,3.98 0.12,5.89 -0.39,1.56 -1.13,4.42 -2.51,5.18 -1,-0.33 -0.66,-0.51 -1.39,-0.63 0.04,1.18 -0.9,3.98 -1.57,4.92 -1.02,1.44 -1.9,2.46 -2.87,3.56 -2.11,2.39 -4.77,4.7 -8.22,4.82 -5.13,0.18 -6.6,-1.61 -9.16,-3.9 -1.14,-1.02 -5.32,-5.01 -5.29,-7.68 -0.46,-0.52 -0.36,-1.45 -0.81,-2.1 -0.89,1.19 -1.69,0.9 -2.33,-0.48 -0.43,-0.92 -0.82,-2.03 -1.13,-3.05 -0.58,-1.91 -1.86,-5.71 0.17,-6.49 0.61,0.12 0.74,0.24 1.03,0.65 0.3,0.42 0.29,0.57 0.8,0.91 -0.06,-1.04 -0.26,-1.83 -0.29,-3.01 -0.05,-2.56 0.05,-5.1 0.55,-7.63 0.08,-0.42 0.19,-0.89 0.49,-1.24 -0.02,-1.05 1.36,-3.22 1.91,-3.99 0.78,-1.11 1.77,-2.16 2.86,-2.97 2.51,-1.87 4.5,-2.69 8.3,-3.25zm-45.64 19.01c0.01,0.41 -0.21,0.78 -0.39,1.07 -0.61,0.04 -1.51,-0.33 -2.1,-0.52 -0.94,-0.31 -1.08,-0.34 -1.32,-1.29 0.68,0.11 1.22,0.3 1.88,0.44 0.64,0.14 1.36,0.06 1.94,0.3zm103.36 -2.27c0.73,0.22 2.27,0.53 2.88,0.84 -0.47,1.38 -6.85,1.83 -7.86,2.01 0.27,-0.8 0.86,-1.14 1.34,-1.82 0.54,-0.77 0.49,-1.59 0.85,-2.14 0.47,0.09 1.97,0.86 2.79,1.11z"/>
 </g>
</svg>
