<?xml version="1.0" encoding="UTF-8"?>
<!DOCTYPE svg PUBLIC "-//W3C//DTD SVG 1.1//EN" "http://www.w3.org/Graphics/SVG/1.1/DTD/svg11.dtd">
<!-- Creator: CorelDRAW -->
<svg xmlns="http://www.w3.org/2000/svg" xml:space="preserve" width="4.47189in" height="3.41624in" version="1.1" style="shape-rendering:geometricPrecision; text-rendering:geometricPrecision; image-rendering:optimizeQuality; fill-rule:evenodd; clip-rule:evenodd"
viewBox="0 0 224.17 171.25"
 xmlns:xlink="http://www.w3.org/1999/xlink"
 xmlns:xodm="http://www.corel.com/coreldraw/odm/2003">
 <defs>
  <style type="text/css">
   <![CDATA[
    .fil0 {fill:black}
   ]]>
  </style>
 </defs>
 <g id="Layer_x0020_1">
  <metadata id="CorelCorpID_0Corel-Layer"/>
  <path class="fil0" d="M127.8 143.82c0.71,-0.7 1.23,-5.75 2.26,-8.63 2.11,-5.94 0.96,-2.86 2.04,-7.35l0.05 -0.95c-0.55,0.43 -1.23,3.22 -1.49,4.05 -1.07,3.51 -2.35,4.3 -2.52,8.18 -0.05,1.08 -0.57,4.27 -0.34,4.69zm-37.33 18.48c-0.13,-0.42 -1.44,-2.8 -2.15,-3.11 0.05,0.62 1.19,3.01 2.15,3.11zm17.23 -104.33c-0.59,-1.58 -0.67,-2.65 -1.28,-2.81 -0.38,0.49 1.57,5.55 2.01,6.14 0.15,-0.2 0.18,-0.05 0.18,-0.53 0,-0.01 -0.08,-0.38 -0.09,-0.43l-0.81 -2.37zm-94.99 1.78c0.83,0.9 7.3,-1.66 8.13,-2.67l-8.13 2.67zm128.03 60.93c0.48,-0.2 0.3,-0.1 0.6,-0.44l0.87 -1.64c0.38,-0.83 2.31,-5.94 2.27,-6.73 -0.03,-0.57 -0.03,-0.31 -0.16,-0.52 -0.22,0.76 -0.62,1.38 -0.93,2.24l-2.64 7.08zm70.97 -60.93c-0.17,-0.25 0.2,-0.18 -0.96,-0.43l-5.56 -1.59c-0.74,-0.33 -1.33,-0.69 -2.17,-0.82 1,1.57 7.5,3.64 8.69,2.84zm-132.09 50.51l-0.45 -1.34c-0.06,0.05 -0.2,-0.09 -0.04,0.65 0.06,0.29 0.16,0.53 0.25,0.79 0.4,1.27 -0.27,0.65 1.25,4.75 0.41,1.1 1.49,4.88 2.68,5.29 -0.56,-3 -3.4,-7.56 -3.69,-10.14zm32.13 30.44c-0.72,-0.41 -1.43,-2.49 0.58,-2.45 0.21,0.57 0.26,0.64 0.09,1.4 -0.26,1.17 -0.39,0.92 -0.67,1.05zm0 5.88c0.64,-0.12 0.53,-0.18 0.64,-0.95l0.52 -4.18c0.21,-0.87 0.89,-1.47 0.72,-2.47 -0.37,-2.14 -3.13,-1.39 -3.44,0.07 -0.15,0.71 0.4,1.7 0.67,2.31 0.5,1.14 0.68,4.94 0.89,5.22zm0.33 -77.54c-0.6,0.86 -1.17,13.53 -0.62,16.92 0.12,0.72 0.18,1.48 0.78,1.69 0.68,-1.07 0.47,-17.52 -0.17,-18.6zm21.18 44.77c1.35,-0.37 4.59,-3.14 5.26,-3.88 0.78,-0.86 1.34,-1.38 2.09,-2.43 0.61,-0.86 1.15,-1.83 1.58,-2.8 -1.31,0.1 -1.56,1.42 -2.21,2.34 -0.64,0.9 -1.36,1.73 -2.05,2.46 -0.87,0.91 -1.42,1.22 -2.44,2.07 -0.71,0.59 -1.73,1.32 -2.22,2.25zm-8.96 48.33c1.56,-0.46 3.88,-5.24 4.62,-7.52 1.03,-3.15 1.47,-5.88 1.61,-9.15 0.07,-1.52 -0.13,-1.25 -0.24,-1.38 -0.46,0.78 -0.91,3.77 -1.17,4.91 -2,8.99 -4.53,11.95 -4.83,13.13zm5.99 -35.88c0.42,-0.27 0.88,-2.01 1.05,-2.46 1.25,-3.23 1.36,-2.17 2.29,-6.23 0.3,-1.32 0.16,-1.1 -0,-1.32 -2.41,4.12 -0.98,6.77 -7.18,7.04 -4.57,0.2 -8.17,-0.9 -12.32,-1.64 0.07,0.6 0.55,0.78 1.48,1.08 3.49,1.13 7.41,2.18 11.06,1.59 2.51,-0.4 2.79,-0.97 4.04,-1.33 -0.23,0.96 -1.09,2.35 -0.41,3.27zm-34.46 -99.47c-0.27,-3.81 -0.69,-5.53 -0.36,-9.95 0.58,-7.82 6.68,-14.85 16.27,-14.92 3.52,-0.02 5.9,0.51 8.55,1.99 2.56,1.43 3.86,2.67 5.41,4.95 3.18,4.66 3.44,11.11 2.46,17.45 0.95,-0.41 1.56,-2.44 2.84,-2.04 1.22,0.99 -0.03,5.04 -0.42,6.35 -0.41,1.38 -1.34,4.67 -2.96,4.76 -0.04,-1.5 0.6,-4.1 0.86,-5.68 0.51,-3.13 1.42,-2.95 1.91,-4.3 -0.55,0.9 -1.57,1.27 -2.16,3.22 -2.9,9.47 -0.88,10.66 -9.12,17.95 -1.9,1.68 -3.9,3.35 -7.52,3.15 -2.91,-0.16 -5.3,-1.73 -7.21,-3.65 -1.06,-1.07 -1.76,-1.83 -2.74,-2.77 -3.81,-3.67 -3.5,-6.31 -4.92,-11.29 -0.41,-1.42 -0.64,-2.85 -1.29,-4.07 -0.99,-1.87 -1.73,-2.08 -2.34,-2.85 0.09,0.27 1.02,1.56 1.29,2.07 0.92,1.75 2.26,6.9 1.96,8.35 -1.09,-0.11 -1.5,-1 -1.94,-2.02 -1.04,-2.35 -2.63,-7.08 -1.56,-9.33 1.31,-0.1 1.79,1.26 2.98,2.64zm-35.93 -4.74c0.04,0.56 -0.04,0.42 -0.23,0.98 -1.45,-0.05 -0.98,-0.22 -1.92,-0.53 -0.87,-0.29 -1.04,-0.01 -1.25,-1.08 3.11,0.84 0.22,0.3 3.4,0.63zm-10.83 -1.73c0.54,-0.54 1.64,-0.62 2.57,-0.96 0.95,-0.35 1.59,-0.83 2.29,-1.25 0.03,0.04 0.05,0.09 0.07,0.12l0.12 0.24c0.02,0.04 0.03,0.08 0.05,0.13l1.16 3c-1.07,-0.16 -2.19,-0.38 -3.28,-0.56l-2.87 -0.64c-0.02,-0.05 -0.07,-0.05 -0.1,-0.07zm118.93 1.25c1.78,-0.87 2.08,-2.33 2.41,-3.37 0.66,0.2 1.55,0.76 2.35,1.09l2.44 0.8c0.02,-0.04 0.08,0.04 0.12,0.07 -0.64,0.52 -6.97,1.44 -7.33,1.41zm-5.72 37.15c-0.14,0.83 -1.83,2.29 -2.58,3.05l-2.62 3.06c-5.69,7.52 -5.61,16.63 -10.55,23.21 -3.44,4.58 -8.82,7.4 -14.9,7.67 -3.5,0.16 -7.01,-0.24 -10.16,-1.24 -3.43,-1.08 -6.41,-3.72 -7.16,-3.91 1.88,2.78 6.7,5.15 11.5,6.08 5.38,1.04 10.56,0.57 15.02,-1.6 8.51,-4.15 10.96,-13.32 13.49,-21.78 1,0.02 9.56,3.58 9.84,4.21 0.35,2.36 -1.55,8.44 -2.33,10.49 -1.14,3 -2.53,6.08 -4.09,8.62 -0.86,1.4 -1.62,2.74 -2.47,4.05l-5.21 7.49c-4.5,6.82 -9.31,14.41 -8.45,23.18 0.37,3.76 1.14,8.02 -0.43,11.39 -1,2.15 -2.2,4.14 -3.72,5.8 -0.44,0.48 -1.17,1.21 -1.36,1.81 0.64,-0.23 3.6,-3.05 4.21,-3.81 0.4,-0.5 0.59,-1.27 1.16,-1.54 0.25,0.34 1.34,3.25 1.65,3.9 0.63,1.3 1.15,2.41 1.73,3.78 0.78,1.85 2.34,6.33 2.45,8.42 -9.38,5.44 -22.73,8.2 -35.41,8.19 -7.1,-0.01 -13.11,-0.66 -19.6,-2.14 -3.51,-0.8 -13.94,-4.14 -15.57,-6.24 0.16,-2.4 1.64,-6.55 2.57,-8.54 0.6,-1.29 1.12,-2.49 1.73,-3.78l1.47 -3.93c0.68,0.67 1.46,2.17 2.11,2.96 0.54,0.65 1.76,2.36 2.43,2.65 -0.36,-1.29 -1.62,-2.87 -2.35,-4.07 -3.64,-5.92 -2.92,-8.57 -2.25,-15.54 1.14,-11.83 -10.61,-24.74 -16.15,-34.24 -2.43,-4.16 -6.27,-13.18 -6.37,-18.94 1.41,-0.66 3.26,-1.36 4.71,-2.11 1.13,-0.59 3.6,-1.79 5.16,-1.54 0.86,1.23 2.43,9.39 6.67,15.41 0.93,1.32 2.03,2.22 3.1,3.41 5.23,5.83 17.83,5.58 25.47,1.56 2.06,-1.08 3.56,-2.23 4.8,-3.77 -4.47,3.5 -11.08,6.07 -18.61,5.36 -3.02,-0.29 -6.75,-1.51 -8.88,-3.09 -10.45,-7.76 -7.72,-17.36 -14.79,-27.32 -0.83,-1.17 -1.87,-2.15 -2.77,-3.24l-2.74 -3.28c-0.46,-0.62 -0.79,-1.04 -1.26,-1.75 -0.38,-0.58 -0.74,-1.31 -1.31,-1.64 1.21,3.49 3.42,5.81 5.31,8.34 1.11,1.49 4.31,6.56 4.71,8.86 -0.66,0.37 -1.83,0.48 -2.65,0.72 -2.47,0.72 -4.67,1.79 -7.12,2.58 -20.19,6.49 -32.78,-1.13 -49.67,-10.22 -3.05,-1.64 -6.3,-2.35 -7.86,-5.17 -1.38,-2.5 0.93,-7.45 1.83,-9.9 2.78,-7.61 7.22,-13.93 12.82,-19.6 1.14,-1.16 2.15,-1.89 3.32,-3.19 1.4,-1.56 3.5,-3.18 5.17,-4.52 0.6,-0.48 1.09,-1.02 1.67,-1.5l3.45 -3.06c2.34,-1.97 4.11,-4.62 6.35,-6.69 0.78,-0.72 3.01,-1.62 4.17,-2.19 2.91,-1.44 6.23,-2.63 9.64,-3.38 1.28,-0.28 10.52,-1.98 11.16,-1.68 0.16,0.17 1.19,2.04 1.33,2.31 0.88,1.68 2.28,6.04 2.95,7.9 0.41,1.14 1.45,3.29 0.64,4.36 -1.11,1.47 -1.54,0.53 -2.32,1.02 -0.38,0.24 -0.53,0.5 -1.04,0.81 -0.4,0.24 -0.81,0.42 -1.23,0.61 -0.65,0.29 -0.81,0.43 -1.22,0.16 0.69,-0.79 2.51,-0.85 2.92,-1.97 0.46,-1.27 -1.67,-5.87 -2.09,-7.35 -0.18,-0.62 -0.34,-1.16 -0.48,-1.83 -0.17,-0.84 -0.04,-1.43 -0.81,-1.54 -1.26,1.76 2.69,8.36 2.46,10.65 -1.42,1.12 -2.97,1.33 -5.26,1.15 -1.44,-0.11 -1.51,0.09 -2.11,-1.06 -0.39,-0.74 -0.71,-1.55 -0.8,-2.43 0.56,-0.49 0.98,-1.06 2.03,-1 0.15,1.25 -0.28,0.77 -0.33,1.84 1.02,-0.02 0.32,-0.21 1.16,-0.49 0.45,0.68 0.45,0.98 1.38,1.09 -0.18,-0.79 -0.62,-1.43 -0.95,-2.19 -0.31,-0.73 -0.16,-1.43 -0.32,-2.17l-0.11 -0.24c-0.62,0.33 -0.3,0.41 -0.48,1.17 -1.61,0.22 -0.77,-0.49 -1.69,-0.99 -0.5,0.8 0.89,0.6 -0.88,1.78 -1.54,1.03 -1.92,2.27 -5.92,3.1 -4.98,1.03 -6.03,-3.32 -7.61,-4.05 0.22,1.51 1.9,3.22 2.49,4.01l-1.87 1.58c-1.33,1.27 -3.27,4.31 -4.23,5.97 -1.78,3.12 -3.03,5.69 -4.16,9.56 -4.49,15.37 -8.99,16.38 -9.62,17.93 2.06,-0.56 3.76,-4.11 5.38,-4.35 3.37,-0.49 6.46,-3.38 11.86,-3.99 3.65,-0.41 8,0.02 10.91,1.51 1.47,0.75 2.67,1.6 3.85,2.5 0.74,0.57 2.77,2.87 3.22,3 -0.11,-0.66 -0.65,-1.25 -1.07,-1.81 -0.4,-0.53 -1.1,-1.16 -1.36,-1.66 0.04,-0.02 0.09,-0.04 0.12,-0.05 0.03,-0.01 0.09,-0.03 0.13,-0.04 0.04,-0.01 0.09,-0.03 0.13,-0.04l0.7 -0.14c0.22,-0.06 0.58,-0.21 0.85,-0.3 4.51,-1.55 10.1,-1.67 14.57,-0.37 3.62,1.05 6.69,2.86 9.16,5.36 0.68,0.69 2.14,1.12 2.38,2.21 -1.87,-0.05 -4.58,-1.51 -6.63,-1.59 0.58,1.13 5.56,2.53 7.21,2.77 1.53,0.22 2.99,0.22 4.55,0.44 4.94,0.69 11.45,1.94 15.83,4.08 1,0.49 2.29,1.47 3.17,1.73 -0.89,-3.63 -14.07,-6.3 -18.2,-7.28 -0.72,-0.17 -0.75,0.15 -1.67,-0.13 -1.15,-0.35 -0.44,-0.19 -1.58,-0.1 -0.63,0.05 -2.43,-1.03 -2.67,-1.55 0.91,-0.68 2.66,-0.58 3.71,-0.97l9.91 -3.45c0.3,1.73 -0.33,3.76 -0.69,5.23 2.41,-0.26 1.98,-10.02 1.85,-12.49 2.24,0.94 5.63,8.26 12.82,8.19 4.41,-0.04 6.19,-2.2 8.78,-4.43l3.79 -3.94c0.41,4.27 -0.8,9.38 1.63,12.45 0.14,-0.22 -0.24,-4.25 -0.21,-5.16 1.02,0.29 2.23,0.87 3.34,1.27 1.16,0.42 2.25,0.77 3.39,1.13 1.18,0.37 2.19,0.75 3.39,1.13l3.32 1.1c-1.56,0.97 -4.02,1.52 -6.23,1.92 -2.88,0.52 -16.63,3.45 -17.45,6.79 1.11,-0.33 3.58,-1.94 7,-3.01 8.22,-2.58 10.22,-1.7 16.38,-3.02 1.56,-0.33 5.98,-1.91 7.09,-2.58 -0.75,-0.52 -5.97,1.54 -7.35,1.68 0.23,-0.42 4.66,-3.91 5.41,-4.48 4.24,-3.21 10.05,-4.52 15.49,-4.08 1.24,0.1 2.82,0.36 4.09,0.66 1.02,0.23 2.89,0.38 3.67,1.23 -0.26,0.9 -1.9,2 -2.15,2.96 1.15,-0.36 2.35,-1.88 3.27,-2.63 3.88,-3.14 7.98,-4.46 13.38,-4.18 6.26,0.32 7.87,2.68 11.26,3.62 0.73,0.2 1.52,0.39 2.15,0.69 0.57,0.26 2.61,2.23 2.89,2.84 1.09,0.44 1.62,1.63 2.87,1.99 -0.54,-1.19 -3.57,-2.9 -6.18,-7.92 -4.18,-8.02 -3.41,-13.98 -10.87,-24.22 -1.6,-2.19 -3.22,-3.15 -3.5,-3.55 0.28,-0.54 0.37,-0.39 0.89,-0.83 0.33,-0.29 0.55,-0.52 0.74,-0.76 0.31,-0.39 1.06,-1.46 1.23,-1.9 -0.74,0.09 -1.06,0.79 -1.55,1.24 -0.69,0.64 -0.76,0.86 -1.5,1.34 -2.65,1.73 -6.03,1.03 -8.6,-0.61 -3.6,-2.28 -2.14,-1.23 -2.85,-2.79 -0.41,0.25 -0.17,0.23 -0.67,0.51 -0.83,-0.25 -0.66,-0.23 -1.08,-0.83 -0.18,-0.25 -0.07,-0.15 -0.26,-0.32 -0.16,0.26 -0.1,-0.02 -0.13,0.42 -0.03,0.45 -0.04,0.08 0.06,0.38 0.02,0.05 0.31,0.57 0.35,0.63 -0.62,1.08 -3.14,3.1 -0.22,3.22 -0.05,-1.28 -0.41,-0.16 -0.34,-1.34 0.48,-0.25 0.53,-0.16 1.23,-0.13l-0.23 -1.22c0.86,-0.03 1.5,0.76 1.86,1.31 -0.36,1.85 -1.41,3.13 -3.25,3.34 -1.76,0.2 -4.53,-0.37 -4.55,-2 -0.01,-0.5 2.38,-7.79 2.86,-10.03 -1.35,0.07 -1.65,2.26 -2.01,3.49 -0.41,1.37 -0.83,2.67 -1.27,4.08 -0.88,2.8 -1.24,3.66 2.09,4.85 1.31,0.47 1.5,0.32 1.7,0.97 -0.44,0.4 -0.25,0.44 -1.1,0.29 -1.65,-0.29 -6.46,-3.13 -6.69,-3.65 -0.07,-1.58 1.42,-5.61 1.9,-7.08 0.38,-1.17 0.77,-2.23 1.09,-3.44 0.41,-1.51 0.21,-3.11 0.96,-3.58 1.39,-0.64 9.59,0.87 11.51,1.27 3.58,0.76 6.63,1.9 9.74,3.28 4.06,1.81 4.73,2.02 7.61,5.42 1.73,2.03 3.86,3.75 5.83,5.53l10.92 10.13c0.67,0.66 1.08,0.95 1.68,1.66 0.28,0.34 0.47,0.6 0.77,0.91 2.32,2.42 4.49,5.33 6.31,8.23 2.67,4.25 4.23,8.76 5.89,13.49 0.62,1.76 1.4,3.28 0.46,5.15 -0.82,1.63 -1.65,2.38 -3.29,3.23 -6.24,3.24 -15.56,8.41 -21.49,10.93 -10.71,4.55 -21.56,5.3 -32.86,1.61 -1.8,-0.59 -3.08,-1.05 -4.77,-1.75 -1.53,-0.64 -3.09,-1.41 -4.95,-1.42 -0.05,-0.71 1.59,-3.99 2.02,-4.75 2.56,-4.53 7.33,-9.42 7.94,-12.28 -1.05,0.73 -1.33,2.38 -2.4,3zm-5.79 -39.37c-0.77,-0.21 -0.96,-0.81 -1.41,-1.41 -0.39,-0.51 -1.12,-1 -1.14,-1.6 -0.03,-1.04 3.13,-6.43 3.77,-7.53 0.65,-1.11 1.3,-2.82 2.44,-3.25 -0.11,1.92 -1.37,5.11 -2.01,6.87 -1.43,3.95 -1.11,3.22 -1.65,6.93zm-90.77 -7.81c-2.39,-6.97 -3.03,-5.04 -3.51,-6.58l0.73 -0.18c1.67,0.09 6.36,9.25 7.03,10.73 0.56,1.23 0.26,1.11 -0.46,2.03 -0.46,0.59 -0.83,1.34 -1.38,1.67l-0.13 -0.26c-0.02,-0.04 -0.04,-0.09 -0.05,-0.13l-0.09 -0.71c-0.15,-1.85 -1.5,-4.73 -2.13,-6.56zm37.35 -9.48c-0.39,0.49 -1.41,0.96 -2.27,1.64 -2.04,1.61 -3.76,3.66 -5.05,6.15 -2.35,4.52 -1.76,7.69 -1.91,13.14 -0.83,-0.09 -2.03,-0.53 -2.6,1.55 -0.31,1.1 -0.12,2.77 0.09,3.89 0.33,1.74 1.25,5.29 2.1,6.7 0.99,1.63 1.8,1.38 2.61,1.91 0.63,0.41 0.72,2.34 1.15,3.2 0.72,1.47 0.55,1.9 0.6,3.75 0.03,1.29 0.18,2.95 0.03,4.2 -1.28,0.96 -9.78,3.67 -12.26,4.42 -2.6,0.79 -1.96,0.33 -3.59,-0.99 -12.45,-10.1 -24.53,-3.55 -25.86,-3.61 -1.27,-0.06 -6.31,-5.74 -17.5,-3.4 -4.51,0.95 -6.58,2.81 -7.69,3.23 0.18,-0.57 0.53,-0.95 0.87,-1.55 1.34,-2.4 3.3,-9.72 4.52,-13.02 1.16,-3.14 4.36,-8.66 6.7,-10.84 0.46,-0.43 0.78,-0.8 1.24,-1.25 1.49,0.01 4.78,1.3 6.54,1.63 2.47,0.46 4.51,0.42 6.94,1.24 2.33,0.78 4.49,-0.36 6.45,-1.18 2.01,-0.84 3.85,-1.76 5.05,-2.97 1.23,-1.25 3.4,-2.23 2.33,-4.99 -0.67,-1.71 -1.89,-3.66 -2.77,-5.26 -1.34,-2.45 -2.69,-6.04 -5.82,-6.4 -1.33,-0.15 -2.84,-0.04 -4.18,0.02 -7.44,0.91 -19.27,3.32 -24.49,8.77 -0.54,0.57 -0.9,1.18 -1.47,1.71 -1.8,1.69 -5.95,5.89 -7.84,7.37 -3.97,3.09 -11.13,10 -13.9,13.51 -5.5,6.96 -7.71,11.53 -10.49,20.28 -2.55,8.05 3.33,10 9.9,13.2 8.13,3.95 15.07,9.07 25.42,11.18 12.54,2.56 20.63,-0.67 22.1,-0.57 0.6,1.86 0.81,4.51 1.95,7.94 5.76,17.35 18.13,26.01 20.36,39.48 0.78,4.7 -0.83,9.37 -0.22,14.1 0.21,1.59 0.88,2.64 0.44,4.3 -0.61,2.3 -2.01,4.96 -2.99,7.03 -1.1,2.33 -1.9,4.81 -2.45,7.57 -0.37,1.85 -0.67,2.73 0.77,3.68 0.86,0.57 2.28,1.27 3.26,1.75 18.46,9.05 47.67,8.91 66.12,-0.28 4.01,-2 4.36,-2.09 3.59,-5.6 -1.54,-7.05 -4.57,-10.56 -5.53,-14.54 -0.29,-1.19 1.1,-3.82 0.76,-8.8 -0.21,-3.01 -0.98,-6.08 -0.42,-9.11 0.93,-5.07 3.32,-9.94 6.01,-14.02 0.7,-1.07 1.25,-1.93 2.01,-3 2.12,-3.02 4,-5.57 6.05,-8.82 2.8,-4.44 4.79,-8.46 6.52,-13.52 0.62,-1.82 1.42,-4.95 1.7,-6.96 0.09,-0.61 0.04,-0.72 0.28,-1.17 3.95,0.36 4.86,1.57 12.53,1.51 17.26,-0.12 29.56,-10.07 31.72,-10.24 0.84,-0.99 9.09,-4.22 11.53,-6.6 3.93,-3.83 1.62,-8.64 -0.11,-13.38 -1.52,-4.17 -3.91,-8.67 -6.15,-11.89 -1.93,-2.79 -3.92,-5 -6.11,-7.43 -0.72,-0.8 -1.38,-1.45 -2.17,-2.17 -0.85,-0.78 -1.44,-1.27 -2.31,-2.2 -0.75,-0.81 -1.59,-1.36 -2.36,-2.15 -0.84,-0.88 -1.44,-1.35 -2.34,-2.17 -0.76,-0.69 -1.75,-1.42 -2.42,-2.09l-7.96 -7.75c-0.49,-0.53 -0.47,-0.67 -1.06,-1.11 -3.1,-2.33 -8.23,-4.49 -12.24,-5.64 -4.85,-1.39 -10.49,-2.46 -15.91,-2.18 -3.07,0.9 -4.18,3.67 -5.75,6.65 -0.74,1.41 -1.41,2.54 -2.07,4.11 -1.04,2.5 -0.71,2.93 0.7,4.58 2.84,3.31 3.99,3.26 7.64,4.89 2.03,0.91 2.5,1.23 4.8,0.34 2.44,-0.94 6.64,-0.53 10.73,-1.79 0.64,-0.2 1.82,-0.75 2.37,-0.85 1.1,-0.2 1.31,0.62 1.94,1.17 1.61,1.42 3.94,4.92 5.18,7.36 3.15,6.23 3.72,11.47 5.9,15.98 0.44,0.91 0.98,1.22 1.21,2.06 -0.83,-0.25 -1.11,-0.56 -1.84,-0.92 -0.65,-0.33 -1.3,-0.6 -1.96,-0.88 -1.39,-0.58 -2.64,-0.99 -4.14,-1.39 -5.42,-1.45 -11.05,-0.13 -15.76,2.61 -2.62,1.52 -0.84,0.77 -6.12,-0.45 -1.61,-0.37 -3.24,-0.69 -5.02,-0.73 -3.29,-0.09 -6.77,0.44 -9.6,1.5 -2.21,0.83 -5.43,2.67 -7.02,4.18 -1.48,1.4 -1.13,1.62 -3.53,0.86 -1.37,-0.44 -2.85,-0.89 -4.16,-1.36 -2.05,-0.74 -6.67,-2.06 -7.93,-3.26 -0.25,-1.46 -0.03,-4.37 0.06,-5.91 0.04,-0.71 1.02,-4.36 1.28,-4.95 1.43,-1.01 1.69,0.34 2.86,-2.15 0.84,-1.8 2.21,-6.03 2.27,-8.04 0.07,-2.26 0.02,-2.55 -1.1,-4l-1.57 0.2c0.23,-7.84 -0.81,-14.49 -6.85,-19.24 -4.28,-3.37 -9.93,-4.48 -15.55,-3.39 -0.86,0.17 -1.69,0.43 -2.47,0.71 -0.76,0.28 -1.61,0.85 -2.34,0.93zm-7.18 139.59c-0.12,-2.83 0.06,-4.98 -1.06,-7.15 -1.38,-2.67 -1.98,-4.98 -2.8,-8l-0.11 0.57c-0.01,3.02 0.91,5.38 2.08,8.09 1.12,2.6 1.22,7.06 2.12,8.75 0.02,-0.76 -0.19,-1.35 -0.23,-2.26zm46.86 -36.65c0.98,0.12 2.1,-1.48 2.45,-2.17 -0.37,0.1 -2.4,1.7 -2.45,2.17zm-29.84 31.13c0.16,0.18 0.37,0.39 0.62,0.58 0.76,0.56 1.53,0.55 2.51,0.64 1.27,0.12 2.54,0.26 3.77,0.37 1.97,0.18 3.83,0.2 5.68,-0.56 1.08,-0.45 0.97,-0.43 1.15,-0.86 -0.65,-0.23 -2.04,0.45 -3.01,0.5l-10.71 -0.67c-0.79,-3.58 0.27,-9.77 -0.3,-13.6 -1.37,0.78 -1.23,5.26 -1.24,7.08 -0.01,2.56 -0.36,5.36 1.54,6.51zm-19.04 7.94c-1.04,1.11 0.86,9.26 1.37,10.76 0.48,1.43 1.11,3.04 1.87,4.3 0.45,0.75 2,3.19 2.7,3.37 -0.13,-0.87 -1.47,-3.22 -1.92,-4.16 -1.39,-2.94 -2.27,-6.07 -3.05,-9.31 -0.2,-0.85 -0.79,-4.67 -0.98,-4.97zm71.94 -79.86c1.94,-0.09 5.73,1.5 13.54,0.53 2.68,-0.33 9.84,-2.59 10.74,-4.12 -0.73,0.05 -3.9,1.41 -5.04,1.76 -6.77,2.08 -12.49,1.33 -19.23,1.83zm-53.37 44.53c-1.62,0.5 -1.06,4.65 -1.07,6.51 -0,0.69 -0.1,4.14 0.08,4.61l0.27 0.42c0.45,0.65 0.32,0.84 1.05,1.04 -0.02,-2.45 0.16,-10.91 -0.33,-12.59zm-21.05 3.67c0.76,0.56 4.81,-1.03 5.93,-1.4 3.62,-1.19 7.89,-2.29 11.48,-3.56 2.44,-0.86 2.04,-2.6 3.29,-4.28 0.81,0.82 0.77,3.28 3.25,4.15 3.16,1.11 8.63,2.68 10.96,3.57 1.04,0.4 4.44,1.92 5.28,1.18 -0.27,-0.34 -4.84,-2.1 -5.59,-2.38 -2.38,-0.85 -10.45,-2.63 -11.78,-4.1 -0.89,-0.99 -1.7,-2.76 -1.83,-4.18 -0.15,-1.68 -0.08,-1.23 -0.46,-1.44l-0.16 0.57c-0.14,1 0.05,1.46 -0.57,2.94 -0.44,1.05 -0.81,1.93 -1.65,2.53 -1.14,0.82 -10.18,3.24 -12.39,3.99 -0.79,0.27 -5.5,2.14 -5.77,2.39zm19.16 9.32c-4.42,0.15 -12.09,2.62 -16.2,1.06 -2.11,-0.8 -3.17,-5.92 -4.19,-6.55 0.2,3.62 1.77,5.07 2.76,7.16 0.38,0.8 0.44,1.61 1.29,1.91 -0.12,-0.8 -0.45,-1 -0.27,-1.78 1.25,0.16 2.46,0.73 4.17,0.87 3.26,0.26 5.79,-0.5 8.85,-1.23 2.27,-0.54 3.11,-0.32 3.6,-1.43zm-76.67 -61.27c0.22,0.16 0.59,0.57 0.97,0.84 1.86,1.32 6.46,2.89 8.58,3.31 3.15,0.61 7.82,0.71 11.05,0.05 0.16,-0.03 0.56,-0.11 0.69,-0.17 0.6,-0.24 0.27,-0.08 0.52,-0.37 -0.21,-0.13 -0.05,-0.08 -0.41,-0.15 -0.04,-0.01 -0.09,-0.02 -0.13,-0.02l-5.72 0.11c-1.78,-0.05 -4.03,-0.25 -5.78,-0.56 -2.85,-0.5 -4.95,-1.08 -7.54,-2.1 -0.83,-0.33 -1.38,-0.71 -2.22,-0.94zm48.78 43.93c-0.06,-0.03 -2.55,-0.91 -2.59,-0.92 0.03,0.79 0.59,0.8 1.29,1.08 1.16,0.45 0.92,1.83 3.06,4.28 0.51,0.58 4.42,4.34 5.52,4 0.05,-0.87 -1.81,-1.54 -3.02,-2.83 -0.4,-0.42 -0.55,-0.66 -0.95,-1.05 -3.23,-3.17 -2.75,-3.98 -3.31,-4.56zm14.59 31.98c1.51,1.6 4.08,1.48 6.65,1.37 1.27,-0.05 2.64,-0.16 3.86,-0.27 1.31,-0.12 2.69,0.11 2.79,-1.11 -3.25,-0.2 -6.87,0.3 -10.17,0.37 -2.47,0.05 -2.13,-0.42 -3.13,-0.36z"/>
 </g>
</svg>
