<?xml version="1.0" encoding="UTF-8"?>
<!DOCTYPE svg PUBLIC "-//W3C//DTD SVG 1.1//EN" "http://www.w3.org/Graphics/SVG/1.1/DTD/svg11.dtd">
<!-- Creator: CorelDRAW -->
<svg xmlns="http://www.w3.org/2000/svg" xml:space="preserve" width="7.89844in" height="8.04898in" version="1.1" style="shape-rendering:geometricPrecision; text-rendering:geometricPrecision; image-rendering:optimizeQuality; fill-rule:evenodd; clip-rule:evenodd"
viewBox="0 0 821.06 836.71"
 xmlns:xlink="http://www.w3.org/1999/xlink"
 xmlns:xodm="http://www.corel.com/coreldraw/odm/2003">
 <defs>
  <style type="text/css">
   <![CDATA[
    .fil0 {fill:#060505}
   ]]>
  </style>
 </defs>
 <g id="Layer_x0020_1">
  <metadata id="CorelCorpID_0Corel-Layer"/>
  <path class="fil0" d="M435.27 369.51c7.47,-5.76 18.44,-8.31 27.73,-19.81 4.67,-5.78 15.15,-24.38 15.74,-33.49 -12.06,15.37 -10.84,22.05 -31.26,41.12l-12.21 12.18zm108.59 -124.74c6.48,-2.66 8.85,-5.12 11.53,-11.01 -5.58,2.56 -8.53,5.28 -11.53,11.01zm-335.94 386.92c-1.66,-3.33 0.8,-1.04 -2.85,-2.94 -8.76,-4.57 -7.62,1.23 -25.76,-16.69 -1.11,10.64 17.33,26.28 28.61,19.63zm-17.91 60.4c-10.81,-39.94 -14.68,-44.61 -28.7,-77.36 -2.44,-5.71 -7.66,-20.97 -11.82,-22.99 2.64,5.63 5.99,18.11 8.28,25.01 3.06,9.2 6.19,18.16 9.57,26.58 6.44,16.05 14.77,35.22 22.66,48.76zm453.45 33.42c7.95,-32.35 6.99,-102.93 1.09,-136.43l-1.09 136.43zm-458.92 -125.41c12.62,19.79 35.43,18.68 42.96,22.93 -4.01,16.24 -16.34,8.16 -16.41,21.21 16.18,3.35 25.11,-8.78 27.17,-22.62l48.19 -18.42c-8.83,-16.11 -19.83,0.47 -47.35,7.75 -22.51,5.95 -38.32,-4.82 -54.57,-10.85zm164.91 -492.62c5.45,3.15 3.69,3.53 11.67,3.04l-0.21 -7.27c-5.79,-2.15 -6.58,1.06 -11.08,-6.22 -3.06,-4.94 -3.87,-10.13 -1.42,-14.9 10.49,-3.37 10.32,3.72 18.82,6.88 -1.18,-10.4 -13.61,-17.17 -21.55,-9.67 -8.14,7.7 1.13,21.47 3.77,28.14 -2.35,-1.15 -0.42,0.08 -2.54,-1.76l-4.07 -4.59c-5.92,-7.38 -10.24,-17.77 -10.1,-28.18 8.71,-3.68 91.7,-9.46 107.97,-10.5 1.25,16.28 3.76,31.28 -1.42,46.99 -11.14,33.8 -17.11,51.21 -51.51,30.5 -14.64,-8.81 -12.24,-15.26 -19.67,-29.09 -5.8,8.81 7.46,39.27 40.82,42.77 0.49,22.92 -2.07,19.88 -12.18,34.57 -5.81,8.45 -11.32,20.5 -16.81,27.42 -4.76,-10.1 -22.85,-35.61 -24.22,-46.3 -0.98,-7.68 1.59,-23.95 1.03,-34.33 -0.27,-4.98 -0.68,-10.65 -1.94,-15.41l-5.36 -12.07zm340.55 652.7c11.62,-3.7 14.96,0.34 40.54,-9.34 2.02,1.89 -0.24,-0.5 2.34,2.53 19.18,22.54 28.77,35.99 58.2,53.13 8.56,4.98 21.14,10.77 22.94,15.77 -9.39,7.01 -31.51,8.43 -44.39,6.87 -15.52,-1.88 -23.41,-11.31 -37.29,-14.57 -24.1,-5.67 -56.29,10.66 -44.09,-28.83 3.91,-12.65 1.74,-13.43 1.75,-25.55zm-681.42 41.87c2.82,-3.28 7.89,-5.02 11.92,-6.88 13.56,-6.24 49.2,-29.18 60.44,-37.78 18.85,-14.42 11.03,-9.71 21.55,-19.3 3.59,0.65 30.45,6.94 31.97,7.65l-0.39 18.15c2.42,-1.9 3.25,-9.32 3.75,-11.88 1.46,-7.43 0.86,-6.48 8.3,-7.52 1.95,11.47 13.18,37.63 2.75,43.31 -6.75,3.68 -37.92,2.37 -50.66,5.64 -16.5,4.23 -66.17,27.97 -89.61,8.6zm328.9 -359.32c16.88,11.13 21.67,17.18 46.72,22.83 14.95,3.37 51.04,6.98 63.53,0.1 -26.6,-0.63 -85.2,-4.18 -99.22,-21.34 25.18,-0.13 32.66,5.95 75.03,1.89 18.73,-1.79 52.26,-6.25 66.93,-13.5 8.25,4.91 -3.38,1.86 14.7,8.36 7.26,2.61 5.22,7.89 10.61,14.06 3.98,4.56 22.14,18.29 26.19,23.81 -20.9,1.55 -38,10.18 -52.82,19.64 -41.49,26.46 -91.26,45.09 -142.16,32.95 -10.26,-2.45 -20.21,-7.1 -28.52,-9.05l9.15 -44.38 2.91 4.96c1.07,2.23 1.51,3.81 2.46,6.18 3.63,9.09 10.75,21.09 17.05,27.81 1.6,1.71 0.83,1.06 2.51,2.39 -5.98,-17.96 -28.02,-50.34 -18.15,-71.87 12.85,15.25 12.85,22.13 33.12,36.05 13.27,9.12 29.19,17.27 46.74,22.06 -1.76,-1.57 -32.35,-18.29 -42.72,-26.11 -3.4,-2.57 -5.66,-5.06 -9.39,-7.91 -9.14,-6.99 -19.36,-17.9 -24.66,-28.94zm-27.43 19.28c0.24,-0.35 0.55,-1.32 0.65,-1.1 1.06,2.4 5.75,-23.08 6.02,-25.19l11.37 3.52c-0.98,34.37 -24.22,75.1 -23.81,155.14 -6.35,-1.3 -14.78,-5.34 -20.65,-8.1 -7.1,-3.34 -15.71,-4.45 -22.79,-8 2.88,-18.88 14.91,-44.25 22.92,-58.39 8.49,-14.98 23.42,-38.2 26.88,-56.38l-3.82 5.82c-15.37,33.21 -22.35,36.78 -35.75,62.43 -2.24,4.28 -1.26,3.71 -4.59,5.48 -1.85,0.98 -28.28,10.51 -29.29,10.7 21.09,-57.03 29.9,-46.63 56.34,-86.11 10.51,-15.69 10.84,-28.87 16.74,-30.37 6.86,5.39 0.33,21.76 -0.22,30.57zm98.4 -39.5c54.35,-0.88 61.47,-12.41 78.09,-15.81 2.32,5.53 3.22,12.57 2.86,18.52 -38.91,17.83 -146.96,22.83 -179.19,-2.89 -0.28,-9.17 3.04,-17.11 4.23,-26.02 13.27,2.71 25.68,8.62 40.17,10.6 40.88,5.58 58.82,-8.48 86.2,-12.78 7.62,-1.19 15.05,-1.5 22.56,-2.17 9.05,-0.8 14.07,-3.33 21.3,-4.48l1.34 13.57c-9.79,2.16 -23.8,9.63 -36.37,13.2 -8.06,2.28 -38.33,6.79 -41.19,8.25zm-171.24 -32.68c-0.3,-7.05 12.97,-22.93 16.88,-27.07 18.41,4.22 31.04,4.89 36.58,7.1 0.23,0.09 0.7,0.29 1.01,0.49 -13.66,9.34 -28.01,24.99 -54.46,19.47zm21.14 -32.46c2.51,-4.93 5.49,-6.37 10.84,-12.31 24.07,-26.75 33.93,-11.71 44.84,-18.73 8.42,-5.41 7.54,-21.07 18.51,-26.22 4.8,-2.26 13.78,-1.42 19.63,-2.07 8.66,-0.95 11.7,-3.24 11.6,7.25l-17.39 1.54c6.85,11.45 30.44,-3.98 32.3,13.59 -15.78,4.93 -17.84,-1.01 -20.55,6.87 7.29,3.03 12.86,-0.39 21.41,-0.14 1.58,16.05 -10.77,5.54 -17.6,14.33 1.84,1.59 1.6,2.2 7.54,2.15 2.15,-0.02 6.42,-0.77 9.09,-0.93 0.05,12.33 -4.36,7.3 -13.24,10.33 3.32,1.97 6.35,1.11 10.24,-0.19 -2.17,7.13 -3.29,5.11 -10.53,8.64 -16.57,8.07 -24.02,6.69 -43.35,3.22 -17.18,-3.08 -48.21,0.7 -63.34,-7.33zm98.64 -67.86c4.29,-9.13 8.76,-22.89 12.79,-33.03 19.24,-48.4 31.79,-57.57 47.45,-90.88l7.44 5.22c-2.74,8.99 -8.84,17.38 -12.93,26.54 -3.93,8.79 -8.08,16.94 -11.46,25.64 4.73,-4.84 26.89,-39.79 29.57,-47.75 49.36,7.27 65.4,9.87 104.15,48.03 19.09,18.8 22.93,-0.65 34.1,11.37 -6.77,10.62 -20.19,17.63 -17.97,47.33 4.35,-7.31 7.29,-21.6 12.71,-30.23 5.46,-8.68 11.34,-15.92 25.58,-15.03 -2.01,22.9 -7.55,31.41 2.38,55.34 8.5,20.49 22.37,30.85 25.59,39.3 -43.7,9.46 -66.86,-3.73 -104.33,-19.74 -6.04,-2.58 -13.79,-3.95 -16.46,-9.53 -8.2,-17.16 -0.59,-41.18 -3.63,-45.9 -3.69,9.68 -4.65,17.59 -5.15,29.63 -3.58,-3.62 -5.32,-10.06 -6.77,-15.78 -1.75,-6.91 -1.81,-12.09 -2.39,-19.1 -10.78,19.38 6.51,42.17 11.07,55.29 4.87,14.01 -13.82,39.36 -14.96,53.64l6.98 -7.85c5.15,4.35 8.72,13.29 5.94,21.38 -5.76,16.77 -41.16,9.05 -70.54,18.99 -69.46,23.49 -73.21,-5.14 -91.23,-10.22 2.38,5.74 7.61,7.32 11.12,12.46 -6.82,-1.8 -13.63,-6.12 -21.06,-8.65 -10.57,-3.6 -13.5,-2.11 -17.84,-11.73 15.05,-9.42 25.89,0.23 46.5,-0.79 13.18,-0.65 32.75,-7.23 37.32,-14.83 5.98,-9.96 6.42,-32.82 2.48,-43.93 -2.82,-7.96 -9.41,-5.1 -13.43,-12.69 -1.72,-3.25 -2.38,-6.13 -4.63,-8.27 -4.31,-4.09 -4.44,-1.67 -8.4,-4.22zm-127.45 95.57c-8.42,-6.63 -34.27,-44.86 -37.1,-61.21 -2.69,-15.55 4.8,-27.2 10.5,-37.87 41.38,-77.45 45.05,-94.94 130.74,-115.24 3.26,12.21 18.87,43.53 26.22,49.76l-21.42 -52.29c2.06,-3.04 4.74,-6.43 8.67,-7.94 2.39,25.54 28.46,57.15 28.01,64.09 -0.2,3.11 -11.06,27.11 -13.21,32.94l-7.96 26.63c-5.47,17.63 -16.87,0.78 -30.67,15.61 -5.45,5.86 -8.63,18.1 -14.37,21.8 -4.9,1.71 -17.72,-8.15 -19.25,-12.59 -3.87,-11.21 -5.84,-72.85 -10.67,-81.16 -0.56,27.83 2.64,52.66 2.83,78.92 -13.68,-5.53 -17.12,-27.68 -22.14,-35.84l-1.4 -1.77c0.75,13.86 2.76,16.89 5.94,28.3 -12.97,-4.17 -13.82,-7.03 -30.23,-6.02 8.09,5.5 23.48,6.36 28.2,14.19 -11.79,4.67 -19.21,3.25 -29.76,11.21 20.47,-4.27 45.02,-9.35 60.42,4.67 -7.92,4.84 -12.76,5.27 -20.12,11.48 -31.14,26.33 -30.73,38.2 -43.24,52.33zm362.45 -264.14c14.49,4.98 14.01,37.65 21.92,41.9 0.1,-34.64 -20.08,-40.27 -17.98,-51.47 8.85,-5.14 16.99,13.64 20.8,20.53 4.77,8.61 7.42,21.7 10.93,30.62 3.49,-4.58 -1.81,-19.64 -3.8,-24.74 -2.75,-7.04 -9.5,-15.07 -10.02,-21.19 4.6,2.21 11.76,13.76 15,19.08 4.53,7.43 6.59,16.43 9.95,24.69 8.39,20.6 9.45,34.9 3.38,56.75 -7.45,26.82 -2.61,33.95 1,60.14 3.47,25.19 0.09,40.94 -18.03,49.96 -6.3,-3.05 -16.41,-18.01 -20.07,-24.7 2.03,-2.03 0.37,-0.58 3.26,-2.41l8.68 -5.73c10.26,-9.06 17.5,-32.47 16.46,-39.4 -0.6,-4.05 0.52,-0.78 -1.35,-3.43 -4.94,22.11 -14.46,39.59 -28.64,48.42 -8.58,-9.14 -12.73,-27.9 -11.77,-43.73 0.41,-6.82 7.42,-24.8 10.68,-31.3 2.83,-5.65 5.72,-4.64 6.15,-5.96 0.18,-0.56 0.76,-0.44 1.07,-0.74 -5.98,-1.51 -11.16,-3.87 -15.44,-7.51 -17.91,-15.22 -13.26,-16.01 -13.83,-32.44 -0.3,-8.68 -3.38,-10.77 -4.03,-17.06 16.7,-3.25 10.84,16.34 18.03,23.73 5.92,-21.17 -5.72,-45.99 -2.34,-64.01zm-303.05 8.12c4.23,-9.37 12.28,-14.29 17.18,-24.31 4.58,-9.38 2.52,-23.02 9.64,-29.87 0.43,34.94 3.72,28.86 -10.01,57.61l-16.81 -3.43zm-27.07 -30.13c3.91,-4.07 17.45,-7.51 23.31,-10.8 7.1,-3.98 14.21,-8.39 20.38,-11.7 -4.73,9.57 -25.34,33.43 -37.6,34.26 -3.88,-4.45 -3.59,-5.27 -6.09,-11.76zm50.9 -31.15c-1.05,-6.61 -0.79,-12.36 1.71,-18.08l6.18 0.61 1.08 9.64c0.6,4.02 -0.39,6.31 -2.17,9.63l-6.79 -1.8zm13.88 -14.88c13.43,-5.7 101.49,-32.98 114.89,-33.6 0.71,14.83 3.9,23.29 5.73,36.24l-120.96 10.44 0.34 -13.08zm4.34 -8.88c11.13,-31.32 53.6,-42.22 81.76,-33.07 4.33,1.41 7.56,2.62 10.32,5.56l-92.09 27.51zm31.39 -40.01c-3.48,3.17 -27.74,7.53 -39.26,38.35 -10.91,1.48 -16.01,1.18 -16.97,13.31 -1.11,14.06 -0.7,12.6 -11.17,19.21 -18.21,11.5 -35.95,15.75 -40.68,19.72 2.39,13.79 4.69,21.52 18.55,24.69 12.53,-7.9 25.6,-25.31 30.7,-28.22 -2.1,21.65 -26.03,30.19 -22.49,42.69l27.79 6.25c20.78,-27.48 9.41,-48.57 14.53,-58.64 4.72,7.81 1.84,12.15 15.8,29.18 11.2,13.66 11.76,35.63 7.3,38.87l-17.91 12.46c-13.5,6.79 -50.52,9.33 -73.16,29.32 -12.81,11.31 -20.06,20.34 -30.94,36.92 -8.63,13.13 -16.62,28.22 -24.76,43.13 -25.38,46.47 -20.55,56.47 5.28,97.68 15.55,24.8 28.63,40.33 64.09,26.55 9.59,-3.72 15.47,-9.24 22.95,-12.37 3.48,5.02 5.28,7.01 13.02,8.58 -0.06,6.24 -3.03,25.4 -5.33,30.12 -2.45,5.01 -93.41,69.04 -101.25,74.86 -18.21,13.52 -62.67,49.04 -73.11,66.94 -6.7,11.48 -14.56,37.83 -18.83,51.93 -4.36,14.42 -30.28,101.72 -29.45,110.86l16.95 8.87c-2.08,4.32 -0.11,1.66 -4.03,5.31 -11.6,10.82 -51.52,37.1 -64.95,44.67 -7.89,4.45 -21.33,7.58 -25.05,15.37 6.32,23.01 58.68,13.68 76.88,7.62 12.57,-4.19 24.1,-9.16 38.35,-10.7 20.11,-2.17 26.02,0.1 43.71,-6.12 5.98,-24.96 -3.97,-27.89 -4.19,-46.86l44.6 -10.01 18.54 -82.39 -8.41 -1.56c-3.35,12.37 -15.15,69.37 -19.17,74.77 -6.59,4.07 -43.17,10.94 -53.21,11 -12.23,0.07 -42.04,-8.4 -48.66,-15.17 2.15,-14.18 20.83,-77.78 26,-94.96 12.64,-41.99 15.46,-57.38 42.13,-80.54 5.81,-5.05 9.58,-9.41 15.88,-14.46 32.98,-26.45 50.52,-40.15 86.45,-65.11 8.82,-6.13 28.81,-22.07 37.48,-25.58 -7.41,23.66 -26.59,38.43 -38.52,53.36 -5.81,7.27 -1.62,4.31 -12.76,6.09 -9.79,1.56 -22.38,3.49 -30.24,7.29 8.7,-0.22 23.34,-4.35 31.21,0.58 1.74,1.45 1.08,0.79 -0.31,4.08 -0.87,2.06 -2.45,4.68 -3.49,6.83l-16.76 40.64 38.38 -15.66 -12.4 40.19c11.64,1.25 21.87,4.41 31.89,8.31 10.43,4.06 17.57,9.4 27.66,12.69 -0.32,-43.99 2.29,-39.24 4.81,-73.69 31.45,6.97 34.07,15.21 79.41,10.3 26.87,-2.91 50.28,-9.59 71.12,-21 11.08,-6.06 18.98,-10.64 29.18,-17.01 9.31,-5.81 19.72,-11.55 31.58,-14.62 18.69,-4.84 20.47,-6.04 34.73,2.45 26.09,15.54 62.15,38.01 84.6,55.45 21.42,16.64 24.75,26.91 37.99,55.83 5.34,11.67 53.87,119.32 56.43,130.09 -25.16,21.18 -54.15,19.18 -90.85,16.69 -5.63,-8.29 -12.58,-27.46 -17.91,-38.13l-34.4 -78.18c-3.82,-9.99 -4.11,-11.1 -11.2,-16.24 -5.08,-3.68 -11.68,-10.03 -16.08,-12.32 5.21,10.69 18.18,17.64 20.44,29.86 -22.9,0.1 -13.78,-12.52 -37.18,-22.27 -31.29,-13.05 -100.35,-49.62 -122.57,-53.43l67.65 -2.52c-27.01,-3.55 -165.54,-3.2 -184.2,4.55l55.47 0.51 -48.02 18.46 0.41 8.55c11.94,-0.47 51.93,-18.49 69.26,-22.63 25.12,-6 53.42,8.01 73.11,17.02 8.2,3.75 87.29,37.94 94.61,45.47 9.7,9.97 11.76,16.15 31.32,16.64l51.59 112.71c10.94,4.89 27.38,2.21 40.2,4.32 1.67,8.82 2.15,18.99 -2.97,25.81 2.86,20.49 -7.79,29.14 19.17,31.97 21.5,2.26 23.99,-2.57 43.57,6.85 20.84,10.03 35.34,13.29 61.62,7.18l17.01 -7.92c1.84,-16.45 -15.3,-16.04 -42.72,-36.69 -10.7,-8.06 -33.89,-30.37 -39.14,-41.82 19.55,-14.59 16.2,-5.79 1.73,-42.03 -4.2,-10.51 -8.6,-20.13 -13.03,-30.28 -8.99,-20.65 -17.43,-40.59 -26.76,-61.28 -22.6,-50.12 -18,-49.97 -51.95,-78.04 -29.65,-24.51 -73.23,-45.51 -104.98,-69.72 -6.97,-5.32 -19.45,-13.3 -23.34,-21.41 -7.6,-15.83 -18.21,-9.86 -21.31,-22.02 -1.34,-5.25 -5.85,-34.25 -5.37,-38.79 1.68,-15.83 8.02,-11.81 -3.87,-34.38 -3.64,-6.92 4.94,-13.18 7.96,-32.47 25.79,5.04 65.41,35.15 109.7,26.29 51.83,-10.36 46.64,-41.03 39.12,-89.87 -6.35,-41.25 21.37,-42.33 -9.59,-114.53 -2.87,-6.7 -17.69,-26.91 -22.98,-29.15 -3.01,-1.28 -3.64,-0.72 -6.72,-1.93 -3.31,-1.31 -2.06,-1.88 -6.05,-2.74 -23.48,-5.04 -13.89,44.45 -12.95,51.69 -9.3,-3.55 -11.51,-2.98 -18.31,2.57 -0.48,9.95 3.03,9.81 3.8,18 1.63,17.22 -6.39,21.04 19,41.83 2.15,1.76 -0.61,-0.64 1.52,1.31l1.36 1.44c-3.34,6.23 -1.31,4.7 -9.82,5.32 -7.42,0.54 -8.63,1.86 -14.27,-1.25 -15.88,-8.75 -17.56,-0.73 -25.19,-3.73 -5.7,-2.24 -34.35,-39.7 -77.52,-49.48 -8.77,-1.99 -18.8,-2.44 -27.76,-4.23 -11.33,-2.26 -13.56,-6.9 -20.49,-11.11l8.57 -6.91c2.26,-2.39 4.2,-5.45 5.76,-8.61 12.65,-25.6 16.51,-46.32 14.44,-75.92 3.25,-3.28 3.23,-2.13 7.52,-4.35 -2.22,-15.13 -6.58,-17.44 -9.6,-50.84 -11.28,0.87 -11.29,3.88 -20.18,-1.3 -22.8,-13.3 -40.71,-9.56 -65.17,-5.21z"/>
 </g>
</svg>
