<?xml version="1.0" encoding="UTF-8"?>
<!DOCTYPE svg PUBLIC "-//W3C//DTD SVG 1.1//EN" "http://www.w3.org/Graphics/SVG/1.1/DTD/svg11.dtd">
<!-- Creator: CorelDRAW -->
<svg xmlns="http://www.w3.org/2000/svg" xml:space="preserve" width="10.4093in" height="6.05874in" version="1.1" style="shape-rendering:geometricPrecision; text-rendering:geometricPrecision; image-rendering:optimizeQuality; fill-rule:evenodd; clip-rule:evenodd"
viewBox="0 0 1153.53 671.41"
 xmlns:xlink="http://www.w3.org/1999/xlink"
 xmlns:xodm="http://www.corel.com/coreldraw/odm/2003">
 <defs>
  <style type="text/css">
   <![CDATA[
    .fil0 {fill:#121212}
   ]]>
  </style>
 </defs>
 <g id="Layer_x0020_1">
  <metadata id="CorelCorpID_0Corel-Layer"/>
  <path class="fil0" d="M333.08 481.46c2.01,-9.5 8.74,-17.25 13.64,-25.21l33.8 -46.25c4.36,-6.48 11.89,-16.74 14.54,-22.86 -3.12,17.41 -29.96,48.45 -41.81,66.36 -3.66,5.54 -11.81,15.75 -13.05,21.97l-7.11 5.98zm629.61 -341.86c33.78,-2.88 161.27,-50.18 167.54,-76.07 -7.23,1.12 -29.02,17.38 -37.6,22.72 -24.37,15.18 -107.47,50.34 -129.95,53.35zm96.31 -137.65c-5.3,2.37 -14.38,3.36 -19.87,2.56 2.03,1.39 -0.41,0.64 3.33,1.32 2.08,0.37 1.79,0.34 3.99,0.29 2.8,-0.06 6.41,-0.88 9.48,-1.31 5.86,-0.81 11.61,-0.86 17.05,0.17 -6.31,4.95 -21,5.61 -30.31,8.25 -25.09,7.12 -62.16,21.28 -83.54,32.56 36.24,-10.71 138.97,-55.53 178.15,-29.94 14.3,9.34 -4.6,30.59 -10.8,35 -13.37,9.51 -57.45,32.05 -72.4,38.4 -10.31,4.38 -35.05,11.57 -41.63,15.76 32.32,-2.47 104.3,-32.26 121.34,-48.4 13.19,-12.49 34.49,-38.75 4.46,-50.96 -18.77,-7.63 -57.21,-6.09 -79.26,-3.7zm-436.44 492.97c10.91,5.91 14.75,16.97 34.72,14.8 9.05,-18.71 5.51,-15.48 8.58,-26.7l1.9 -4.79c0.37,14.5 -1.36,14.4 -5.13,26.17 -3.01,9.37 -2.45,18.06 3.76,22.92 3.02,9.6 25.1,45.54 32.78,57.51 6.25,9.74 5.65,9.79 19.06,11.83 30.05,4.57 81.77,-6.34 93.81,-24.2l-50.52 -76.14c-49.49,-77.85 -52.86,-94.09 -141.89,-116.81 -14.73,-3.76 -33.06,-11.15 -47.92,-16.63 -8.61,-3.18 -12.7,-9.61 -23.15,-8.07 -11.1,1.64 -12.58,7.34 -20.43,11.64l5.82 -4.79c2.28,-2.37 0.64,-0.47 2.48,-3.02 -29.8,1.1 -48.42,9.13 -87.03,3.53 -10.06,-1.46 -17.83,-4.99 -27.61,-5.89 -4.56,7.55 -4.63,21.39 -7.94,33.14 -2.22,7.89 -8.08,25.17 -8.81,31.06 4.56,4.12 18.16,9.81 23.89,9.95 -4.56,-0.12 -9.36,-1.05 -13.39,-2.29 -5.96,-1.83 -10.34,-4.74 -14.58,-1.5 -0.31,0.37 -0.62,0.8 -0.92,1.28l19.65 -72.62c7.47,-0.13 21.79,3.15 31.34,4.03 28.73,2.65 69.72,0.38 93.96,-10.79l-0.42 -24.88c-19.16,10.06 -48.95,14.48 -73.53,13.88 -43.47,-1.07 -58.26,-16.09 -71.07,-17.54 -1.19,10.14 -4.52,19.22 -1.35,26.64 -6.67,0.69 -6.44,2.4 -10.82,5.97 -43.42,35.36 -95.53,59.72 -143.37,89.04 -17.72,10.86 -145.5,90.97 -148.64,100.43 0.24,8.91 4.91,11.11 6.5,19.08 -7.65,4.67 -6.85,6.68 -12.46,12.19 -4.55,4.47 -7.86,7.56 -12.97,11.65 -9.01,7.21 -16.86,13.58 -26.9,20.81 -8.63,6.22 -19.14,13.44 -30.11,19.15 -26.02,13.55 -21.83,14.36 -13.4,22.21 16.98,-1.99 31.65,6.38 62.97,-6.44 11.21,-4.59 16.38,-7.34 30.68,-6.47 16.48,1.01 19.19,-2.18 29.76,-4.98 9.66,-27.25 -11.77,-23.58 7.19,-44.35 11.71,1.35 21.34,8.38 38.48,8.73 32.36,0.66 65.04,-25.45 90.8,-43.89 8.92,-6.38 17.94,-12.13 27.51,-18.66 8.67,-5.91 17.71,-13.67 27.21,-17.44 10.97,-4.36 20.38,-8.44 31.55,-13.1l31.48 -13.64 4.22 -15.58c-1.02,6.12 -1.79,11.64 -2.26,15.62l54.41 -18.47c45.44,-14.15 146.48,10.89 182.11,26.44zm-223.94 -148.29l3.28 1.51c-6.28,12.53 -10.63,20.08 -18.24,31.14 -7.62,11.07 -14.32,16.11 -23.52,24.22 -9.62,8.49 -16.68,16.01 -25.38,23.82 -9.12,8.19 -17.34,19.89 -25.35,22.52l23.14 -26.28c18.32,-19.56 62.05,-51.88 66.05,-76.93zm47.8 -298.58c-6.56,2.5 -10.18,11.89 -7.3,19.3l3.62 4.71c0.18,0.19 0.61,0.52 0.87,0.83 -13.08,-2.85 -15.45,6.02 -29.42,10.56 -17.07,5.55 -21,3.7 -38.15,3.19 3.97,10.08 14.68,9.95 20.89,16.77l-13.26 2.24c13.28,7.78 27.28,-6.25 38.28,-10.57 -3.39,8.73 -8.73,12.42 -16.02,17.05l-7.45 5.13c13.14,9.1 34.52,6.46 41.43,-4.97 4.96,-8.19 8.96,-21.89 8.76,-32.54 -0.21,-11.29 -4.05,0.04 -1.3,-9.2 12.31,-0.38 2.08,14.63 13.19,29.5 5.3,7.09 6.68,3.08 7.55,14.02 0.69,8.73 -0.18,14.22 -1.18,22.25 -2.86,22.97 25.21,42.23 26.01,63.96l-19.14 -31.88c-9.51,-13.58 -11.48,-20.56 -9.21,-38.33 -10.49,0.04 -10.74,4.03 -21.14,5.95 -49.37,9.14 -61.98,5.6 -98.63,39.73 -10.27,9.56 -19.79,17.48 -31.91,25.04 -11.47,7.16 -20.9,14.73 -24.09,31.41 -2.95,15.42 -1.83,36.41 6.73,46.71 8.73,10.48 28.53,2.07 42.23,-0.99l-3.48 4.22c-8.8,2.52 -49.63,9.08 -35.79,24.47 9.96,11.08 37.54,-0.71 50.46,-5.07 10.7,-3.62 41.72,-13.16 48.18,-17.84 3.14,2.03 5.61,5.97 9.8,6.57 3.27,0.47 2.46,-0.1 4.98,-1.19l18.63 -4.75c6.67,-2.12 5.31,-4.45 5.59,-12.82 1.72,4.95 1,4.05 4.04,6.93 10.92,-0.67 8.05,-4.47 10.83,-12.24 16.12,-2.44 41.98,-12.94 58.34,-18.25l177.54 -58.3 -5 -16.91 -233.64 76.98c-0.44,5.83 0.46,0.65 0.31,4.02l-0.33 3c-0.02,0.17 -0.08,0.64 -0.22,0.92 -2.14,-5.28 -4.53,-15.53 -10.2,-18.02 -7.31,-3.22 -18.65,-2.22 -26.84,-2.41 -19.67,-0.44 -31.9,-6.21 -49.75,-7.46l3.03 -2.03c1.83,-1.25 1.27,-0.5 2.94,-2.1l-8.71 -6.6c1.36,-0.09 4.2,0.62 5.93,0.86 -1.76,-4.06 -10.05,-8.2 -13.68,-11.7 14.64,3.75 18.85,12.85 27.94,21.05 14.96,-3.22 18.07,-6.66 24.12,-19.25l-3.18 22.22c13.73,0.21 31.68,-1.59 42.29,5.03 11.87,7.41 11.02,3.74 33.7,-3.06 23.7,-7.1 46.23,-14.86 69.62,-22.79 21.25,-7.2 131.7,-40.38 140.37,-45.64 0.32,10.53 4.72,14.52 5.27,23.85 -8.6,6.63 -57.63,21.86 -73.18,26.56 -50.54,15.25 -100.15,33.72 -150.6,49.45 -20.39,6.36 -5.77,9.26 -29.21,21.68 -16.22,8.59 -27.57,6.41 -42.27,5.47 -7.23,15.96 0.88,20.2 12.45,26.02 8.09,4.07 24.15,8.92 33.67,11.05 23.97,5.37 94.87,2.5 113.93,-15.6 4.71,-4.47 4.49,-7.87 5.52,-15.43 1.04,-7.59 3.51,-11.75 5.48,-18.45 18.95,-64.55 83.36,31.74 114.57,-40.64 4.62,-10.72 3.96,-27.76 11.55,-33.01 5.8,-4.01 43.25,-13.03 47.49,-20.37 4.15,-7.17 -4.77,-20.31 -4.27,-35.45 1.06,-32.62 -57.69,3.62 -69.75,16.75 -9.6,-6.37 -23.38,-1.13 -35.23,-1.24 -21.41,-0.21 -28.09,-19.06 -61.44,-18.33 -23.09,0.5 -18.11,-0.2 -36.06,-5.97 3.74,-2.27 0.46,0.32 2.96,-2.37 0.78,-0.84 2.16,-2.87 2.65,-3.74 1.36,-2.42 2.54,-5.46 3.8,-8.42 6.02,-14.11 11.88,-19.16 11.81,-34.98 -0.04,-7.95 1.39,-14.51 1.66,-22.57 10.61,-5.06 8.18,-4.78 6.76,-18.66 -0.85,-8.28 -0.28,-16.37 -1.6,-24.78 -7.11,0.14 -6,2.6 -11.79,6.26 -12.57,7.94 -26.57,12.04 -41.12,15.87 -10.37,2.73 -21.87,4.83 -32.37,5.65 -5.46,0.42 -12.31,0.96 -17.73,0.9 -12.05,-0.13 -4.81,-2.13 -12.15,-7.22zm6.4 4.01c29.02,-2.6 75.73,-10.41 96.97,-24.07 -5.6,-14.48 -43.23,-15.16 -58.92,-10.88 -18.3,4.98 -33.95,17.63 -38.05,34.95zm308.36 596.72c7.55,8.95 6.42,11.84 30,9.85 16.12,-1.36 20.6,2.91 33.21,7.2 38.99,13.27 60.64,-1.16 66.55,-2.19 -0.47,-15.83 -21.41,-12.8 -51.3,-34.6 -38.4,-28.02 -21.56,-19.43 -40.77,-44.12 -10.66,1.86 -17.24,9.2 -42.44,12.88 16.9,28.93 2.46,20.32 4.74,50.98zm267.15 -613.09c3.75,2.13 28.53,-3.91 45.38,-4.03 -5.58,7.16 -32.31,13.8 -40.56,16.62 -13.97,4.77 -27.92,10.05 -42.09,14.89l-252.75 89.48 4.21 18.44c12.04,-0.73 41.99,-11.76 55.59,-15.98 92.16,-28.53 185.42,-61.53 276.38,-90.05 21.46,-6.73 38.56,-23.2 13.98,-34.3 -12,-5.42 -17.7,-5.75 -31.6,-3.44 -8.88,1.47 -21.71,3.96 -28.55,8.35z"/>
 </g>
</svg>
