<?xml version="1.0" encoding="UTF-8"?>
<!DOCTYPE svg PUBLIC "-//W3C//DTD SVG 1.1//EN" "http://www.w3.org/Graphics/SVG/1.1/DTD/svg11.dtd">
<!-- Creator: CorelDRAW -->
<svg xmlns="http://www.w3.org/2000/svg" xml:space="preserve" width="8.23607in" height="8.01751in" version="1.1" style="shape-rendering:geometricPrecision; text-rendering:geometricPrecision; image-rendering:optimizeQuality; fill-rule:evenodd; clip-rule:evenodd"
viewBox="0 0 714.95 695.98"
 xmlns:xlink="http://www.w3.org/1999/xlink"
 xmlns:xodm="http://www.corel.com/coreldraw/odm/2003">
 <defs>
  <style type="text/css">
   <![CDATA[
    .fil0 {fill:#121312}
   ]]>
  </style>
 </defs>
 <g id="Layer_x0020_1">
  <metadata id="CorelCorpID_0Corel-Layer"/>
  <path class="fil0" d="M346.16 162.23c2.11,-1.02 8.59,-11.45 10.33,-13.8 5.24,-7.1 3.53,-9.39 2.52,-19.61 -11.61,-1.17 -12.96,-3.02 -21.2,-7.14 30.59,6.1 28.24,8.01 40.58,-18.83 3.88,-8.43 6.89,-15.75 7.9,-26.18 2.33,-24.09 -6.06,-21.32 4.92,-28.99l-2.09 -35.21c-9.84,-0.33 -9.66,3.37 -15.18,0.23 -3.24,-1.84 -6.23,-5.38 -11.6,-7.78 -10.52,-4.71 -22,-5.68 -34.34,-4.43 -25.26,2.55 -36.47,12.56 -44.03,32.46 4.91,0.58 29.66,-5.89 36.23,-7.53l27.51 -6.31c1.2,-0.27 4.01,-0.95 5.08,-1.03l-17.9 7.64 -44.22 11.1c-12.3,3.24 -7.18,-0.75 -17.45,-0.32 -1.21,5.38 -1.47,13.73 -0.03,18.79l12.32 0.54c3.36,11.6 4.44,21.84 10.84,31.95 3.41,5.39 7.74,7.47 9.92,11.8 5.62,11.19 0.58,45.43 6.53,59.71 4.57,10.97 12.89,18.95 18.22,26.26 4.01,-2.39 12.89,-18.29 15.13,-23.35zm44.83 164.93c14.74,3.77 49.81,-5.33 35.91,-25.27 -6.15,-0.61 -6.4,1.28 -12.72,2.11 3.39,-7.49 7.19,-3.63 7.22,-13.07 -0.27,0.21 -0.66,0.21 -0.79,0.68 -0.13,0.46 -0.6,0.51 -0.77,0.67l-5.5 5.71c-7.35,7.57 -15.95,13.54 -27.23,15.84l-6.97 2.27c5.71,-2.56 17.64,-9.85 22.92,-13.73 12.72,-9.35 31.41,-34.83 26.17,-45.95 -2.48,-5.27 -6.76,-7.94 -10.26,-17.48l-3.09 -7.42c0.91,-2.75 2.16,-14.34 1.82,-16.66 1.83,33.37 17.92,40.61 42.1,49.51 22.85,8.41 47.45,17.95 74.17,12.29 -8.14,-10.4 -15.49,-18.42 -21.76,-34.54 -8.04,-20.68 -5.09,-28.53 -0.1,-48.79 -16.44,0.38 -23.71,12.51 -31.87,25.24 2.98,-14.58 13.53,-20.93 15.47,-26.2 -7.14,-5.13 -12.04,-1.19 -20.99,-1.22 -4.54,-4.48 -6.74,-8.87 -11.55,-13.35 -8.45,-7.87 -35.44,-29.17 -46.8,-28.53 -0.26,-0.21 -0.67,-0.83 -0.82,-0.58l-3.47 -1.85c-4.26,-1.66 -11.27,-2.89 -15.49,-2.32 -4.62,-3.31 -23.09,-4.15 -30.36,-5.5 -1.76,5.14 -7.79,13.47 -10.82,18.08 -4.4,6.71 -8.38,12.33 -11.89,19.58 -1.97,1.03 -4.32,6.35 -6.63,10.11 -6.2,10.11 -14.92,30.37 -19.89,35.84l13.39 -32.67c-15.72,-16.66 -23.45,-23.57 -25,-55.95 -16.08,2.95 -64.11,16.77 -75.19,24.43 -15.59,10.78 -36.11,39.48 -43.37,58.03 -2.99,1.98 -11.07,18.41 -13.64,23.65 -5.18,10.56 -8.73,18.11 -4.84,31.02 5.24,17.36 19.59,38.71 27.87,50.27 2.6,-1.93 3.91,-4.98 5.81,-7.86 7.76,-11.76 23.15,-24.97 35.24,-32.26 6.26,-3.77 12.69,-5.51 18.33,-9.35l-4.34 -4.06c-9.87,-6.5 -39.46,-10.65 -49.37,-10.81 7.91,-0.86 27.07,1.85 31.9,-0.87l-18.36 -12.76c-1.81,-1.08 -1.27,-0.92 -3.02,-1.23 2.16,-1.49 7.64,1.86 10.55,3.41 4.38,2.33 7.44,4.12 11.85,5.4 -0.67,-8.06 -6.24,-18.3 -2.06,-27.58 5.36,11.29 3.58,33.94 18.17,37.67 -1.59,-13.04 -5.82,-25.47 -6.07,-40.1 7.17,14.68 5.11,37.31 18.03,51.89 11.51,0.73 10.24,-6.25 15.2,-14.71 5.04,-8.6 8.42,-8.85 21,-9.29 26.87,-0.95 15.34,4.3 23.5,11.61 3.15,2.82 10.07,2.69 9.65,13.39 -0.4,10.33 1.05,6.86 1.08,12.54 0.02,5.15 -2.28,6.89 -3.33,13.1 -2.84,16.77 -29.87,18.06 -44,15.61 -5.16,-0.9 -16.09,-4.88 -21.99,-4.39l-3.87 0.99c2.42,5.31 14.86,9.83 25.16,16.19 12.52,7.74 12.19,9.24 31.86,10.17 26.45,1.25 42.04,-4.38 64.78,-8.52 4.46,-0.81 6.12,-0.63 9.01,-2.41zm-228.33 222.09c2.44,8.49 7.35,14.96 8.94,24.44l-3.9 -5.21c-1.08,-1.82 -1.89,-3.41 -2.96,-5.41l-11.75 -22.01c-2.43,-4.66 -3.29,-8.11 -6.32,-10.85 -0.53,-8.15 -8.31,-18.89 -11.35,-26.64 4.89,7.03 9.45,15.17 14.32,22.69 2.4,3.7 11.18,21.95 13.01,22.98zm-58.41 -52.8c-4.71,4.52 -32.93,100.37 -31.46,109.07 16.56,11.32 75.76,6.15 98.15,3.93l12.52 -58.99c10.24,-22.68 15.41,-12.28 17.24,-25.74 -20.16,-0.93 -30.93,-2.61 -44.97,-12.5 20.81,5.14 28.69,10.9 51.96,3.53 4.78,-1.51 43.14,-13.14 47.2,-16.22l-25.14 -5.94 9.74 -33.97 -33.87 12.09 17.74 -40.61c-4.99,-2.83 -14.42,-4.55 -20.25,-5.8l23.65 1.08c13.45,-13.75 34.34,-47.78 36.37,-65.8 -5.91,2.08 -17.27,11.61 -22.69,15.47 -23.27,16.54 -113.56,77.64 -125.57,95.09 -3.4,4.94 -10.63,18.36 -10.62,25.33zm423.06 49.57c0.53,7.13 28.78,54.48 33.42,67.26 0.17,-0.27 0.34,-0.66 0.42,-0.85l3.22 -26.99c0.64,-8.51 2.08,-22.64 0.58,-30.61 3.41,5.23 1.44,4.07 1.44,4.07 3.39,17.32 -4.28,55.24 -1.93,61.31 3.77,9.74 9.29,9.19 26.37,9.46 8.64,0.13 24.9,1.4 30.95,-3.73 9.06,0.27 27.3,-8.64 31.58,-14 -2.39,-8.19 -8.62,-18.81 -12.26,-27.29 -6.94,-16.16 -44.54,-98.74 -50.99,-106.98 -5.6,-7.15 -12.44,-14.19 -20.01,-19.78 -22.77,-16.82 -48.88,-30.33 -73.58,-44.59 -14.65,-8.46 -11.64,-8.08 -30.34,-3.16 -21.77,5.73 -35.71,15.37 -53.84,24.45 -17.74,8.88 -37.95,15.13 -59.78,18.48 -30.97,4.75 -42.39,1.07 -70.85,-4.01l-0.93 25.7c10.18,-1.02 127.17,-7.62 142.01,-2.99l-48.52 2.05c16.48,7.2 33.77,13.44 50.62,20.81 8.22,3.59 44.92,20.25 50.65,20.35 2.34,2.7 6.67,3.88 10.36,5.45 16.6,7.04 9.48,18.08 30.46,17.1 -2.39,-4.41 -4.76,-5.77 -7.78,-11.6 3.57,2.09 7.07,6.78 10.24,9.79 5.78,5.48 4.25,6.17 8.49,10.32zm-504.22 131.35c8.08,-2.16 18.77,-0.23 29.57,-3.23 18.52,-5.14 33.29,-11.51 53.5,-11.04 12.08,0.28 18.72,0.83 27.51,-4.66 1.38,-10.14 1.14,-13.57 -1.83,-22.68 -7.05,-21.61 -0.72,-19.66 -15.91,-20.54 -32.69,-1.89 -23.47,-5.32 -36.37,5.02l-19.4 13.15c-9.1,5.65 -18.88,11.85 -28.91,16.89 -6.65,3.33 -27.03,10.51 -31.19,13.51 -0.98,13.22 15.37,9.17 23.05,13.58zm248.36 -344.09c-1.92,6.61 -5.75,16.03 -4.26,22.28 12.38,14.17 55.7,17.73 78.98,17.14 29.36,-0.74 58.04,-5.17 83.18,-12.72l-4.33 -18.49c-20.81,5.99 -35.84,14.02 -60.12,14.97l7.68 -2.62c12.43,-2.91 36.3,-9.5 47.25,-15.37l4.23 -2.63 -1.18 -8.17c-24.76,3.07 -49.43,9.08 -74.09,13.19 -14.16,2.36 -26.88,2.65 -41.13,0.93 -13.81,-1.67 -24.18,-6.54 -36.22,-8.52zm-48.92 -34.7c8.73,1.52 18.17,4.05 27.22,5.75 9.09,1.72 19.41,1.95 28.19,4.42 9.28,2.61 19.34,5.02 29.57,3.12 4.45,-0.83 7.34,-3.14 12.13,-4.88 5.22,-1.89 7.06,-2.67 6.52,-9.08 -6.05,-1.49 -8.17,2.13 -12.01,-0.65 7.31,-6.16 20.06,-0.49 15.06,-15.73 -4.88,-1.47 -8.77,0.16 -14.45,0.98l0.11 -1.51c-0.02,-2.95 -1.68,-3.32 -1.87,-3.62 5.76,-1.4 13.74,-0.39 15.53,-4.09 2.2,-12.24 -18.88,-7.52 -27.25,-11.98 3.75,-2.68 10.42,-1.66 14.92,-1.4 -0.94,-7.35 -3.29,-8.02 -11.02,-7.79 -34.53,1.05 -18.78,11.22 -32.48,22.35 -9.11,7.4 -6.97,-3.43 -28.42,7.75 -6.92,3.61 -18.13,10.23 -21.76,16.36zm58.73 177.54l-0.36 15.4 50.49 -15.83 -50.13 0.43zm10.79 -103.79c1.76,7.34 24.73,15.06 30.88,16.86 17.2,5.02 37.26,4.1 41.91,6.8 -21.12,0.43 -25.93,0.48 -46.67,-3 1.75,2.88 -0.07,0.47 1.92,2.5 3.36,3.44 17.66,10.17 21.82,12.11 4.16,1.94 24,10.37 26.7,10.84 -28.38,-4.84 -62.78,-20.93 -76.15,-39.59 -7.62,7.88 -1.17,25.25 2.37,33.57 4.1,9.64 8.78,19.45 13.48,27.82 -1.62,-2.71 -5.65,-5.52 -11.96,-16.01 -4.04,-6.72 -5.75,-14 -9.11,-19.53l-4.69 38.42c22,15.29 83.76,4.84 107.79,-3.96 22.05,-8.07 43.73,-22.8 64.05,-30 5.75,-2.04 20.12,-4.65 24.14,-7.11l-31.56 -28.42c-2.91,-2.28 -6.1,-3.22 -9.42,-5.06 -4.87,-2.69 -4.08,-4.52 -10.73,-2.95 -58.44,13.76 -74.68,14.21 -134.75,6.71zm239.86 -241.07l-2.52 -5.26c-0.49,-1.73 -0.78,-3.85 -1.28,-5.85 -2.22,-8.82 -11.29,-23.56 -19.21,-25.23 -2.02,16.85 8.42,37.85 3.6,54.8 -2.29,-3.84 0.29,-8.94 -3.04,-14.55 -4.46,-7.53 -12.76,-5.86 -12.91,-3.58l-0.53 1.69c-0.13,3.82 3.05,4.82 3.66,12.02 0.78,9.2 -5.11,25.61 23.39,35.54 -2.26,2.64 -8.19,18.46 -9.67,23.34 -2.98,9.83 -2.23,18.81 0.59,28.85 4.1,14.61 16.71,36.02 25.03,42.08 9.79,-4.66 13,-3.19 17.68,-13.24 14.2,-30.44 -8.9,-47.57 1.08,-80.92 6.35,-21.24 4.58,-31.21 -2.17,-52.16 -1.98,-6.14 -5.48,-17.34 -8.94,-22.41 -2.46,-3.61 -5,-4.62 -7.81,-7.84 -2.78,-3.18 -4.1,-5.56 -6.95,-8.5 -4.61,0.72 -2.48,1.75 -5.7,1.87 -2.12,-3.15 -5.94,-6.94 -12.08,-5.19 -4.83,12.67 16.98,14.09 17.79,44.55zm68.14 525.01c0.82,14.2 -6.63,23.68 12.22,26.05 15.03,1.89 21.62,-2.12 36.59,4.28 17.97,7.68 28.52,12.22 51.7,7.43 5.19,-1.07 11.95,-4.49 14.36,-4.93 0.27,-7.58 -3.04,-7.93 -8.56,-10.65 -22.87,-11.24 -51.85,-32.58 -65.05,-53.25 -6.37,1.63 -11.76,3.91 -18.29,5.57 -6.73,1.71 -12.42,2.29 -19.34,3.64 -1.24,7.39 1.73,15.56 -3.64,21.85zm-398.59 -331.61c20.56,5.54 42.05,-2.41 52.67,-15.34 -3.52,-2.54 -26.98,-7.78 -33.41,-9.97 -5.38,3.74 -18.09,15.88 -19.27,25.31zm10.53 141.84c7.05,-2.45 14.13,-5.59 21.41,-8.25 11.97,-4.38 9.33,-3.06 15.2,-13.75 3.3,-6.02 16.15,-34.06 17.42,-39.57 -3.01,19.39 -30.47,67.43 -31.38,86.93 17.29,1.56 28.28,8.5 42.34,11.18 0.08,-72.05 3.02,-72.46 10.29,-132.58 -6.67,-1.31 -13.82,-5.41 -19.52,-7.91 -1.77,2.46 -8.5,22.27 -11.49,28.14 -13.13,25.71 -29.09,34.54 -44.27,75.83zm14.6 -383.84c3.98,8.08 8.17,10.86 14.64,15.53 6.86,-4.38 26.78,-19.92 30.91,-25.9 -2.14,14.73 -11.17,29.6 -17.11,40 13.55,1.45 11.95,1.54 22.01,6.14 6.87,-22.25 10.41,-33.68 5.64,-57.88 -0.77,0.05 -6.6,1 -6.62,1 -3.4,-0.35 -0.69,-1.31 -4.69,-2.77 -14.05,8.27 -13.21,10.71 -32.01,18.36 -3.34,1.36 -10.3,3.13 -12.77,5.51z"/>
 </g>
</svg>
