<?xml version="1.0" encoding="UTF-8"?>
<!DOCTYPE svg PUBLIC "-//W3C//DTD SVG 1.1//EN" "http://www.w3.org/Graphics/SVG/1.1/DTD/svg11.dtd">
<!-- Creator: CorelDRAW -->
<svg xmlns="http://www.w3.org/2000/svg" xml:space="preserve" width="10.0593in" height="5.96842in" version="1.1" style="shape-rendering:geometricPrecision; text-rendering:geometricPrecision; image-rendering:optimizeQuality; fill-rule:evenodd; clip-rule:evenodd"
viewBox="0 0 1329.82 789.01"
 xmlns:xlink="http://www.w3.org/1999/xlink"
 xmlns:xodm="http://www.corel.com/coreldraw/odm/2003">
 <defs>
  <style type="text/css">
   <![CDATA[
    .fil0 {fill:#0E0E0D}
   ]]>
  </style>
 </defs>
 <g id="Layer_x0020_1">
  <metadata id="CorelCorpID_0Corel-Layer"/>
  <path class="fil0" d="M504.08 347.77c19.24,-1.47 20.4,-2.46 32.84,-11.52 6.37,-4.64 18.92,-17.65 23.08,-24.32 -5.7,2.45 -3.27,0.25 -7.51,5.11 -2.93,3.36 -1.36,2.67 -5.08,5.79 -3.2,2.68 -8.51,6.75 -12.51,9.55 -17.02,11.91 -23.65,8.78 -30.82,15.4zm740.18 -329.39c14.64,-0.24 27.28,-1.6 42.83,-0.34 14.46,1.17 28.43,4.87 35.97,11.32 3.03,19.48 -13.25,28.99 -20.07,37.22 9.84,-6.35 45.21,-33.28 14.62,-46.1 -14.9,-6.25 -60.12,-9.35 -73.35,-2.09zm-81.17 28.25c31.76,-3.49 68.34,-17.32 103.41,-9.55 21.13,4.68 27.24,15.2 12.42,31.33 -10.76,11.71 -22.52,16.8 -30.22,23.22l-3.31 3.09c14.94,-4.7 53.38,-29.39 48.84,-46.97 -2,-7.73 -9.69,-12.32 -18.05,-15.01 -24.26,-7.8 -96.22,2.3 -113.08,13.91zm-290.21 651.26c18.66,-1.85 26.57,-8.66 41.01,-11.38 6.84,30.21 56.8,65.53 85.56,78.23l15.95 8.76c-8.63,9.42 -38.93,7.96 -51.86,6.36 -16.88,-2.09 -29.4,-13.84 -44.44,-15.88 -17.63,-2.39 -42.48,9.17 -41.07,-17.98 0.49,-9.51 4.72,-16.64 4.07,-25.62 -0.66,-9.18 -6.14,-15.44 -9.21,-22.49zm-864.12 47.64c2.63,-8.25 21.81,-15.19 28.93,-19.83 20.71,-13.51 53.48,-37.39 68.48,-56.41 5.14,-6.52 6.1,-7.02 12.4,-12.74 5.27,4.49 6.16,6.35 13.73,11.41 4.88,3.26 12.32,6.23 16.71,10.06 -4.69,6.7 -9.11,7.63 -8.33,17.94 0.6,7.93 5.38,14.51 3.79,24.18 -3.06,18.66 -28.54,9.94 -42.26,11.45 -14.6,1.61 -24.68,11.26 -39.82,14.96 -13.93,3.41 -40.67,3.79 -53.63,-1.03zm627.02 -287.78c10.51,-9.08 32.75,-14.29 49.53,-16.99 19.35,-3.12 37.65,5.33 53.74,11.58 38.08,14.8 62.51,23.53 81.45,52.54l77.44 122.7c8,12.87 20.42,29.36 26.39,41.78 -30.94,23.55 -103.89,30.43 -115.03,13.82 -7.55,-11.25 -37.53,-61.04 -38.91,-67.84 -3.44,-17 5.72,-63.78 -8.66,-76.45 4.31,15.82 4.64,49.2 2.56,66.87 -5.99,-9.34 -7.88,-12.34 -12.35,-23.48 -28.84,11.63 -20.71,-27.44 -61.89,-41.35 3.19,4.96 9.2,7.06 14.2,12.29 5.78,6.05 6.6,10.48 11.9,13.86l-76.62 -24.43c-30.1,-8.22 -55.1,-11.6 -86.72,-16.43 11.95,-8.47 106.74,-16.62 122.3,-22.49 -31.29,-0.16 -75.73,8.61 -106.85,14.24 -29.71,5.37 -46.25,11.11 -78.8,13.15 -4.84,0.3 -8.89,0.64 -13.32,1.04 -1.89,0.17 -5.15,0.37 -6.87,0.65 -6.33,1.01 -3.14,-0.31 -7.89,2.22l28.51 -0.62 -46.67 18.29c2.9,-11.8 3.24,-20.85 5.38,-32.79 2.05,-11.45 5.67,-20.81 7.68,-31.29 40.94,8.04 52,20.34 107.99,1.61 33.59,-11.24 56.82,-28.46 94.54,-34.8 -6.55,-2.05 -14.61,1.41 -23.02,2.34zm-154.63 -48.9c24.73,0.43 35.94,9.37 85.66,5.18 14.72,-1.24 27.6,-3.02 41.26,-6.65 27.04,-7.2 19.91,2.17 32.82,7.16 -16.23,0.96 -28.46,0.15 -41.21,7.88 17.07,-1 30.65,-6.78 49.86,-1.8 9.26,2.4 34.2,7.95 38.36,14.45 -39.14,0.51 -76.56,27.53 -108.1,41.34 -34.74,15.21 -84.34,24.19 -121.67,4.99l12.57 -38.92 16.73 29.67c-4.04,-16.03 -19.45,-37.86 -8.98,-56.83 10.18,8.74 24.64,35.48 52.96,38.21 -11.1,-5.78 -21.5,-10.99 -29.43,-19.36l-20.83 -25.31zm-132.19 71.61l30.85 -4.36c-4.23,10.2 -25.78,32.81 -25.43,43.07l48.86 -15.61c-5.26,13.42 -17.65,29.23 -20.44,44.26 19.57,-3.62 15.95,-13.62 41.34,-0.96 6.89,3.44 8.29,3.28 12,8.66 -30.53,10.16 -66.34,20.5 -98.58,29.38 -26.7,7.35 -74.9,24.59 -100.8,26.31 45.36,-0.35 94.98,-24.78 137.61,-31.25 -4.78,5.62 -21.51,12.23 -33.05,19.69 -12.59,8.13 -19.12,12.43 -30.25,21.14l-61.18 43.49c-23.15,15.24 -47.21,26.07 -78.4,14.11 -22.78,-8.73 -53.25,-25.46 -57.32,-48.11 21.47,-26.52 133.76,-96.26 159.96,-114.35 36.22,-25.01 88.77,-52.81 126.92,-78.72l39.89 -28.54c-10.94,21.15 -19.69,30.84 -36.47,44.79 -5.87,4.88 -16.2,15.79 -23.17,19.08 -1.5,0.71 -32.15,7.89 -32.33,7.9zm104.68 -53.23l7.53 -25.05 11.25 2.9c0.27,13.45 -14.53,53.18 -19.01,68.06 -9.11,30.24 -13.23,63.03 -16.01,72.04 -20.47,-3.89 -9.77,-14.78 -43.42,-8.38 11.21,-29.78 47.74,-75.27 52.67,-93.34l-30.58 41.83c-9.14,11.83 -6.66,8.59 -22.61,14.13 -9.21,3.2 -18.57,6.6 -27.22,9.31 6.68,-9.63 13.24,-20.52 20.62,-28.81 18.13,-20.37 42.14,-33.56 58.92,-65.96 4.43,-8.55 2.79,-14.16 10.64,-14.65 3.86,5.49 -1.55,21.5 -2.77,27.92zm35.61 -24.51c-15.35,-3 -22.27,-6.96 -35.51,-11.15l2.17 -13.97 15.45 4.34c-8.87,-5.29 -14.51,-4.63 -13.87,-16.91 4.4,-0.17 26.73,8.65 34.73,10.85 50.92,13.98 78.65,2.7 125.2,-4.22 0.08,10.53 -1.19,9.7 -12.11,12.74 -22.15,6.16 -42.9,9.24 -66.15,9.94 49.04,3.89 67.35,-9.29 77.88,-9.09l0.26 12.81c-49.1,7.78 -73.38,15.31 -128.05,4.65zm-150.06 -64.37c2.26,-13.55 12.84,-12.87 41.6,-20.45 14,-3.69 38,-11.07 51.75,-11.67 3.15,3.11 2.13,2.02 4.76,5.41 3.63,4.66 0.91,0.82 3.21,4.68 -9.39,6.21 -40.01,13.79 -52.65,17.65 -29.31,8.94 -38.77,18.23 -48.68,4.38zm7.94 -21.05c-2.04,-10.92 3.04,-16.35 6.69,-24.71 9.25,2.75 17.35,2.89 24.94,3.69l0 -0c0,0 43.46,0.07 45.7,-0.45 2.25,-0.53 3.44,3.31 4.36,5.16 0.93,1.85 0.93,1.85 0.93,1.85 0,0 -64.5,11.99 -70.43,12.96l-0.02 0c-4.78,0.95 -9.15,1.43 -12.18,1.51zm10.04 -30.92c10.01,-9.67 19.08,-19.21 33.27,-26.82 14.63,-7.86 29.73,0.66 47.09,3.8 17.64,3.19 34.93,3.97 52,7.05 14.35,2.59 7.12,5.67 11.07,18.2 3.15,9.98 7.78,12.51 3.86,22.6l-10.28 2.15 -4.32 -14.52c-0.11,-0.7 -0.49,-0.84 -0.77,-1.24 1.46,10.01 4.27,11.65 1.14,21.44 -4.21,1.43 -4.79,0.68 -8.07,1.24 -16.22,2.76 -6.06,9.22 -18.38,0.75l-9.18 5.27 -24.99 -35.81c-20.39,0.03 -62.29,6.13 -72.42,-4.09zm416.89 -64.04c2.81,3.79 2.52,4.43 5.56,7.69l5.24 5.51c-6.6,9.99 -29.79,41.72 -40.4,44.05 -6.01,-15.77 -3.78,-30.44 -1.34,-47.55l30.94 -9.71zm-36.8 11.72c-3.63,17.5 -8.97,45.98 9.26,52.93 8.75,0.72 28.76,-32.49 34.66,-38.78 -1.27,26.62 -18.92,52.11 -45.67,51.57 -14.89,-0.3 -25.04,-7.48 -37.86,-11.85 -23.01,-7.84 -25.35,0.7 -38.63,-1.28l-1.21 -17.36c-6.61,6.5 -2.48,13.63 -4.61,22.98 -2.57,11.32 -31.25,34.17 -39.19,42.16 -0.29,0.29 -0.71,0.73 -0.97,1.01l-2.89 3.4c13.1,-5.33 19.49,-16.2 30.06,-22.28 -1.77,8.25 -7.91,35.65 -11.71,39.68 -7.36,7.79 -21.4,12.93 -35.54,12.43 4.1,-2.25 8.85,-7.09 11.87,-9.47 -25.61,10.24 -40.84,17.9 -75.03,15.91 -56.05,-3.26 -49.26,-22.72 -65.14,-28.32 1.7,5.16 6.5,14.5 10.97,16.32 -11.69,-0.16 -22.22,-9.72 -26.92,-17.38 2.61,-8.91 3.65,-2.44 3.61,-13.46 9.54,-0.23 30.12,-2.9 37.47,-6.42 17.55,-8.4 22.73,-10.43 24.45,-23.23l223.02 -68.53zm-400.19 78.51c-11.75,-13.5 -16.81,-55.6 5.97,-80.22 19.72,-21.31 61.68,-11.41 70.99,10.26 -21.26,-8.79 -47.42,-20.1 -63.92,3.68 31,-16.17 38.39,-6.63 59.6,-0.53 -7.32,6.32 -11.49,0.65 -26.82,9.86 -33.58,20.19 -33.92,36.79 -42.61,52.85 -2,3.69 -0.88,2.29 -3.21,4.1zm168.68 -29.32c20.43,-3.83 47.88,-13.99 67.96,-20.35 32.15,-10.18 180.43,-58.96 200.9,-62.66l4.34 12.57 -269.5 83.23 -3.7 -12.79zm270.55 -99.12c6.82,-4.43 3.57,0.22 9.13,-3.32 0.33,-0.21 0.74,-0.58 1.05,-0.81 10.41,-7.67 2.22,-1.94 11.1,-4.56l2.06 -0.91c5.31,-2.98 -4.26,-2.28 11.75,-4.14 11.32,-1.31 -0.3,-1.98 9.52,-5.94 11.85,-4.78 10.91,11.49 13.71,19.7 2.98,8.75 7.26,17.76 5.95,26.42 -7.08,4.44 -20.35,7.85 -30.37,11.65 -12.45,4.72 -20.55,9.76 -32.16,2.16 3.25,-9.15 2.85,1.17 5.96,-8.21 2.92,-8.8 -7.47,-13.38 -7.7,-32.04zm-378.11 6.03c21.71,-22.1 44.22,-31.6 74.75,-32.62 11.95,-0.4 28.8,-6.76 41.54,-7.71 0.61,8.86 1.35,12.86 3.93,19.89 3.29,8.96 3.14,10.48 8.39,14.67 -3.37,-16.96 -14.55,-32.6 -0.62,-41.18 0.22,0.45 0.35,1.08 0.42,1.43 0.08,0.36 0.29,1.02 0.38,1.48l2.03 14.87c1.22,4.16 3.77,9 5.76,12.69 4.52,8.38 9.01,13.65 14.12,22.58 19.52,34.17 10.15,21.06 -1.28,50.82 2.63,-1.89 1.19,-0.71 3.49,-2.95 6.88,-6.71 35.04,-53.99 40.95,-63.92 2.45,-4.11 4.27,-7.95 5.35,-13.11 2.14,-10.2 -2.6,-8.3 7.73,-9.21 6.4,9.57 -4.64,22.99 -7.55,35.68 12.19,-13.23 9.67,-19.97 16.73,-33.53 7.3,2.93 15.33,7.31 23.86,7.65 17.53,0.7 43,-6.4 68.46,20.6l-18.72 12.09c9.42,-3.78 28.97,-17.01 42.09,-10.75l-9.26 5.52c12.52,-1.13 20.15,-5.14 34.57,-3.52 -3.83,10.19 -14.67,10.57 -27.38,14.31 -11.31,3.32 -21.07,6.4 -32.28,9.87 -41.65,12.87 -156.84,52.54 -188.31,59.87 -6.4,-9.28 -7.96,-10.4 -23.3,-12.7 -10.72,-1.6 -21.09,-2.69 -32.04,-3.31 2.23,-12.5 11.66,-34.53 7.74,-41.76l-8.43 25.85c-0.11,-0.28 -0.49,0.89 -0.79,1.29 -0.18,-3.91 -0.05,-9.41 -0.5,-13.08l-3.79 25.47c-32.22,-4.37 -16.46,0.36 -30.48,-17.95 -17.51,-22.86 -37.09,-15.29 -46.6,-24.89 13.91,-5.41 19.86,-15.11 29.04,-24.45zm72.92 -66.77c7.45,-8.33 12.5,-11.4 19.47,-22.6 4.88,-7.83 8.99,-21.08 13.57,-26.53 6.68,16.88 -7.21,42.37 -14.71,50.42l-18.33 -1.29zm71.88 -45.42c6,-3.94 28.89,-2.05 43.8,-2.68 15.79,-0.68 29.91,-3.45 45.24,-5.92 -0.27,12.9 -3.46,15.66 -4.12,25.05 -1.11,15.82 2.03,9.71 -4.72,21.56l-17.3 35.67c-11.95,0.62 -22.02,-2.46 -30.84,-7.19 -4.63,-2.48 -8.43,-4.84 -11.16,-7.22 -5.34,-4.66 -4.41,-5.16 -10.4,-8.49 8.75,17.28 19.39,18.71 38.18,27.99 -3.59,19.65 -1.72,15.08 -11.24,30.22 -5.86,9.32 -9.8,17.55 -15.68,26.44l-5.8 -10.61c-1.68,-3.79 -3.53,-7.48 -5.55,-10.97 -30.31,-52.41 -15.63,-19.07 -16.48,-75.64l3.27 -6.41c-4.38,-1.67 2.95,1.64 -2.68,-1.02 -16.63,-7.87 -14.53,-28.21 -14.81,-34.76 10.86,-0.22 13.39,-1.25 18.16,5.93l2.15 -1.95zm-105.63 13.86c35.01,0.92 38.33,-9.23 57.91,-15.88 -5.42,7.9 -16.71,18.51 -26.21,23.49 -14.39,7.54 -23.11,5.67 -31.69,-7.61zm402.93 87.03c32.88,-7.81 64.72,-20.64 97.09,-29.69 32.47,-9.08 63.97,-20.4 96.53,-30.1 32.06,-9.55 63.91,-20.72 95.83,-30.87l70.98 -22.68c11.17,-3.91 13.13,-6.89 21.62,1.09 -0.16,15.54 -14.35,14.69 -41.39,23.32 -78.38,25.02 -165,48.56 -241.99,73.77 -29.55,9.68 -65.63,21.67 -95.33,29.34l-3.35 -14.19zm-330.53 -110.39c-7.32,-1.73 -8.47,-4.17 -7.54,-12.81 0.82,-7.61 2.2,-9.7 7.7,-7.72 3.41,6.35 1.59,13.6 -0.15,20.53zm8.45 -18.9c97.21,-10.75 82.25,-20.67 118.01,-27.07l2.09 38.6c-22.82,9.46 -95.08,10.32 -120.67,4.87 -1.72,-6.68 -2,-10.12 0.57,-16.41zm2.92 -6.43c8.57,-35.63 75.68,-48.9 101.6,-23.91 -10.35,9.36 -82.92,24.72 -101.6,23.91zm478.75 712.42c-28.57,-8.98 -69.51,-46 -80.92,-72.53 9.64,-3.3 9.45,-6.24 16.77,-11.63 -1.43,-7.18 -22.5,-36.19 -28,-44.41 -26.14,-39.06 -59.48,-102.82 -85.95,-134.37 -13.83,-16.48 -16.87,-19.36 -40.02,-31.59 -33.31,-17.59 -99.28,-34.51 -132.34,-51.28 -14.64,-7.43 -3.46,-5.25 -23.83,-12.45l-0.11 -29.97c26.22,-13.31 10.33,-46.64 34.58,-69.53 31,-29.24 104.58,65.97 129.44,-50.17 3.7,-17.28 6.85,-11.15 32.64,-20.99 15.16,-5.79 25.54,-8.05 26.44,-26.7 40.09,-14.42 150.73,-46 197.36,-59.61l147.83 -44.98c16.82,-5.08 39.65,-8.71 37.38,-28.26 -2.61,-22.41 -30.11,-10.93 -44.39,-6.39 -37.88,12.04 -329.21,107.32 -344.74,109.55 -16.07,-19.82 -10.84,-19.79 -50,-3.01 -26.92,11.53 -20.56,24.15 -56.94,15.49 -15.91,-3.79 -16.25,3.43 -29.19,-5.66 -20.52,-14.41 -30.84,-18.88 -58.46,-17.94 -21.81,0.74 -17.66,-1.43 -32.92,-8.13 2.16,-7.88 12.08,-26 16.85,-34.32 3.28,-5.72 6.51,-37.1 7.12,-46.39 4.3,-3.59 4.47,-1.94 8.48,-5.39 0.06,-10.37 -1.97,-23.14 -2.62,-34.27 -1.05,-18.15 -0.47,-17.59 -14.53,-14.38 -17,-16.69 -39.99,-17.57 -65.03,-15.38 -11.34,5.79 -17.63,2.79 -30.74,12.95 -12.32,9.56 -11.29,11.83 -20.03,25.75 -1.63,1.26 -11.27,-1.83 -16.11,6.04 -3.19,5.18 -2.04,14.1 -2.83,21.01 -18.24,15.7 -42.59,19.48 -69.82,16.69 0.24,10.83 11.56,16.55 20.47,19.72l-13.83 3.99c4.77,6.05 9.61,8.17 18.08,6.51 17.11,-3.35 35.55,-17.28 44.26,-29.48 -6.83,30.09 -47.08,39.37 -47.23,39.49 13.26,7.64 24.66,4.69 40.66,10.52 31.79,-25.11 16.59,-29.61 25.71,-61.31 3.78,3.97 -0.34,6.12 1.97,17.42 0.96,4.72 3.65,9.78 6.63,13.75 4.75,6.33 6.71,4.73 8.07,12.31 1.05,5.81 -0.18,13.97 -0.91,19.84 -17.63,3.49 -1.06,4.27 -42.11,10.43 -13.5,2.03 -32.46,3.67 -44.52,7.03 -40.76,11.34 -48.01,41.55 -91.49,64.69 -43.4,23.1 -37.93,91.97 -10.97,103.61 -1.33,1.84 -19.33,18.16 -0.07,28.38 18.5,9.81 73.26,-21.81 103.76,-24.98 0.71,10.21 -2.15,13.76 -1.85,20.49 0.36,7.92 4.32,7.91 7.14,12.93 2.52,4.47 -1.58,28.74 -3.43,33.5 -1.83,4.72 -6.8,6.12 -11.24,10.43 -4.66,4.53 -6.03,5.12 -11.11,9.08 -34.98,27.21 -86.2,55.11 -124.66,79.12 -42.17,26.32 -110.32,68.83 -148.78,99.09l-22.33 18.07c-30.33,23.98 -24.94,15.43 -14.53,42.81 -20.23,18.67 -14.94,21.87 -54.88,51.21 -9.75,7.16 -19.54,14.44 -31.81,21.44 -9.4,5.36 -28.36,13.21 -26.02,24.84 8.71,10.39 38.77,8.9 52.57,7.35 21.85,-2.45 30.69,-12.64 47.42,-15.71 19.25,-3.54 41.17,5.33 50.43,-11.47 9.95,-18.04 -11.75,-27.86 4.66,-46.43 23.66,2.8 54,29.29 115.18,-20.97 14.79,-12.15 74.44,-55.44 90.77,-63.45 22.72,-11.13 46.26,-21.55 69.84,-31.11 61.15,-24.78 91.38,-39.07 165.71,-25.16 22.16,4.15 98.95,24.79 118.95,35.26 13.67,7.15 5.68,15.37 32.8,16.75l39.62 72.47c8.23,13.96 14.58,28.57 25.57,31.29 17.06,4.23 34.95,3.3 52.84,2.34 2.57,9.65 8.52,14.02 7.22,26.36 -1.13,10.65 -5.61,16.45 -3.56,28.9 3.88,23.59 27.93,14.34 48.66,17.28 14.61,2.07 27.61,13.31 49.75,16.2 18.43,2.4 43.17,0.06 54.8,-9.09 1.97,-21.28 -18.44,-14.13 -23.55,-23.47zm305.5 -707.88c0.07,-0.37 0.26,-1.31 0.3,-1.1 0,0 6.48,-14.34 -12.34,-17.23l3.89 4.34c8.52,8.87 1.66,7.73 8.16,13.99z"/>
 </g>
</svg>
