<?xml version="1.0" encoding="UTF-8"?>
<!DOCTYPE svg PUBLIC "-//W3C//DTD SVG 1.1//EN" "http://www.w3.org/Graphics/SVG/1.1/DTD/svg11.dtd">
<!-- Creator: CorelDRAW -->
<svg xmlns="http://www.w3.org/2000/svg" xml:space="preserve" width="5.43507in" height="5.36268in" version="1.1" style="shape-rendering:geometricPrecision; text-rendering:geometricPrecision; image-rendering:optimizeQuality; fill-rule:evenodd; clip-rule:evenodd"
viewBox="0 0 292.31 288.41"
 xmlns:xlink="http://www.w3.org/1999/xlink"
 xmlns:xodm="http://www.corel.com/coreldraw/odm/2003">
 <defs>
  <style type="text/css">
   <![CDATA[
    .fil0 {fill:black}
   ]]>
  </style>
 </defs>
 <g id="Layer_x0020_1">
  <metadata id="CorelCorpID_0Corel-Layer"/>
  <g id="_1178766264176">
   <path class="fil0" d="M98.6 245.21zm-27.97 -30.83l27.97 30.83zm-98.6 -35.51l0 -0.78c0.09,-6.95 3.28,-22.18 3.93,-30.77 0.11,-1.39 0.06,-3.22 0.27,-4.57 0.49,-3.21 -0.39,-8.21 2.61,-12.44 1.66,-2.34 4.35,-4.28 6.8,-5.75 0.49,-0.3 1.09,-0.58 1.58,-0.93 3.11,-2.26 11.82,-6.92 15.94,-8.98l10.04 -4.84c1.16,-0.58 2.31,-1.04 3.46,-1.55l6.84 -3.02c9.61,-3.94 19.47,-7.1 29.22,-10.75l7.35 -2.69c4.23,-1.52 9.65,-4.15 13.57,-6.51l3.03 -1.81c0.6,-0.36 0.95,-0.65 1.55,-0.96 0.35,-0.18 0.6,-0.26 0.87,-0.39 0.15,-0.07 5.16,-3.82 6.67,-4.63 0.99,-0.53 2,-1.98 3.16,-1.52 2.19,0.88 4.54,2.32 6.65,3.42l6.83 3.03c4.84,1.79 10.75,3.34 16.63,1.44 0.78,-0.25 2.92,-1.07 3.47,-1.55 0.93,-0.82 1.88,-1.45 2.62,-2.4 2.58,-3.3 1.73,-3.23 3.43,-6.43 2.11,1.12 3.66,3.2 8.5,5.13 4.83,1.93 8.6,2.14 14.02,0.55 1.23,-0.36 1.47,-0.08 2.45,-0.96 0.34,-0.3 0.66,-0.48 1.09,-0.71 1.05,-0.55 1.74,-1.6 2.58,-2.44 2,-2.01 3.25,-6.59 2.37,-10.36 2.89,0 4.42,0.71 7.85,-0.04 4.87,-1.06 5.24,-2.8 8.68,-5.3 0.95,-0.69 1.22,-2.11 1.88,-3.14 0.5,-0.77 0.58,-0.49 0.6,-1.55l0.35 -3.79c0.03,-0.53 -0.24,-2.06 -0.35,-2.5 -0.52,-2.04 -1.61,-4.01 -2.52,-5.91 0.84,0 1.68,0.01 2.52,0.01 1.04,-0 1.23,-0.17 2.14,-0.19 1.6,-0.04 2.65,-0.31 4.1,-0.74 1.93,-0.57 1.65,-0.37 3.36,-1.48 1.05,-0.68 1.93,-1.19 2.81,-2.03 1.62,-1.55 2.82,-3.7 3.21,-6.47 0.78,-5.47 -1.57,-10.67 -3.74,-15.33l-3.36 -6.32c-1.25,-2.11 -2.33,-4 -3.76,-5.92 -1.36,-1.81 -2.99,-3.44 -4.05,-5.45l13.49 -12.68c2.72,-2.74 7.15,-6.2 9.38,-9.08 1.09,-1.41 3.28,-3.65 4.74,-4.76l2.83 -2.56c0.48,-0.36 0.87,-0.34 1.45,-0.12 4.38,1.6 9.49,4.52 13.53,6.92 1.59,0.95 2.98,1.91 4.43,2.92 0.74,0.52 1.44,0.99 2.2,1.56 3.41,2.55 5.73,5.28 7.91,6.97 0.77,0.59 1.18,1.07 1.85,1.73 3.74,3.74 6.79,8.11 9.73,12.5 1.01,1.51 1.93,3.07 2.88,4.65 1.88,3.11 3.74,6.41 4.94,9.94 0.83,2.43 0.33,1.53 1.4,4.16 2.04,5.04 3.56,14.19 4.06,20.14 0.5,5.96 0.55,5.06 -2.57,8.22 -0.68,0.69 -1.26,1.08 -1.97,1.79 -2.42,2.43 -16.72,14.32 -20.57,16.36 -0.28,-1.06 -0.94,-2.08 -1.32,-3.16 -0.42,-1.17 -0.79,-2.12 -1.21,-3.27 -1.29,-3.5 -2.15,-4.52 -4.32,-6.97 -2.85,-3.24 -5.17,-4.82 -9.83,-5.77 -1.34,-0.27 -2.35,-0.41 -3.85,-0.63 -1.69,-0.25 -10.63,-0.4 -12.99,-0.46 -2.08,-0.05 -3.75,-0.8 -5.59,-1.22 -2.81,-0.64 -5.61,-2.16 -8.74,-2.2 -1.61,-0.02 -2.62,-0.13 -4.03,0.47 -3.41,1.45 -5.18,3.5 -5.92,7.53 -1.07,5.86 0.79,10.7 2.7,14.48 0.96,1.9 2.25,3.75 3.69,5.27l2.23 2.25c6.63,5.57 13.56,5.84 15.47,6.76 0,4.19 -0.36,8.4 -0.36,12.55 -1.36,0.72 -2.61,1.49 -4.06,2.21 -2.02,1.01 -4.11,1.94 -6.05,3.09 -4.49,2.66 -9.02,5.3 -13.33,8.18l-14.17 10.39c-3.65,2.73 -6.48,5.48 -9.84,8.44 -2.12,1.87 -6.44,5.42 -7.98,7.26 -0.41,0.49 -1.14,1.06 -1.92,1.12 0.75,-3.23 1.83,-5.64 2.32,-9.15 0.88,-6.3 0.01,-6.4 0.01,-10.57 -0.02,0.04 -0.05,0.09 -0.07,0.11l-0.32 0.75c-0.08,0.28 -0.15,0.59 -0.23,1.02 -0.11,0.65 -0.21,1.51 -0.26,2.07 -0.14,1.51 -0.32,2.9 -0.55,4.29 -0.56,3.34 -1.53,6.31 -3.15,9.04 -0.33,0.55 -0.5,1.02 -0.8,1.53 -5.07,8.75 -5.28,6.1 -7.34,6.1 -0.38,0.73 -0.79,1.31 -1.13,2.1 -1.57,3.67 -3.49,7.09 -5.39,10.57 -2.92,5.36 -6.56,10.33 -10.36,15.1 -0.51,0.64 -0.91,1.15 -1.45,1.78 -0.33,0.38 -0.37,0.51 -0.72,0.89 -0.28,0.3 -0.45,0.42 -0.7,0.73 -1.31,1.64 -7.32,7.42 -9.83,9.35 -2.89,2.22 -4.47,3.87 -8.19,6.15 -0.41,0.25 -0.61,0.37 -0.99,0.62 -0.66,0.44 -1.18,0.75 -1.88,1.17 -1.37,0.81 -2.53,1.56 -4.08,2.2 -1.42,0.59 -2.61,1.83 -4.4,1.87 -0.41,-1.75 -3.66,-7.64 -5.38,-8.78 0.07,0.78 0.28,0.73 0.46,1.51l0.41 1.56c0.7,1.93 0.6,6.9 -0.2,8.89l-0.56 1.41c-1.33,4.24 -8.57,-1.37 -10.86,-1.9 0.97,1.83 2.81,2.89 4.26,4.35 2.24,2.26 2.52,2.39 1.28,5.85l-1.29 3.02c-2.53,4.63 -4.27,5.38 -5.5,7.23 0.72,-0.06 0.5,-0.08 0.95,-0.48 0.82,-0.75 1.49,-0.97 2.41,-1.89 0.97,-0.97 1.94,-1.87 2.87,-2.87 2.28,-2.45 2.7,-4.63 3.45,-7.85 2.2,0 3.35,0.15 5.31,1.33 1.48,0.89 2.32,2.2 3.48,2.98 -0.11,-1.33 -2.18,-4.02 -1.75,-7.3 0.01,-0.08 0.15,-1.01 0.21,-1.23 0.52,-1.82 8.22,-4.71 8.53,-4.74 0,5.49 0.22,11.5 -0.79,16.06 -0.57,2.57 -1.37,3.93 -2.93,5.5 -0.84,0.85 -1.35,1.12 -2.34,1.78 -2.28,1.53 -5.83,3.09 -8.39,4.16 -1.98,0.83 -3.89,1.68 -5.84,2.41 -2.08,0.77 -4.16,1.48 -6.27,2.16 -0.98,0.32 -2.19,0.62 -3.3,0.82 -0.67,0.12 -1.41,0.02 -1.98,0.17 -0.59,0.16 -0.61,0.36 -1.43,0.54 -7.05,1.55 -13.96,-1.23 -16.87,-7.48 -1.28,-2.75 -4.39,-16.58 -5.06,-19.85 -0.34,-1.66 -0.62,-3.74 -1.26,-5.19 -0.2,-0.45 -0.36,-0.97 -0.54,-1.43 -0.8,-2.03 -1.22,-3.87 -2.69,-5.56 0,0.82 0.23,1.75 0.37,2.49 0.15,0.73 0.25,1.45 0.42,2.27 0.33,1.62 0.56,3.15 0.82,4.74 0.5,2.99 2.56,16.64 3.13,19.1 0.36,1.57 2.52,7.27 2.61,8.32 -3.28,1.73 -11.64,2.92 -15.21,1.76 -0.37,-0.12 -0.51,-0.26 -0.87,-0.38 -0.83,-0.28 -1.29,-0.03 -2.27,-0.42 -2.21,-0.89 -4.92,-2.82 -5.98,-4.96 -1.6,-3.22 -3.29,-9.12 -2.93,-13.04 0.11,-1.19 -0.34,-3.8 -0.48,-4.88 -0.4,-3.16 -0.68,-6.66 -0.77,-9.99 -0.02,-0.84 -0.14,-1.48 -0.19,-2.5 -0.03,-0.66 -0.12,-1.67 -0.2,-2.48 -0.52,-4.93 -0.54,-4.57 -1.48,-9.27 -0.47,-2.34 -0.12,-2.59 -1.36,-4.02 0,1.09 0.33,1.56 0.36,2.69l0.53 13.99c0,1.13 0.19,1.49 0.19,2.68 -0,0.96 -0,1.92 -0.01,2.87 -0.01,1.26 0.19,1.71 0.19,2.86 0,0.96 -0.01,1.92 -0.01,2.87 0,5.6 -0.16,3.64 0.46,8.15 0.28,2.03 0.8,5.89 0.8,7.81 -1.03,0 -1.36,0.19 -2.51,0.18 -2.74,-0.01 -4.21,0 -6.98,-0.92 -2.65,-0.89 -4.61,-2.33 -6.43,-4.15 -6.77,-6.77 -5.98,-16.8 -5.97,-25.6 0,-1.11 0.19,-1.39 0.19,-2.5 0,-0.84 -0.06,-1.87 0,-2.69 0.37,-4.53 0.1,-21.09 -2.7,-23.14 0,0.92 0.19,1.52 0.18,2.69l-0 13.45c0.01,1.99 -0.32,3.34 -0.36,5.02l-0.36 16.14c-0,1.95 0.18,3.23 0.18,5.2l-4.34 -0.68c-3.64,-0.82 -7.24,-2.73 -9.49,-5.57 -3.51,-4.42 -3.87,-9.95 -3.91,-15.64zm70.63 4.68l-0.36 0c-0.6,-2.58 -2.69,-3.99 -2.69,-12.37 0,-2.64 2.35,-7.35 3.76,-9.5 0.33,-0.5 0.56,-0.77 0.92,-1.23 0.52,-0.66 0.46,-0.69 1.23,-1.1 -0.19,2.34 -6,8.1 -3.42,20.99 0.24,1.21 0.56,1.77 0.56,3.21zm-52.53 -25.28zm26.17 0.9l-26.17 -0.9zm26.17 0.9c0,5.8 0.9,7.49 0.9,11.47 -0.89,-0.59 -0.82,-2.2 -1.64,-4.64 -1.11,-3.32 -1.23,-3.15 -1.23,-6.66 0,-4.23 2.72,-8.05 5.07,-11.24 0.42,-0.57 0.49,-0.94 1.2,-1.13 -1.81,3.42 -4.3,8.24 -4.3,12.19zm-20.8 -14.7c0,3.53 0.3,7.29 0.69,10.78 0.12,1.05 0.03,2.63 0.03,3.74 -1.09,-1.25 -2.33,-9.96 -2.08,-11.58 0.35,-2.31 -0.07,-2.07 1,-4.74 0.26,-0.64 0.65,-1.37 0.72,-2.15l0.36 0c-0.11,1.35 -0.72,2.29 -0.72,3.94zm141.09 -34.78c1.33,0.97 2.51,8.41 2.51,10.4l0 2.33c0,1.81 -0.36,3 -0.36,4.66l-0.36 0c-0.36,-1.34 -0.53,-0.27 -0.71,-3.95 -0.14,-2.76 -1.08,-11.47 -1.08,-13.44z"/>
   <path class="fil0" d="M213.16 84.58c0,5.25 0.95,8.29 3.81,12.14 1.25,1.68 2.68,3.03 4.21,4.4 5.15,4.6 12.31,6.23 19.13,7.22l5.84 1.16c-0.44,0.66 -0.83,0.72 -1.75,0.94 -1.29,0.3 -6.47,0.83 -6.85,1.21 -0.73,0.73 -0.54,6.87 -0.54,8.25 0,4.11 1.53,5.68 4.66,7.35 0.66,0.35 0.5,0.28 1.03,0.76 2.1,1.89 6.19,2.78 8.83,4.26 0.03,0.02 0.08,0.04 0.11,0.06 0.03,0.02 0.08,0.05 0.11,0.07 0.33,0.21 0.13,0.07 0.31,0.23 -4.9,-0.41 -8.88,-2.86 -11.11,-3.05 0.02,1.04 0.61,1.73 1.07,2.33 0.94,1.22 2.08,2.54 3.28,3.53 0.67,0.55 1.07,1.11 1.56,1.85 -1.29,-0.3 -4.9,-3.37 -5.87,-4.35 -0.88,-0.88 -1.63,-1.63 -2.51,-2.51 -0.74,-0.74 -2.04,-1.87 -2.55,-2.64 -5.09,1.19 -9.61,3.78 -14.02,6.42 -4.25,2.55 -8.37,5.3 -12.26,8.36 -1.58,1.24 -5.44,5.02 -7.11,6.69 -4.06,4.06 -9.34,11.7 -11.74,17.31l-1.02 2.39c-0.16,0.5 -0.19,0.97 -0.34,1.45 -0.2,0.63 -0.72,1.38 -1.05,2.36 -0.27,0.82 -0.52,1.72 -0.71,2.7 -0.15,0.76 -0.25,2.21 -0.47,2.94 -0.12,0.42 -0.28,0.83 -0.37,1.24l-0.71 4.49c-0.14,1.06 -0.41,2.25 -0.41,3.17l-0.18 0c0,-3.35 -0.12,-6.94 0.21,-10.01 0.61,-5.66 2.23,-10.99 4.35,-16.09 0.97,-2.33 2.37,-4.56 3.51,-6.71 -0.64,0.17 -1.37,0.87 -1.92,1.31l-9.87 8.77c-0.34,0.31 -0.56,0.57 -0.89,0.9 -0.65,0.66 -1.15,0.96 -1.8,1.61l-5.91 5.74c-0.46,0.4 -0.62,0.36 -1.07,0.72 -0.33,0.27 -0.48,0.51 -0.82,0.79l-4.79 3.82c-2.3,1.73 -2.67,3.47 -4.07,5.97 -2.41,4.31 -5.16,8.43 -8.1,12.34 -1.01,1.35 -1.94,2.48 -3,3.82 -1.05,1.34 -1.99,2.46 -3.17,3.64 -1.69,1.68 -3.57,3.29 -5.1,5.12 -0.53,0.63 -1.1,1.2 -1.49,1.92 2.18,1.15 2.68,1.52 5.26,2.27 10.81,3.14 28.45,2.77 39.77,1.17 1.37,-0.19 4.95,-1.11 5.71,-1.11l-6.83 2.31c-5.1,1.5 -9.95,2.24 -15.29,2.99 -2.15,0.3 -4.31,0.23 -6.46,0.53 -0.65,0.09 -1.53,0.25 -2.07,0.26 0.18,0.69 0.36,0.64 1.01,0.96 6.95,3.39 18.09,2.41 25.52,1.19 0.99,-0.16 2.37,-0.51 3.41,-0.54 -0.84,1.14 -3.67,1.54 -5.09,1.9 -4.95,1.24 -10.1,2.18 -15.19,2.73 -0.58,0.06 -1.16,-0.01 -1.74,0.05 -0.59,0.07 -0.79,0.15 -1.64,0.15 0.13,1.5 3.26,6.49 4.18,8.37l2.09 4.18c3.15,6.5 6.67,15.37 9.42,22.31 0.34,0.84 0.53,1.29 0.87,2.18l2.72 6.79c0.32,0.81 0.53,1.4 0.84,2.21 0.38,0.98 0.76,1.26 1.03,2.2 1.05,3.59 3.58,10.42 5.36,13.64 0.24,0.44 0.64,0.63 1.1,0.7l1.16 0 0.08 -0.01 8.72 -0.97c3.69,-0.57 7.29,-1.16 10.7,-1.85l10.49 -2.24c4.96,-1.04 9.9,-2.75 14.75,-4.08 9.34,-2.55 22.3,-8.28 31.55,-12.91 2.83,-1.41 5.71,-2.78 8.25,-4.48 -0.4,-0.6 -0.93,-1.23 -1.41,-1.82l-4.59 -5.45c-5.38,-6.84 -8.88,-12.59 -13.18,-19.98 -1.67,-2.88 -3,-5.98 -4.49,-8.96l-3.22 -6.64c-1.18,-2.25 -2.03,-4.68 -3.04,-6.99l-8.43 -18.28c-1.54,0.81 -2.84,2.39 -4.08,3.63 -1.36,1.36 -2.71,2.44 -4.27,3.62 -1.24,0.93 -8.07,5.8 -9.94,5.84 0.41,-0.56 1.23,-0.76 1.87,-1.18l4.38 -3.33c2.46,-1.98 5.36,-4.54 6.84,-7.33 -0.49,0.04 -4.31,2.36 -5.58,2.84 -4.33,1.65 -8.96,2.41 -13.7,3.15 -1.81,0.28 -3.97,0.13 -5.92,0.36 -0.81,0.1 -0.91,-0.08 -1.86,-0.08 0.23,-0.48 0.16,-0.19 0.18,-0.9 1.41,0.67 9.45,-1.38 10.94,-1.79 2.83,-0.78 7.01,-2.29 9.5,-3.58 2.73,-1.42 5.6,-3.13 7.93,-5.16 7.46,-6.52 11.77,-14.46 16.76,-22.86 2.84,-4.79 5.9,-9.44 8.67,-14.28l1.84 -3.18c4.25,-7.65 5.5,-10.03 4.44,-19.25 -0.67,-5.8 -4.46,-23.38 -6.73,-29.31 -0.35,-0.91 -0.49,-1.65 -0.74,-2.66 -0.46,-1.84 -1.03,-3.31 -1.62,-5.01 -1.22,-3.54 -2.01,-3.66 -2.74,-5.51 -0.94,-2.37 -3.93,-4.35 -6.21,-5.26 -4.55,-1.82 -9.85,-1.71 -14.78,-1.71 -1.09,0 -1.31,0.18 -2.33,0.18 1.8,3.41 3.01,6.49 0.84,10.52 -2.39,4.42 -6.67,2.03 -10.45,1.24 -0.55,-0.11 -0.94,-0.11 -1.35,-0.26l-4.38 -2.25c-2.08,-1.58 -3.3,-3.77 -3.3,-6.74 0,-0.85 0.37,-5.92 0.54,-6.27 -2.42,0.2 -4.48,4.46 -4.48,7.35z"/>
   <path class="fil0" d="M193.79 90.68zm0 0zm0 0c-3.49,-0.81 -9.35,-8.31 -10.7,-10.81 -2.27,-4.22 -0.68,-7.12 2.41,-9.85 3.49,-3.09 6.61,-3.26 10.04,-0.45 0.72,0.59 1.28,1 1.86,1.72 1,1.24 0.95,1.59 1.95,1.82l-6.6 -10.79c-0.52,-0.78 -0.81,-1.49 -1.42,-2.16l-2.86 -4.13c-4.09,-5.44 -6.04,-5.81 -11.24,-9.73 -1.44,-1.09 -2.65,-2.05 -4.02,-3.15 -3.56,-2.83 -8.5,-7.5 -12.62,-8.36 -4.2,-0.87 -7.93,-0.15 -11.46,2.07 -2.98,1.87 -5.14,4.15 -6.66,7.32 -0.65,1.36 -1.55,3.73 -1.55,5.62 3.99,2.67 6.01,3.06 10.98,7.49l16.79 14.41c0.43,0.35 0.45,0.59 0.79,1l4.11 4.49c0.53,0.52 0.86,0.95 1.33,1.54l6.41 7.94c0.47,0.61 0.93,0.91 1.39,1.48 1.6,2.01 3.97,3.94 7.5,3.98 3.6,0.04 6.32,-0.35 9.05,-2.44 2.46,-1.89 3.84,-3.99 4.2,-7.28 0.36,-3.3 -2.14,-6.17 -3.7,-7.73 -1.2,-1.2 -4.55,-4.54 -5.91,-5.57 -2.81,-2.12 -5.66,-0.65 -8.08,1.35 -1.08,0.89 -1.97,1.78 -2.62,3.12 -1.97,4.05 3.85,9.74 6.32,12.82 0.34,0.43 0.99,1.07 1.42,1.45 0.52,0.46 1.05,0.82 1.6,1.27 0.62,0.49 1.11,0.69 1.31,1.56z"/>
   <path class="fil0" d="M216.74 61.81zm-2.15 -9.68l2.15 9.68zm-2.15 -9.68zm2.15 9.68l-2.15 -9.68zm2.15 9.68c-0.81,1.21 -3.62,2.98 -5.15,3.64 -5.72,2.46 -7.74,-0.59 -11.02,-5.04 -3.04,-4.13 -4.97,-8.04 -1.61,-12.61 1.87,-2.54 6.54,-4.51 9.42,-2.91 2.23,1.24 2.88,2.58 4.46,4.51 0.51,0.62 1.57,1.95 1.75,2.73l-2 -2.13c-0.68,-0.84 -1.22,-1.55 -1.99,-2.31 -1.15,-1.14 -3.07,-3.17 -5.46,-2.88 -2.17,0.27 -4.18,1.67 -5.47,2.97 -3.82,3.82 -1.12,7.33 1.66,11.52 1.44,2.17 3.76,5.8 6.32,6.24 1.32,0.23 3.4,-0.89 4.9,-1.48 0.61,-0.24 1.04,-0.29 1.58,-0.57 0.93,-0.49 1.68,-1.46 2.62,-1.68zm-53.42 -30.48c0.98,0.65 2,1.15 3.01,1.83 1.86,1.25 2.67,2.07 4.23,3.29 0.58,0.45 0.84,0.75 1.36,1.15 1.52,1.17 2.98,3.14 5.06,4.98 1.44,1.27 0.92,0.99 2.79,2.23l5.8 4.24c2.75,2.21 4.88,5.08 6.99,7.89 1.59,2.12 3.67,5.2 5.33,7.22 3.15,3.86 4.59,4.81 9.71,4.81 4.2,0 10.76,-2.95 10.76,-8.78 0,-6.35 -4.12,-13.28 -6.94,-18.34 -0.29,-0.52 -0.55,-0.95 -0.88,-1.45l-2.94 -4.41c-1.73,-2.25 -1.39,-1.28 -2.77,-3.33l-5.56 -5.38c-4.49,-3.52 -12.56,-8.68 -18.39,-8.68 -4.31,0 -7.81,2.81 -10.18,4.88 -1.66,1.44 -3.23,2.98 -4.65,4.67l-2.74 3.17z"/>
   <path class="fil0" d="M172.64 107.35c-0.7,-1.32 -1.86,-1.97 -2.99,-2.92 -0.29,-0.24 -0.52,-0.44 -0.77,-0.66l-1.48 -1.56c-0.38,-0.4 -0.39,-0.5 -0.72,-0.89 -1.1,-1.31 -1.58,-1.69 -2.64,-3.28 -2.66,-4 -1.87,-7.17 1.39,-10.45 3,-3.02 7.09,-3.69 10.58,-0.81 0.33,0.27 0.58,0.43 0.89,0.72 0.68,0.64 2.08,2.11 2.73,2.29 -0.92,-1.74 -6.14,-8.15 -7.75,-10l-6.19 -6.72c-0.33,-0.32 -0.33,-0.29 -0.69,-0.57 -0.33,-0.26 -0.37,-0.33 -0.67,-0.59l-12.31 -10.63c-5.73,-4.42 -9.73,-8.96 -18.11,-8.96 -3,0 -6.63,1.16 -8.56,3.09 -1.15,1.15 -0.36,0.12 -1.98,1.97 -1.62,1.85 -3.53,4.99 -4.06,7.59 -0.14,0.66 -0.05,1.14 -0.21,1.76 -0.33,1.3 -0.89,3.36 -0.75,4.9 0.22,2.32 -0.16,1.65 2,1.95 1.36,0.19 2.33,0.03 3.64,0.3 5.6,1.12 9.46,1.93 14.11,5.43 2.83,2.13 3.82,3.17 6.06,5.59l8.59 8.98c0.38,0.48 0.46,0.61 0.91,1.06 0.75,0.74 1.11,1.14 1.8,1.96 0.61,0.73 1.36,1.26 1.95,2 1.08,1.35 2.56,2.92 3.94,3.95 2.76,2.06 7.76,4.43 11.27,4.51z"/>
   <path class="fil0" d="M133.92 96.41c0,3.15 4.16,6.71 6.61,8.63 0.64,0.5 1.14,0.74 1.88,1.17 0.71,0.41 0.95,0.81 1.79,1.26 0.69,0.37 1.5,0.56 1.91,1.13 -1.96,0 -4.42,-1.39 -5.34,-2.19 -1.13,-0.99 -1.27,-0.72 -1.76,-1.29 -1.35,-1.56 -5.81,-4.06 -5.81,-8.17 0,-3.8 2.98,-7.47 6.45,-8.08 1.2,-0.21 2.95,0.04 3.59,0.91 -2.42,0 -4.34,-1.64 -7.38,2.12 -0.87,1.08 -1.94,2.62 -1.94,4.51zm-31.91 -4.66c0,5.52 -0.24,5.65 0.97,11.22 0.63,2.89 1.39,4.6 1.72,5.99 2.65,-0.62 7.65,-4.81 8.43,-5.02 -0.04,-1.64 -1.72,-2.08 -2.15,-3.94 1.55,0.82 1.22,0.88 3.28,1.91l5.66 2.23c4.5,1.83 6.31,3.54 12.91,5.74 6.05,2.02 11.73,3.03 16.96,-1.38 2.1,-1.77 5.07,-7.04 2.94,-10.27 -1.06,-1.61 -3.41,-3.37 -5.13,-5.09 -1.2,-1.2 -2.3,-2.12 -3.5,-3.31 -1.94,-1.93 -1.41,-2.25 -5.17,-5.22 -2.97,-2.34 -8.02,-6.74 -11.94,-6.6 -1.43,0.05 -1.6,-0.59 -4.89,-0.59 -6.41,0 -15.47,1.81 -18.52,7.29 -0.84,1.51 -1.55,5.07 -1.55,7.05z"/>
   <path class="fil0" d="M176.05 106.99c1.56,0 4.74,-1.94 5.61,-2.82 1.41,-1.41 2.82,-3.89 2.82,-6.15 0,-3.61 -5.89,-8.03 -8.63,-10.2 -2.91,-2.31 -5.05,-2.78 -8.51,-0.67 -1.11,0.68 -1.91,1.51 -2.71,2.49 -3.07,3.75 0.31,7.41 2.68,10.3 2.02,2.47 5.41,7.03 8.74,7.03z"/>
   <path class="fil0" d="M218 81.35c0,7.55 1.96,7.93 7.81,10.3 2.01,0.82 5.99,1.71 8.15,1.71 1.26,0 1.77,-0.91 2.15,-1.79 1.12,-2.55 1.38,-8.78 -2.03,-10.34 -4.11,-1.88 -10.3,-3.25 -10.86,-3.49 -1.37,-0.58 -1.57,-0.63 -3.31,-0.84 -0.96,-0.12 -1.08,0.04 -1.33,0.73 -0.3,0.84 -0.59,2.64 -0.59,3.72z"/>
  </g>
 </g>
</svg>
