<?xml version="1.0" encoding="UTF-8"?>
<!DOCTYPE svg PUBLIC "-//W3C//DTD SVG 1.1//EN" "http://www.w3.org/Graphics/SVG/1.1/DTD/svg11.dtd">
<!-- Creator: CorelDRAW -->
<svg xmlns="http://www.w3.org/2000/svg" xml:space="preserve" width="5.80941in" height="5.39667in" version="1.1" style="shape-rendering:geometricPrecision; text-rendering:geometricPrecision; image-rendering:optimizeQuality; fill-rule:evenodd; clip-rule:evenodd"
viewBox="0 0 386.36 358.91"
 xmlns:xlink="http://www.w3.org/1999/xlink"
 xmlns:xodm="http://www.corel.com/coreldraw/odm/2003">
 <defs>
  <style type="text/css">
   <![CDATA[
    .fil0 {fill:black}
   ]]>
  </style>
 </defs>
 <g id="Layer_x0020_1">
  <metadata id="CorelCorpID_0Corel-Layer"/>
  <g id="_1176976174480">
   <path class="fil0" d="M129.43 113.95c0,-7.49 2.4,-10.81 7,-13.84 5.82,-3.82 19.15,-5.95 26.48,-3.01 8.99,3.6 6.99,3.38 13.9,9.16 0.43,0.36 0.72,0.7 1.12,1.1 0.72,0.72 1.29,1.27 2,1.99l3.99 4.44c2.04,2.04 9.81,9.02 9.81,11.25 0,2.26 -1.47,2.89 -3.93,5.38 -0.95,0.97 -3.68,3 -4.05,4.6 2.15,-0.5 3.17,-1.81 4.38,-3.16 0.62,-0.69 1.09,-1.39 1.64,-2.13 0.43,-0.57 1.23,-1.68 1.74,-2.03 0,3.73 -4.14,7.89 -6.47,9.27 -0.72,0.43 -1.67,0.62 -2.43,0.9 -5.04,1.84 -6.58,1.09 -11.53,0.28 -2.77,-0.46 -10.66,-3.47 -13.05,-4.69l-12.32 -5.64c-7.67,-3.22 -5.51,-3.28 -9.18,-5.23 0.24,2.84 4.24,6.48 5.1,7.76 -0.44,1.66 -2.24,2.28 -4.02,3.74 -1.17,0.95 -3.04,2.77 -4.62,3.14 -1.67,-1.12 -3.54,-7.58 -4.08,-10.33 -0.81,-4.11 -1.46,-8.12 -1.46,-12.95zm101.53 7.76c0,3.44 -0.15,4.07 -1.85,6.8 -0.03,0.06 -0.14,0.22 -0.18,0.27l-3.08 2.47c-9.91,7.47 -23.69,0.42 -27.01,-5.14 -2.36,-3.96 0.81,-2.64 -6.5,-9.24l-6.02 -6.84c-0.47,-0.57 -1.01,-1.03 -1.54,-1.56 -1.03,-1.03 -2.3,-2.15 -3.2,-3.22 -3.16,-3.78 -6.15,-6.27 -10.26,-9.02 -1.4,-0.94 -2.52,-1.48 -4.14,-2.29 -2.42,-1.22 -5.79,-2.3 -8.56,-2.53 -1.19,-0.1 -0.47,0.16 -1.49,0.16 -0.74,0 -1.37,-0.37 -2.22,-0.44 -0.78,-0.06 -1.85,-0.01 -2.66,-0 -3.37,0.03 -2.13,0.17 -2.57,-2.76 -0.33,-2.17 0.68,-7.16 1.43,-9.24 1.88,-5.19 5.13,-9.36 9.57,-11.93 4.83,-2.79 11.73,-3.16 17.21,-0.6 1.08,0.5 6.47,3.62 7.46,4.73 1.37,1.54 2.02,1.99 3.42,3.23 0.57,0.51 0.98,0.82 1.56,1.32l20.16 17.53c4.06,4.87 8.47,9.68 12.38,14.66 2.12,2.7 8.08,9.62 8.08,13.65zm-33.47 -78.03c6.38,0 7.33,0.4 12.64,4.21 2.17,1.56 5.56,4.72 7.63,6.34 1.36,1.07 2.34,2.07 3.77,3.11l8.6 5.59c2.27,1.52 1.88,0.98 3.72,3.37l11.62 16.32c0.97,1.45 1.86,2.68 2.79,4.08 2.9,4.35 7.09,8.97 7.09,14.85 0,2.81 -11.66,10.24 -13.16,9.83 -0.54,-0.15 -1.6,-0.98 -1.97,-1.35 -3.74,-3.68 -3.02,-2.93 -6.24,-7.06 -2.2,-2.82 -4.78,-5.33 -4.78,-9.4 0,-3.63 6.94,-9.31 10.2,-9.31 3.14,0 6.7,5.05 8.59,6.93 1.12,1.11 1.5,1.62 2.94,2.38 -0.18,-0.66 -4.17,-5.75 -4.61,-6.26 -1.53,-1.75 -3.56,-4.16 -6.7,-4.16 -5.08,0 -14.79,7.11 -11.31,14.85 1.53,3.41 3.5,5.52 5.82,8.15 2.35,2.66 1.59,1.9 4.43,4.44 1.09,0.98 1.71,1.83 3.72,1.83 2.45,0 7.95,-2.95 10.25,-5.05 0.58,-0.53 0.48,-0.72 1.28,-0.94 -0.03,1.27 -0.4,0.9 -2.03,3.29 -0.42,0.61 -2.25,1.71 -3.07,2.25 -4.45,2.96 -10.18,3.66 -15.08,1.11 -2.75,-1.43 -7.49,-7.03 -9.72,-9.79l-4.07 -4.79c-3.28,-3.76 -4.35,-5.4 -8.32,-9.42l-22.72 -19.84c-0.72,-0.64 -1.13,-1.03 -1.89,-1.66 -1.25,-1.03 -2.72,-2.14 -4.08,-3.01 -1.03,-0.66 -3.46,-2.21 -4.61,-2.48 0,-2.15 0.37,-2.11 1.01,-3.64 1.39,-3.33 2.73,-6.42 5.25,-8.94 1.52,-1.52 3.35,-2.92 5.41,-3.9 1.89,-0.9 4.95,-1.92 7.62,-1.92zm8.42 -4.43c0.24,-0.9 3.29,-4.24 3.94,-4.93 1.68,-1.81 3.4,-4.17 5.5,-5.8 2.48,-1.92 6.24,-5.45 10.51,-5.45 5.96,0 7.99,0.89 13.3,3.55 7.05,3.52 8.07,5.11 12.76,8.74 1.37,1.06 2.55,2.38 3.61,3.71 2.36,2.96 3.86,4.18 6.55,8.08 3.88,5.62 10.48,16.75 11.55,24.39 0.18,1.29 -0.01,1.81 -0.89,2.41 -0.88,0.59 -1.4,0.89 -2.23,1.54 -4.14,3.25 -6.44,5.23 -11.18,5.23 -0.41,0 -1.73,-0.99 -2.05,-1.27 -2.11,-1.87 -5.79,-7.52 -7.25,-10.04 -5.76,-10 4.19,-14.18 7.08,-14.18 4,0 5.37,2.53 7.6,4.82 1.24,1.28 1.31,2 3.71,3.6 -0.61,-2.61 -5.98,-9.75 -10.2,-9.75 -4.08,0 -7.34,1.81 -9.57,4.62 -3.8,4.78 -1.71,9.35 1.02,13.91 1.77,2.95 6.43,9.4 10.11,9.4 3.56,0 5.5,-0.62 8.47,-2.62 2.97,-1.99 4.72,-4.28 5.28,-4.48 0,1.16 -0.26,1.51 -0.52,2.58 -0.31,1.27 -1.65,2.59 -2.63,3.58 -0.61,0.61 -1.06,1.03 -1.78,1.55 -1.89,1.36 -6.52,3.16 -9.7,3.16 -3.7,0 -6.71,-1.92 -8.59,-3.82 -5.62,-5.68 -8.97,-12.83 -13.41,-17.63 -1.77,-1.92 -4.36,-4.47 -6.61,-5.81 -3.69,-2.2 -5.99,-3.11 -9.24,-6.27l-4.77 -4.54c-1.91,-1.91 -4.47,-4.34 -6.72,-5.69 -1.33,-0.8 -2.85,-1.37 -3.64,-2.56zm180.23 42.34c-1.77,0.47 -11.56,11.28 -14.38,13.56 -1.07,0.86 -1.91,1.67 -3.01,2.53 -3.01,2.36 -6.06,5.58 -9.22,7.63 -0.62,0.4 -0.96,0.66 -1.53,1.13 -0.55,0.45 -0.22,0.11 -0.68,0.65 -0.33,0.39 -0.25,0.41 -0.75,0.8l-13.06 9.55c-1.16,0.87 -5.66,4.23 -6.81,4.5 -1.21,-0.88 -1.13,-2.24 -1.45,-4.09 -0.77,-4.36 -2.82,-8.72 -4.83,-12.46 -0.7,-1.3 -1.43,-2.31 -2.23,-3.53 -0.79,-1.19 -1.54,-2.24 -2.66,-3.1 -5.26,-4.06 -10.88,-5.2 -17.87,-5.19 -2.16,0 -3.42,-0.23 -5.54,-0.22 -5.6,0.01 -9.87,-0.43 -15.1,-2.19 -8.45,-2.84 -18.72,-6.77 -22.73,5.59 -2.99,9.22 1.83,21.71 8.07,27.91 4.92,4.89 9.64,7.66 16.37,9.57 1.47,0.42 2.84,1.12 4.31,1.46 0,5.4 0.22,10.39 0.22,15.96 -0.65,0.15 -1.87,0.92 -2.48,1.29 -0.84,0.51 -1.54,0.84 -2.47,1.3 -0.98,0.49 -1.53,0.84 -2.44,1.33 -4.26,2.3 -8.31,4.49 -12.39,7.12 -3.14,2.03 -6.24,3.84 -9.23,6.06l-14.95 11.21c-2.15,1.43 -4.06,2.73 -5.98,4.44 -1.15,1.03 -2.49,1.95 -3.53,3.12 -0.44,0.5 -0.01,0.12 -0.55,0.56l-3.26 2.51c-0.49,0.41 -0.61,0.42 -1.1,0.9l-5.1 4.65c-0.79,0.76 -1.1,1.1 -1.97,1.8 -0.43,0.34 -0.62,0.61 -1.04,0.95l-3.08 2.68c-0.71,0.7 -1.25,1.41 -2.05,1.94 0,-1.21 0.01,-1.07 0.42,-1.79 0.32,-0.56 0.47,-0.83 0.71,-1.5 1.44,-4 6.49,-22.45 4.63,-25.97 -0.58,0.43 -0.66,0.93 -0.95,1.71 -0.29,0.77 -0.47,1.34 -0.74,2.15 -2.35,7.06 -4.54,14.16 -7.84,20.75 -1.87,3.74 -3.78,7.51 -6.08,10.99l-4.3 7.23c-3.63,6.01 -6.79,12.29 -10.77,18.05 -0.82,1.18 -1.45,2.11 -2.26,3.28 -2.64,3.83 -5.51,6.06 -7.94,9.35 -0.54,0.73 -0.85,0.87 -1.5,1.39l-3.02 2.74c-6.84,6.78 -17.75,12.68 -26.43,16.58l-10.23 4.18c-0.58,0.18 -1.74,0.48 -2.19,0.69 -1.09,-2.06 -1.72,-4.4 -2.73,-6.58 -0.51,-1.09 -0.96,-2.06 -1.61,-3.05 -0.66,-1.01 -1.12,-2.01 -2.53,-2.12 1.44,6.2 2.86,12.36 -0.89,17.96 -2.75,0 -4.75,-0.18 -7.05,-1.59 -1.6,-0.98 -3.69,-2.62 -5.58,-3.06 0.91,3.9 6.58,7.08 7.58,9.71 1.24,3.25 -2.91,9.61 -4.89,12.05 -0.75,0.92 -5.35,5.34 -5.57,6.18 4.83,-2.55 9.62,-6.02 12.41,-10.87 0.69,-1.2 1.96,-4.21 2,-5.98 6.57,0 8.46,5.82 11.08,6.43 -0.49,-2.09 -1.32,-3.8 -2.02,-5.74 -2.3,-6.32 -1.01,-5.85 1.7,-7.67 1.42,-0.96 1.45,-0.38 3.02,-0.97 1.6,-0.59 4.05,-1.99 5.95,-2.03l-0.65 7.11c-0.07,0.85 0.04,1.8 -0.01,2.65 -0.16,2.98 -0.6,6.22 -1.2,9.22 -1.4,7.04 -3.89,8.66 -9.66,11.18 -7.96,3.49 -23.2,8.28 -32.41,9.27 -4.6,0.49 -8.85,0.4 -12.51,-2.04 -1.3,-0.86 -1.84,-1.34 -2.81,-2.51 -6.19,-7.41 -7.44,-23.03 -9.15,-32.53 -0.64,-3.54 -2.05,-13.17 -5.41,-15.42 0,2.95 1.18,8.52 1.52,11.78l0.48 6.17c0.13,3.99 0.66,8.32 1.23,12.29l2.23 11.3c0.42,1.68 1.2,3.79 1.2,5.67 -3.35,0.28 -4.36,1.11 -9.09,1.11 -3.78,-0 -6.17,-0.11 -8.96,-1.23 -2.26,-0.9 -4.79,-2.36 -6.08,-4.11 -1.13,-1.53 -2.31,-3.14 -2.74,-5.02 -0.15,-0.65 -0.28,-1.39 -0.48,-2.18 -0.7,-2.77 -1.11,-5.77 -1.43,-8.77l-0.47 -12.17c-0.01,-1.2 -0.2,-1.31 -0.24,-2.42 -0.02,-0.79 0.05,-1.66 0.01,-2.45 -0.21,-3.87 -0.79,-8.43 -0.89,-12.19 -0.07,-2.81 -1.37,-14.75 -3.39,-17.06 -1.6,-1.83 -0.28,5.48 -0.16,7.75 0.18,3.26 -0,7.09 -0,10.42 0,9.9 -0.4,20.64 0.42,30.39 0.28,3.36 0.91,6.07 0.91,9.51 -2.61,1.25 -8.15,1.13 -11.06,0.2 -9.89,-3.17 -13.61,-15.61 -13.55,-25.02 0.01,-1.14 0.03,-1.93 -0.13,-2.99l0.13 -9.43c-0.01,-1.35 0.17,-1.82 0.23,-2.88 0.26,-4.72 -0.02,-11.25 0,-16.19 0.01,-3.56 -0.49,-8.29 -1.29,-11.57 -0.29,-1.22 -0.68,-2.3 -1.32,-3.33 -0.31,-0.49 -0.33,-0.66 -0.95,-0.83 0,2.56 0.16,4.57 0.22,6.88 0.04,1.77 0.62,5.13 0.42,6.83 -0.23,2.02 -0.31,4.52 -0.42,6.69 -0.32,6.63 -1.81,13.32 -1.77,19.95 0.03,5.01 0.22,9.34 0.22,14.41 -2.56,0.6 -6.66,-0.01 -8.68,-0.63 -9.35,-2.9 -11.41,-10.64 -11.28,-20.66l0.73 -9.03c0.07,-0.5 0.31,-1.29 0.48,-1.96 0.99,-3.89 1.61,-8.11 2.7,-11.93 1.14,-4 2.24,-7.89 2.76,-12.09 0.13,-1.06 0.82,-2.5 1.09,-3.79 1.19,-5.7 1.11,-11.72 2.24,-17.26 1.27,-6.22 6.3,-10.05 11.25,-13.36 3.48,-2.33 7.07,-4.31 10.68,-6.39 4.7,-2.72 12.91,-6.69 18.12,-8.92l20.52 -8.96c7.13,-2.85 14.28,-5.5 21.58,-7.91l14.27 -5.24c10.17,-4.04 22.57,-11.61 31.35,-17.65 1.66,-1.14 4.32,-3.02 5.23,-4.74 2.36,0 4.53,1.48 6.28,2.36 3.39,1.71 8.74,4.33 12.19,5.32l3.34 1.09c5.55,2.22 16.89,1.9 21.47,-2.52 0.69,-0.67 0.55,-0.47 1.27,-0.95 0.77,-0.51 0.46,-0.53 1.09,-1.13 1.54,-1.47 3.05,-3.07 3.57,-5.29 1.31,0.3 2.86,1.25 4.06,1.92 6.29,3.53 13.98,5.66 21.24,3.43 3.47,-1.07 8.08,-3.63 9.85,-6.34 1.19,-1.82 2.27,-2.81 2.81,-5.17 0.49,-2.13 0.39,-5.08 0.39,-7.81 4.77,0.4 7.51,0.91 12.35,-0.95 0.98,-0.38 1.57,-0.61 2.43,-1.11 0.35,-0.2 0.78,-0.43 1.09,-0.68 0.67,-0.55 0.32,-0.46 0.82,-0.95 0.62,-0.61 1.25,-0.6 2.1,-1.45 0.89,-0.89 1.95,-3.04 2.79,-4.3 3.13,-4.7 3.17,-8.61 1.33,-13.92 -0.53,-1.52 -1.82,-3.59 -1.86,-5.23 3.61,0 5.59,0.39 9.18,-0.8 5,-1.65 4.7,-2.42 7.56,-4.41 0.41,-0.29 0.39,-0.27 0.73,-0.6 0.52,-0.51 0.81,-0.78 1.25,-1.41 2.61,-3.78 3.38,-7.91 2.51,-12.89 -1.5,-8.53 -5.44,-15.28 -9.65,-22.27l-2.4 -3.37c-0.03,-0.03 -0.08,-0.08 -0.11,-0.11 -0.43,-0.49 -1.67,-2.56 -1.53,-3.13 0.15,-0.58 1.98,-1.87 2.5,-2.38 0.88,-0.88 1.37,-1.76 2.42,-2.45 2.87,-1.89 10.19,-10.2 13.2,-13.62 0.43,-0.49 0.85,-0.86 1.33,-1.33 1.69,-1.69 3.03,-3.35 4.66,-5.1 0.5,-0.54 0.57,-0.79 1.1,-1.34 0.45,-0.47 0.81,-0.74 1.2,-1.24 0.48,-0.6 0.56,-0.74 1.13,-1.31 1.97,-1.94 9.55,-10.71 9.7,-12.47 -1.43,0.75 -2.98,2.06 -4.16,3.16 -2.98,2.77 -6.02,5.35 -8.86,8.2l-5.06 4.69c-1.38,1.07 -2.46,2.39 -3.83,3.49l-2.43 2.45c-0.61,0.74 -0.71,0.52 -1.41,1.03 -0.7,0.52 -1.77,1.73 -2.46,2.42 -0.46,0.46 -0.75,0.8 -1.24,1.2l-7.74 6.89c-1.18,1.12 -2.77,2.64 -4.05,3.49 -1.09,-1.62 -3.1,-3.21 -4.69,-4.4 -0.04,-0.03 -0.36,-0.27 -0.38,-0.29l-4.59 -3.84c-1.3,-1.02 -2.13,-1.72 -3.55,-2.66 -4.84,-3.17 -11.58,-6.51 -17.25,-7.36 -8.36,-1.25 -13.34,3.57 -19.08,8.02 -2.71,2.1 -9.14,9.83 -9.66,12.07 -3.43,0 -7.52,0.42 -10.61,1.58 -2.73,1.02 -5.82,2.74 -7.73,4.68l-2.22 2.21c-1.71,1.93 -3.3,4.06 -4.42,6.45l-2.73 6.58 -6.78 0.53c-13.67,2 -19.46,11.3 -20.9,24.33l-0.48 7.06c-3.03,0.07 -11.16,4.06 -13.11,5.51 -9.55,7.07 -7.99,26.44 -3.8,36.23 0.47,1.11 0.98,2.08 1.46,3.19l1.27 3.39c-1.76,1.18 -3.4,2.29 -5.32,3.33 -14.51,7.86 -21.38,9.89 -37.55,15.66 -6.04,2.16 -13.35,4.89 -19.13,7.47 -1.1,0.5 -2.05,0.83 -3.15,1.28l-9.28 4.02c-6.23,2.68 -18.25,8.27 -23.83,11.64 -5.69,3.45 -10.68,6.32 -15.76,10.62 -0.89,0.75 -1.55,1.22 -2.31,2.13 -5.99,7.13 -4.42,12.56 -5.96,20.65l-2 11.3c-1.26,6.29 -3.51,11.68 -4.31,17.85 -0.17,1.3 -0.6,2.23 -0.93,3.51 -1.64,6.41 -2,18.01 -0.56,24.16 2.43,10.36 9.96,14.84 19.66,15.59 7.84,0.6 4.5,0.93 9.41,8.32 2.28,3.43 5.8,6.33 9.67,8.07 1.69,0.76 4.77,1.68 7.09,1.77 1.43,0.06 2.57,0.37 4.18,0.19 9.85,-1.11 4.95,0.57 11.96,4.95 5.56,3.48 8.43,3.04 13.88,3.85 3.21,0.48 9.05,-0.72 11.7,-1.42 2.68,-0.71 3.92,1.11 5.9,2.45 4.78,3.23 11.92,3.27 18.41,2.57 1.19,-0.13 2.68,-0.43 3.84,-0.59 3.14,-0.43 6.27,-0.99 8.87,-2.22l5.37 -1.28c2.35,-0.78 4.34,-1.41 6.65,-2.22 13.15,-4.6 18.97,-8.7 20.79,-23.54l1.38 -16.35c0.67,-2.3 7.53,-3.99 9.79,-5.73 0.63,-0.48 0.51,-0.54 1.27,-0.95 1.08,-0.58 1.86,-0.89 2.91,-1.52 4.07,-2.46 9.83,-7.86 12.76,-9.41 1.81,0.96 6.73,5.16 8.59,6.7 4.32,3.56 7.03,5.12 10.73,9.67 0.82,1 1.56,1.92 2.34,2.98 4.08,5.5 7.2,11.69 10.26,17.89l4.02 9.06c1.97,4.77 4.21,9.66 6.14,14.48 0.97,2.41 1.99,4.73 3.06,7.14l10.35 23.13c1.13,2.34 4.25,10.79 6.8,11.38 -0.14,-1.73 -0.93,-4.08 -1.41,-5.68 -1.6,-5.38 -3.32,-10.62 -5.4,-15.88 -4.05,-10.27 -7.67,-20.8 -11.78,-31 -2.05,-5.09 -4.44,-9.95 -6.49,-15.01l-2.26 -4.84c-1.16,-2.34 -4.63,-7.51 -4.81,-9.6 6.93,0 13.13,-2.18 18.92,-5.02 0.94,-0.46 1.65,-0.61 1.92,-1.63 -0.59,0.28 -0.88,0.2 -1.64,0.35 -4.48,0.93 -8.16,1.86 -12.99,1.86 -4.67,-0 -12.77,0.16 -12.86,-3.99 6.71,0 11.76,-0.78 16.82,-2.47 3.28,-1.1 11.55,-3.85 13.11,-6.18 -2.36,0 -4.36,0.85 -6.51,1.47 -6.86,2 -13.39,3.64 -21.14,2.68 -4.97,-0.62 -8.91,-1.46 -12.23,-3.96 -0.76,-0.58 -1.49,-1.13 -2.19,-1.8 -0.49,-0.47 -0.61,-0.49 -1.1,-0.9 -0.46,-0.38 -0.68,-0.71 -1.12,-1.1 -1.41,-1.25 -2.91,-2.66 -4.49,-3.72 0,-2.18 1.64,-2.71 3.42,-5l5.48 -6.71c1.03,-1.38 1.9,-2.6 2.85,-4.02 0.46,-0.69 0.83,-1.27 1.29,-2.04l6.39 -10.9c2.32,-4.24 3.19,-4.48 6.23,-7.52 1.06,-1.06 2.33,-2.51 3.47,-3.4 1.3,-1 2.4,-2.17 3.62,-3.25 1.85,-1.64 5.55,-5.39 7.15,-6.6 1.6,-1.2 0.64,-1.23 3.55,-3.32 1.48,-1.07 2.31,-2.21 3.61,-3.27 0.67,-0.54 1.3,-0.71 1.99,-1.33 0.88,-0.79 0.82,-1.01 1.94,-1.61 -0.1,1.18 -1.48,3.19 -2,4.21 -2.15,4.3 -3.58,9.08 -4.7,13.92 -0.91,3.94 -2.03,15.74 -1.38,20.1 0.19,1.28 0.32,1.58 0.55,2.56l0.44 0c0.11,-1.37 0.49,-3.04 0.65,-4.45 1.48,-13.13 5.64,-26.3 13.6,-36.94 0.42,-0.57 0.68,-1.01 1.11,-1.55 5.52,-6.8 6.59,-7.2 12.96,-13.65 0.54,-0.55 0.66,-0.66 1.29,-1.15l2.96 -2.36c0.51,-0.33 1.02,-0.74 1.56,-1.1 4.24,-2.81 8.37,-5.86 12.76,-8.52 2.28,-1.38 4.52,-2.58 6.76,-3.88 0.96,-0.56 6.54,-3.22 7.34,-3.33 0.74,-0.1 1.45,0.1 2.01,0.62 0.42,0.39 0.76,1.05 1.1,1.56 2.19,3.29 11.71,11.04 15.48,11.12 -0.72,-1.07 -1.73,-1.72 -2.72,-2.6 -2.01,-1.79 -3.98,-3.31 -5.76,-5.32 -1.12,-1.28 -2.16,-1.93 -2.16,-3.38 4.58,1.07 3.69,1.75 10.04,2.59 1.34,0.18 2.74,0.41 3.92,0.51 -0.71,-0.97 -2.74,-1.28 -3.83,-1.71 -1.44,-0.57 -2.81,-1.02 -4.14,-1.62 -3.83,-1.72 -7.48,-3.93 -10.26,-7.03 -0.92,-1.02 -1.21,-2.73 -0.92,-4.59 0.42,-2.68 0.09,-8.41 0.09,-11.43 3.57,-0.3 6.62,-0.48 10.18,-1.57 1.42,-0.44 1.58,-0.5 2.24,-1.75 -1.33,-0.64 -7.31,-1.03 -9.47,-1.39 -14.39,-2.44 -23.93,-5.89 -30.58,-19.08 -1.98,-3.93 -3.2,-9.38 -1.81,-13.85 0.2,-0.65 0.57,-1.2 0.81,-1.85 0.54,-1.48 0.07,-0.81 1.17,-1.71 1.17,-0.94 1.45,-2.21 3.29,-2.25 -0.16,1.89 -1.8,2.92 -1.27,6.81 0.36,2.64 0.41,4.53 1.56,6.65 2.7,5 19.02,10.98 22.9,5.3 1.72,-2.52 2.63,-11.99 -1.46,-12.33 1.41,2.93 1.95,9.27 0.41,11.94 -1.1,1.9 -3.42,1.37 -5.42,1.05 -3.82,-0.6 -7.49,-1.97 -10.88,-3.53 -1.81,-0.83 -2.97,-1.7 -3.92,-3.4 -2.26,-4.08 -0.81,-7.73 -0.81,-12.71 2.22,0.05 5.66,1.19 7.51,1.8 11.09,3.7 11.69,3.27 24.64,3.29 7.5,0.01 14.69,2.86 18.32,9.61 1.4,2.61 2.02,5.49 3.26,8.27 0.35,0.78 0.37,1.13 0.54,1.9l2.61 11.36c2.04,9.37 4.46,21.92 5.82,31.42 1.42,9.93 -1.2,15.92 -5.72,23.69l-7.62 13.44c-3.85,6.92 -8.16,13.58 -12.19,20.39 -0.6,1.01 -1.14,1.89 -1.79,2.86 -0.7,1.04 -1.25,1.98 -1.91,2.97 -1.82,2.75 -3.83,5.49 -6.15,7.82 -0.87,0.88 -1.63,1.31 -2.44,2.21 -0.88,0.97 -1.47,1.33 -2.62,2.03 -1.05,0.64 -1.75,1.2 -2.82,1.83 -1.04,0.61 -1.8,1.19 -2.88,1.77 -7.42,3.98 -16.55,6.14 -25.04,7.55 -2.57,0.43 -5.8,0.57 -8.36,1.17l0 0.44c5.56,1.29 20.13,0.28 26.16,-1.33 3.63,-0.97 7.17,-1.98 10.49,-3.7 1.66,-0.86 2.24,-0.64 0.77,0.77l-7.43 6.77c-1.65,1.23 -8.29,5.13 -8.71,5.7 3.98,0 11.75,-4.57 15.03,-6.69 0.97,-0.63 1.75,-1.09 2.67,-1.76 1.31,-0.97 4.08,-2.75 4.47,-4.4l1.11 0c0.13,0.57 0.27,0.87 0.44,1.33l1.7 4.28c0.9,1.88 1.61,3.69 2.51,5.47 0.46,0.9 0.77,1.77 1.25,2.74 0.49,0.97 0.84,1.68 1.33,2.66 0.88,1.76 1.71,3.68 2.69,5.29 0.73,1.21 2.6,3.78 3.09,4.89 1.42,3.22 3.94,7.13 5.91,10.05l6.16 9.58c4.21,6.35 8.71,12.47 13.63,18.29 0.66,0.78 1.1,1.44 1.78,2.21 0.66,0.74 1.13,1.47 1.78,2.21 2.09,2.39 5.31,6.49 8.03,7.93 -0.16,-1.88 -4.96,-8.64 -6.39,-10.91 -0.8,-1.28 -1.5,-2.36 -2.35,-3.64 -5.88,-8.82 -24.65,-39.2 -28.58,-47.68 -0.65,-1.41 -1.3,-2.59 -2,-3.99 -0.7,-1.41 -1.3,-2.43 -1.93,-3.84 -0.28,-0.64 -0.59,-1.31 -0.89,-1.99 -1.59,-3.6 -2.92,-7.02 -3.61,-11.25 -0.54,-3.28 0.04,-2.6 3.58,-7.42 3.34,-4.55 6.41,-9.28 9.33,-14.17 3.65,-6.11 6.97,-12.54 10.64,-18.62 0.74,-1.23 1.33,-2.37 2.1,-3.66l3.01 -5.64c1.64,-3.3 3.67,-6.23 5.17,-9.69 4.24,-9.83 1.11,-21.03 -0.48,-30.47l-2.85 -14.66c-0.66,-3.8 -1.4,-4.14 1.67,-6.19 1.71,-1.14 3.74,-2.26 5.2,-3.67 0.91,-0.88 0.75,-0.51 1.77,-1.11 2.42,-1.43 4.52,-3.3 6.73,-5.02l4.81 -4.06c3,-2.79 6.54,-5.16 9.19,-8.32 0.56,-0.67 0.69,-0.91 1.34,-1.54 0.56,-0.55 1.03,-0.98 1.56,-1.55 3.26,-3.53 6.55,-7.08 9.55,-10.84 1.54,-1.93 5.62,-6.94 5.79,-9.06z"/>
   <path class="fil0" d="M226.75 115.06c-0.13,-0.5 -5.02,-6.79 -6.11,-7.63 -2.14,-1.65 -3.92,-3.29 -7.89,-2.16 -4.9,1.4 -11.95,7.5 -8.83,14.45 0.91,2.04 2.29,3.73 3.64,5.45l1.4 1.7c5.41,6.14 8.69,8.65 15.66,3.81 2.14,-1.49 5.09,-4.24 5.67,-6.74 -0.76,0.37 -1.02,0.35 -1.71,0.95 -2.69,2.3 -8.01,8.62 -12.25,6.37 -2.67,-1.42 -5.93,-6.21 -7.86,-8.77 -0.86,-1.14 -1.57,-2.01 -2.41,-3.13 -4.03,-5.38 2.74,-11.35 7.15,-12.5 3.93,-1.02 6.66,1.99 9.04,4.28l4.49 3.93z"/>
   <path class="fil0" d="M167.56 120.6c0,4.18 2.69,5.61 4.02,7.28 1.76,2.21 8.64,7.13 11.72,7.13 -0.52,-0.77 -0.58,-0.92 -1.39,-1.5 -1.97,-1.4 -2.36,-1.33 -5.27,-3.6 -2.08,-1.62 -4.45,-3.77 -6.14,-5.83 -2.2,-2.68 -1.28,-6.29 0.42,-8.76 0.87,-1.26 1.63,-2.19 2.93,-3.05 1.59,-1.06 3.33,-0.5 4.79,-1.2 -0.48,-0.65 0.02,-0.29 -0.96,-0.59 -5.22,-1.6 -10.12,5.15 -10.12,10.12z"/>
   <path class="fil0" d="M85.09 246.52c0,4.89 1.4,9.28 3.35,13.5l0.42 0.69c0,-1.78 -0.47,-4.12 -0.73,-5.92 -1.42,-9.77 -0.56,-13.8 4.27,-22.24 0.37,-0.65 0.54,-1.32 0.89,-1.99 -2.66,0.71 -8.2,9.92 -8.2,15.96z"/>
   <path class="fil0" d="M56.93 229.45c0,2.98 1.1,10.11 2.25,13.05 0.23,0.6 0.47,0.88 0.64,1.58l0.44 0c0,-7.46 -2.59,-13.84 0.98,-22.74 0.94,-2.34 3.64,-6.29 3.9,-7.41 -1.95,1.03 -4.31,4.47 -5.32,6.43 -1.39,2.69 -2.88,5.75 -2.88,9.09z"/>
   <path class="fil0" d="M205.69 168.48c0.02,1.1 3.5,8.59 4.51,12.11 1.49,5.16 1.88,13.27 2.36,14.27 0.71,-0.19 0.77,-0.48 1.03,-1.18 0.28,-0.75 0.24,-0.95 0.37,-1.85 0.21,-1.49 0.18,-2.87 -0.01,-4.35 -0.43,-3.29 -0.38,-4.44 -1.47,-7.61 -0.73,-2.12 -1.79,-4.52 -2.81,-6.28 -0.53,-0.9 -1.17,-1.82 -1.76,-2.67 -0.35,-0.49 -0.53,-0.78 -0.94,-1.28 -0.44,-0.55 -0.53,-0.96 -1.28,-1.16z"/>
   <path class="fil0" d="M30.33 215.48c0,3.44 1.14,10.82 2.59,14.04 0.21,0.47 0.26,0.52 0.52,0.81 0,-5.5 -0.74,-12.61 -0.43,-16.61 0.17,-2.23 1.16,-5.17 2.05,-6.82 0.81,-1.49 2.93,-4.22 3.25,-5.61 -3.35,1.77 -7.98,9.2 -7.98,14.19z"/>
   <path class="fil0" d="M152.04 113.95c0,1.46 -0.09,0.49 0.22,1.11 0.53,-0.19 0.18,0.02 0.51,-0.38l0.98 -2.35c1.02,-2.61 0.97,-3.21 2.79,-5.64 0.6,-0.8 1.48,-1.73 1.71,-2.72 -2.54,0.59 -6.21,6.64 -6.21,9.98z"/>
   <path class="fil0" d="M187.29 99.76c1.68,-1.12 2.75,-4.07 7.85,-7.45 1.11,-0.74 2.09,-1.26 2.79,-2.3 -2.97,0.25 -10.56,6.29 -10.64,9.75z"/>
   <path class="fil0" d="M215.22 79.81c1.21,-0.28 4.12,-2.89 5.42,-3.89 0.6,-0.47 0.66,-0.57 1.18,-1.04 0.54,-0.48 0.78,-0.57 1.33,-1.11 0.8,-0.8 1.66,-1.48 2.27,-2.39 -1.29,0.11 -4.27,2.64 -5.64,3.67 -1.71,1.29 -3.57,2.88 -4.56,4.75z"/>
   <polygon class="fil0" points="205.69,168.48 205.69,168.26 205.43,168.45 "/>
   <polygon class="fil0" points="386.14,81.58 386.36,81.58 386.18,81.32 "/>
   <polygon class="fil0" points="226.97,115.28 226.97,115.5 227.23,115.31 "/>
   <polygon class="fil0" points="226.97,115.28 226.75,115.06 "/>
  </g>
 </g>
</svg>
