<?xml version="1.0" encoding="UTF-8"?>
<!DOCTYPE svg PUBLIC "-//W3C//DTD SVG 1.1//EN" "http://www.w3.org/Graphics/SVG/1.1/DTD/svg11.dtd">
<!-- Creator: CorelDRAW -->
<svg xmlns="http://www.w3.org/2000/svg" xml:space="preserve" width="4.97505in" height="3.53315in" version="1.1" style="shape-rendering:geometricPrecision; text-rendering:geometricPrecision; image-rendering:optimizeQuality; fill-rule:evenodd; clip-rule:evenodd"
viewBox="0 0 246.14 174.8"
 xmlns:xlink="http://www.w3.org/1999/xlink"
 xmlns:xodm="http://www.corel.com/coreldraw/odm/2003">
 <defs>
  <style type="text/css">
   <![CDATA[
    .fil0 {fill:black}
   ]]>
  </style>
 </defs>
 <g id="Layer_x0020_1">
  <metadata id="CorelCorpID_0Corel-Layer"/>
  <path class="fil0" d="M187.8 24.08c0.87,1.02 0.65,0.34 1.89,0.75l5.73 2.09c5.53,1.5 9.1,3.64 11.19,9.18 1.82,4.8 1.53,12.17 1.34,17.62l-0.18 1.03c0.34,1.03 -0.03,7.8 -0.02,9.52 0.02,2.55 0.5,4.73 0.51,6.77 0.01,1.08 -0.27,1.09 -0.37,1.88 -0.57,0.39 -0.4,0.55 -0.75,1.08 -0.91,1.35 -7.7,3.13 -8.99,3.09 1.05,-1.09 1.78,-1.56 2.66,-2.85 -0.23,0.24 -0.3,0.23 -0.56,0.44l-1.69 1.46c-0.89,0.95 -1.03,1.2 -2.63,1.5 -4.42,0.84 -7.12,1.19 -11.54,1.1 -1.85,-0.04 -2.43,-0.38 -3.03,-1.18 0.16,0.28 0.28,0.59 0.32,0.99 -1.49,0.05 -1.69,0.07 -2.16,-1.14 -0.3,-0.78 -0.61,-1.63 -0.68,-2.51 0.47,0.18 0.43,0.01 1.07,0.81 0.23,0.29 0.42,0.51 0.66,0.82 0.15,0.19 0.31,0.37 0.45,0.55 -0.33,-0.48 -0.72,-1.09 -1.34,-1.83 -0.33,-0.39 -0.78,-0.63 -1.09,-1.05 -0.29,-0.4 -0.46,-0.79 -0.75,-1.17 0.22,1.05 0.66,0.77 0.88,2.56 0.12,0.98 0.45,1.83 0.62,2.79 -2.22,-0.05 -4.16,-0.49 -5.15,-1.93 -1.83,-2.66 0.23,-3.16 -0.93,-5.34 -1.83,-3.43 -2.71,-7.1 -2.86,-11.02 -3.53,-2.17 -3.15,-11.32 -3.82,-12.7 -0.74,0.48 -0.35,2.62 -0.24,3.72 0.12,1.31 0.17,2.45 0.46,3.69 0.27,1.14 0.54,2.14 1.02,3.11l1.55 2.56c-0.74,1.34 -9.65,5.17 -10.95,5.2 -0.73,0.62 -3.73,0.96 -5.37,-1.72 -0.57,-0.93 -0.92,-1.48 -1.51,-2.28 -6.1,-8.2 -3.08,-15.69 -4.75,-21.31 -0.14,-0.48 -1.47,-3.06 -2.12,-5.29 -0.83,-2.86 -0.6,-3.63 1.49,-4.91 0.57,-0.35 0.55,-0.59 1.07,-0.91 0.44,-0.27 0.76,-0.31 1.24,-0.58 0.37,-0.21 0.82,-0.62 1.08,-0.73 0.55,-0.23 1.08,-0.09 1.7,-0.28 0.48,-1.45 2.79,-0.76 3.77,0.01 0.5,0.39 0.96,0.79 1.25,1.55 0.94,2.45 1.91,1.29 0.11,6.04 -0.51,1.36 -1.53,2.22 -2.24,3.28 -0.04,2.08 1.04,4.26 1.97,5.68 0.79,1.2 3.09,3.85 2.97,4.55 -0.04,0.2 -3.47,4.44 -3.41,7.81 0.15,-0.19 0.02,0.03 0.21,-0.35l0.29 -0.71c0.6,-1.57 2.03,-5.24 3.29,-5.91 0.05,0.76 -0.05,1.52 0.04,2.28 0.07,0.54 0.16,1.28 0.48,1.69 -0.01,-1.36 -0.42,-4.83 0.26,-5.71 0.28,-0.36 0.43,-0.3 0.87,-0.6 0.98,-0.68 1.53,-1.82 2.05,-2.22 2.78,2.06 2.1,0.19 3.53,1.95 2.9,3.58 3.89,6.16 6.33,10.16 2.78,4.55 6.05,8.85 10.83,11.27 1.28,0.65 6.62,2.87 7.91,3.15 3.62,0.77 5.55,-2.29 6.97,-3.84 6.19,-6.74 6.44,-13.42 7.15,-14.69l0.03 -0.59c-0.12,0.5 -0.33,1.01 -0.49,1.49 -0.19,0.55 -0.27,0.92 -0.65,1.27 0.04,0.55 -0.13,0.82 -0.35,1.38 -0.08,0.19 -0.24,0.59 -0.3,0.71 -0.23,0.45 -0.04,0.2 -0.35,0.52 0.04,1.86 -6.71,11.92 -10.01,12.85 -1.68,0.47 -2.98,-0.48 -4.32,-1.09 -1.25,-0.57 -2.7,-0.95 -4.03,-1.56 -6.88,-3.18 -10.14,-9.01 -13.71,-14.98 -1.77,-2.96 -2.43,-4.09 -4.49,-6.89 -0.92,-1.24 -2.17,-0.37 -3.99,-1.61 -5.16,-3.49 -3.05,-5.18 -3.15,-5.95 -0.08,-0.57 -0.76,-0.98 0.35,-1.76 0.02,-0.02 0.39,-0.23 0.41,-0.24 0.37,-0.18 0.15,-0.09 0.41,-0.16l0.34 -1.74c0.86,-0.27 1.02,-0.15 1.48,-0.81 1.59,-2.27 1.41,-0.42 2.97,-1.05 0.28,-0.64 1.13,-1.28 1.95,-0.47 1.35,1.31 1.27,0.45 2.2,1.1 2.24,1.55 1.18,6.11 2.18,7.55 0.82,1.18 3.83,3.83 4.92,4.64 5.77,4.3 9.76,4.48 12.85,6.44 0.65,0.41 2.81,1.93 3.23,2.54 0.17,0.25 0.13,0.16 0.18,0.4l0.01 0.01c0.03,-0.19 0.05,-0.09 0.06,0.06l0.93 0.85c-0.31,-1.68 -2.35,-2.67 -3.09,-4.06 0.78,0.1 1.43,0.34 2.09,0.6 0.56,0.22 1.16,0.61 1.68,0.74 -1.57,-2.17 -5.76,-2.12 -8.52,-3.49 -0.11,-0.91 0.31,-2.48 0.89,-2.87 0.4,-0.27 2.12,-0.97 2.59,-1 0.87,-0.84 3.72,-1.27 4.49,-2.21 -1.16,0.19 -2.59,0.81 -3.63,1.2 -0.83,0.31 -2.84,1.26 -3.52,1.35 -1.65,-1.64 -1.44,-3.27 -1.58,-5.93 -0.25,1.28 -0.45,2.21 -0.36,3.87 0.58,2.47 1.21,2.44 0.13,5.05 -2.62,-0.54 -8.74,-4.48 -10.42,-6.34 -0.26,-0.29 -2.18,-1.38 -2.52,-2.91 -0.23,-1.04 -0.15,-2.37 -0.35,-3.44 -0.21,-1.16 -0.73,-1.89 -0.85,-2.71l1.93 -0.92c0.88,0.6 1.56,2.16 1.97,3.06 0.06,-0.11 0.15,-0.09 0.05,-0.56 -0.38,-1.74 -3.77,-5.7 -3.94,-6.54 0.38,-0.36 1.3,-0.9 1.78,-0.94 0.46,-0.71 2.07,-1.27 3.49,-3.16 1.2,-1.6 1.09,-3.19 0.96,-5.47 2,-0.91 1.33,0.07 2.66,-2.29 0.03,-0.04 0.12,-0.2 0.14,-0.23l0.17 -0.23c-0.12,-1.34 1.36,-3.47 -1.2,-5.36 -1.3,-0.96 -3.09,1.78 -3.38,2.92 0.66,-0.27 1.11,-1.75 1.93,-2.24 2.07,-1.26 3.12,2.29 1.85,5.14 -0.65,1.47 -0.78,1.53 -2.35,1.95 -0.73,5.24 -0.07,5.37 -5.23,8.78 -1.39,0.92 -2.85,1.55 -4.7,2.22 -1.25,0.45 -2.95,0.22 -3.11,-1.78 -0.07,-0.88 -0.16,-0.61 -0.41,-1.14 -1.34,-0.49 -0.85,-0.84 -0.81,-1.93 -2.15,-0.22 -0.88,-0.87 -1.75,-1.87 -0.45,-0.2 -0.98,0.01 -1.72,-0.27 -0.37,-1.47 0.52,-4.24 0.18,-5.46 -0.15,-0.53 -0.81,-1.02 -1.11,-1.85 -0.26,-0.72 -0.37,-1.7 -0.26,-2.45 3.03,-2.93 19.96,-3.72 25.21,-2.8l0.02 5.23 -0.2 1.16 -0.24 0.94c0.48,0.27 1.56,2.74 1.97,3.4 0.84,1.36 1.45,1.94 2.32,2.96zm-29.59 -19.64c1.85,-2.73 6.73,-4.1 10.02,-4.29 2.48,-0.39 5.76,0.01 8.11,0.6 1.28,0.32 2.31,0.67 3.44,1.17 3.05,1.34 0.9,1.17 3.18,0.98 -0.37,1.61 -0.86,-0.83 0.44,3.15 -0.28,0.49 0.51,0.53 -1.44,-0.03 -5.69,-1.63 -13.13,-1.18 -18.73,0.3 -1.01,0.27 -1.97,0.58 -2.9,0.9 -0.8,0.28 -2.12,0.95 -2.81,1.02 -0.4,-1.19 0.1,-2.92 0.7,-3.8zm27.67 3.54c2.08,0.37 2.57,0.64 4.34,2.97 2.07,2.73 3.64,1.97 4.38,2.69 -0.3,0.8 -2.41,1.76 -3.76,1.66 -1.48,-0.11 -2.03,-1.54 -3.06,-2.27 1.06,1.98 2.66,3.67 4.37,4.91 0.52,0.38 1.43,0.74 1.88,1.15l-0.44 0.27c-0.11,0.05 -0.37,0.15 -0.48,0.2 -2.09,0.87 -4.29,-1.06 -5.41,-2.44 -2.27,-2.81 -0.29,-6.77 -2.96,-6.71 -0.39,-0.44 -0.55,-0.39 -1.46,-0.55l-5.3 -0.51c-4.62,-0.11 -9.66,0.27 -14.14,1.19 -2.58,0.53 -5.18,1.88 -5.65,1.91 -0.55,-0.68 -0.78,-2.13 -0.66,-3.09 1.05,-2.02 19.56,-5.66 27,-1.79 0.12,1.07 -0.14,0.03 -0.13,1.11 0.56,-0.18 1.05,-0.27 1.5,-0.69zm-9.36 70.76c1.48,0.49 4.99,0.8 6.55,0.89 5.57,0.33 15.8,-1.33 21.16,-3.27 0.96,-0.35 2.7,-1.27 3.45,-1.37l0.37 0.6c-0.01,1.14 0.61,2.43 0.58,3.68 -5.61,3.3 -16.57,4.45 -23.57,4.36 -1.5,-0.02 -3,-0.09 -4.46,-0.22 -1.07,-0.09 -3.38,-0.56 -4.11,-0.46 -0.23,-0.16 -0.03,-0.04 -0.37,-0.16 -0.14,-0.05 -0.26,-0.07 -0.4,-0.12 -1.67,-0.56 -1.22,-3.86 -0.97,-4.48 0.59,-0.1 1.05,0.3 1.78,0.55zm3.22 5.48c1.5,0.22 3.35,0.29 4.82,0.34 5.1,0.38 12.93,-0.96 17.91,-2.06 5.69,-1.25 4.99,-3.01 7.06,-1.17 1.05,0.93 1.29,1.69 1.58,3.52 0.2,1.24 0.75,3.15 0.6,4.31 0.24,0.36 1.12,4.75 1.51,5.78 0.44,1.14 1.97,4.32 2.07,5.28 -0.96,0.17 -1.22,0.56 -2.36,0.45 -1.22,-0.11 -0.97,-0.69 -1.83,-0.93 -0.24,0.4 -0.54,1.29 -0.78,1.82l-1.06 2.06c-3.1,4.87 -17.9,9.14 -22.9,11.55 -2.56,2.18 -7.09,3.22 -10.48,4.9 -0.89,0.44 -1.76,0.88 -2.68,1.28 -1.04,0.45 -1.74,0.53 -2.5,1.29 -2.34,2.35 -3.96,2.29 -4.53,3.12 0.44,0.65 1.02,0.57 1.46,1.24 0.41,0.62 0.2,1.28 0.07,2.09 -0.24,1.43 -0.33,2.95 -0.54,4.4 -0.38,2.66 -1.02,5.64 -1.56,8.29 -0.95,4.65 -1.24,8.5 -1.83,13 -0.25,1.93 0.05,2.96 -2.06,2.9 -1.45,1.24 -10,-0.1 -12.09,-0.47 -3.53,-0.62 -7.09,-1.98 -9.74,-3.6 -0.1,-2.58 2.23,-12.91 1.91,-14.45 0.5,-0.76 1.79,-12.1 1.86,-12.73 0.46,-3.94 0.59,-9.17 2.32,-12.19 0.93,-1.63 5.55,-6.18 7.06,-7.46l3.71 -3.55c0.69,-0.63 3.51,-2.65 3.84,-3.3 0.63,-0.15 4.38,-3.31 5.48,-4.03 1.06,-0.69 5.2,-3.16 5.49,-4.09 -0.97,0.23 -4.43,2.88 -5.21,3.09 -0.74,0.2 -1.34,-0.43 -1.99,-0.7 0.29,-0.65 0.47,-0.6 1.49,-1.31 7.61,-5.32 7.58,-8.46 9.06,-9.85l0.83 0.14c1.39,0.38 2.4,0.8 3.99,1.03zm31.14 42.06c0.81,-0.18 -0.56,0.23 0,0zm8.72 -4.25c0.46,0.8 2.29,2.43 3.02,3.12 2.1,1.98 3.87,3.98 5.62,6.25 0.89,1.15 1.68,2.2 2.54,3.4l7.49 10.48c1.66,2.61 0.65,1.91 -0.53,3.67 -0.85,0.16 -2.77,1.73 -5.24,2.64 -3.82,1.42 -8.76,2.69 -12.97,2.76 -2.25,0.04 -1.9,0.19 -4.48,-3.33 -0.62,-0.84 -1.15,-1.54 -1.71,-2.25l-5.11 -6.6c-0.68,-0.88 -6.41,-7.98 -6.57,-8.9 -0.39,-0.19 -1.34,-1.41 -1.71,-1.78 -4.02,-3.95 -4.6,-4.8 -8.28,-9.04 -0.49,-0.57 -1.16,-1.24 -1.61,-1.85 -0.54,-0.72 -1.11,-1.1 -1.48,-1.88 -0.65,-0.33 -2.03,-2 -2.22,-2.37l2.97 -1.51c4.88,-2.2 10.4,-3.65 15.03,-6.41l5.11 -3.54 0.27 0.3c0.02,0.03 0.05,0.07 0.08,0.11 0.13,0.18 0.1,0.17 0.18,0.33l2.57 4.66c1,1.75 1.99,3.7 2.85,5.57 2.19,4.79 1.04,6.31 -1.39,8.84 -0.59,0.61 -1.45,1.52 -2.69,1.34l-0.26 0.14c-0.08,0.03 -0.14,0.05 -0.19,0.07 -0.03,0.01 -0.06,0.01 -0.1,0.02l-1.55 0.06c0.09,-0.01 2.72,0.97 8.1,-0.3 0.94,-0.22 0.76,-0.34 0.85,-0.52l-0.52 -0.01c-0.55,0.49 -3.45,0.59 -4.67,0.47 0.36,-0.6 0.87,-0.84 1.53,-1.26 0.46,-0.29 0.85,-0.71 1.3,-1.17 1.9,-1.91 1.25,-2.58 1.55,-3.54 1.05,0.23 0.93,1.42 2.22,2zm-70.49 35.66c1.56,0.02 3.77,0.63 5.59,0.76 1.77,0.13 5.78,-0.07 5.91,-0.05 0.21,2.38 -0.1,2.91 0.87,4.97 1.44,3.06 5.37,8.8 -2.47,9.73 -1.94,0.23 -3.76,-0.2 -5.54,0.06 -6.43,0.94 -5.62,2.14 -15.08,1.42 -3.12,-0.24 -10.76,-1.55 -8.24,-4.92 0.45,-0.6 1.18,-0.53 2.1,-0.67 1.6,-0.23 2.9,-0.85 4.46,-1.17 2.54,-0.51 5.78,-2.39 7.71,-3.53 0.94,-0.55 2.64,-1.58 3.4,-2.21 1.08,-0.91 0.61,-3.12 1.3,-4.38zm-24 -17.97c-0.01,1.42 1.5,4.03 1.57,5.51 -2.44,2.22 -15.72,5.42 -19.51,3.7 -0.44,-0.32 -2.23,-5.61 -2.57,-6.5l-5.09 -13.06c-0.43,-1.08 -0.9,-1.97 -1.42,-3.03 -0.4,-0.81 -1.37,-2.34 -1.49,-3.09 1.68,0.29 5.18,1.82 6.73,2.45l6.01 2.81c-0.59,-0.93 -5.46,-3.43 -7.06,-4.06 -2.26,-0.9 -6.42,-2.06 -7.65,-3.46 0.55,-0.26 1.02,0.01 1.61,0.13 2.34,0.48 9.23,0.09 10.86,-2.43 -1.89,0.58 -2.98,1.27 -5.36,1.56 -2.39,0.29 -4.28,-0.07 -6.54,-0.01 -2.66,0.07 -6.58,-2.54 -9.71,-4.04 -3.17,-1.52 -6.23,-2.79 -9.47,-4.23 -1.51,-0.67 -3.33,-1.24 -5.04,-1.72 -1.6,-0.45 -4.1,-0.79 -5.45,-1.3 0.46,-1.22 5.95,-3.18 7.65,-3.69 3.87,-1.16 4.99,-1.71 8.27,-2.86l-3.39 0.75c-0.5,0.27 -2.06,0.58 -2.99,0.88l-8.5 3.35c-1.79,0.88 -3.45,1.87 -5.09,2.83 -0.83,0.48 -1.73,1.05 -2.39,1.57 -3.74,2.95 -6.64,6.35 -9.51,10.11 -2.03,2.66 -1.6,2.23 -3.19,4.73 -0.51,0.81 -1.01,1.57 -1.54,2.42 -0.4,0.64 -0.94,1.92 -1.44,2.25 -0.18,0.67 -6.35,10.69 -7.32,12.4 -1.18,2.08 -2.28,4.09 -3.51,6.22 -1.78,3.09 -2.08,5 -4.9,4.83 -1.01,0.77 -6.57,0.42 -7.91,0.14 -2.55,-0.54 -7.35,-1.96 -9.3,-3.57 -0.55,-0.46 -1.82,-1.51 -1.88,-2.45 -0.06,-1.01 6.5,-11.85 7.71,-13.76l6.57 -10.58c0.45,-0.76 1,-2.05 1.64,-2.55l8.74 -15.44c0.54,-0.85 3.1,-4.26 3.22,-4.82 -0.87,0.45 -2.71,2.8 -3.35,3.7 -0.99,1.39 -2.17,2.73 -3.2,3.87 -2.02,-0.44 -3.33,0.07 -5.12,-0.19l4.21 -3.99c0.7,-0.69 1.31,-1.37 1.97,-2.16 0.42,-0.5 1.48,-1.74 1.98,-2.03 0.12,-0.68 1.41,-1.97 1.9,-2.5 2.59,-2.82 4.68,-5.1 7.57,-7.76 1.84,-1.7 6.53,-5.97 8.52,-6.55 -0.45,-0.28 0.61,-0.37 -0.65,-0.11l-1.37 0.64c-0.52,0.24 -1.23,0.73 -1.72,1.08 -1.2,0.84 -2.06,1.54 -3.08,2.36 -0.99,0.8 -2.04,1.74 -2.86,2.59 -0.76,0.79 -1.97,2.34 -2.85,2.42 0.07,-0.62 2.29,-3.63 3.14,-6.43 0.31,-1.03 0.62,-2.92 1.08,-3.7 0.61,-1.04 1.42,-1.39 2.44,-2.17 1,0.05 2.58,0.76 3.72,1.06 1.17,0.31 2.59,0.73 3.79,0.84 -0.44,0.96 -0.44,0.32 -1.06,1.73 -0.3,0.69 -0.56,1 -0.96,1.67 -1.9,3.14 -3.76,7.03 -5.35,10.32 -1.17,2.42 -2.33,4.5 -3.55,6.84l-3.64 6.55c-0.07,1.01 1.11,0.89 3.55,1.39 1.13,0.23 3.08,0.7 4.33,0.42 0.74,-0.47 3.6,-8.27 4.08,-9.6 0.64,-1.76 1.18,-3.33 1.83,-5.1l2.03 -4.98c0.06,3.02 -0.21,7.14 -0.25,10.45 -0.01,0.85 -0.27,2.85 0.38,3.34 0.64,-0.58 0.04,-2.8 0.54,-3.69 -0.25,-0.88 0.13,-8.01 0.17,-9.55 0.14,-4.88 1.17,-4.9 1.93,-7.8 0.68,0.06 1.64,0.11 2.32,0.13 0.93,0.03 1.07,-0.32 1.64,-0.68 1.53,0.1 3.13,0.49 4.78,0.64 1.71,0.15 3.34,0.23 5.11,0.23 3.17,-0.02 6.47,-0.34 9.33,-1.16 2.29,-0.66 0.82,-0.79 3.56,0.87 0.95,0.57 1,0.27 1.08,1.4 0.05,0.73 0.57,0.83 1.12,1.18 1.1,0.71 2.07,1.37 3.2,2.07 0.64,0.4 1.04,0.67 1.62,1.03 0.59,0.37 1.09,0.44 1.63,0.77 -0.22,0.31 -3.31,1.74 -3.96,2.06 -0.8,0.39 -3.31,1.83 -4,1.85 -0.37,0.39 -0.7,0.5 -1.18,0.73 -6.92,3.3 -12.78,4.45 -20.63,5.26 -0.59,0.17 -1.51,0.4 -2.14,0.35 -0.72,-1.91 -1.67,-14.99 -3.13,-16.06 -0.03,2.05 1.78,14.9 2.31,17 1.03,0.13 5.46,-0.57 6.8,-0.73 7.28,-0.89 11.1,-2.26 17.52,-5.26 1.44,-0.67 6.63,-3.48 7.6,-3.8 0.93,-0.31 1.87,0.56 2.6,1.02 1.66,1.04 2.95,2.08 4.5,3.08 1.17,0.76 3.64,2.97 4.4,3.14 0.27,0.59 3.19,2.72 3.75,3.22l3.53 3.13c0.84,0.28 5.74,4.67 6.44,5.7 1.59,2.36 2.31,5.87 3.15,9.06 0.6,2.29 4.89,18.11 5.58,18.83zm-10.49 10.08c5.29,-0.5 7.56,-1.95 8.76,-2.06 0.84,0.98 0.79,2.54 2.02,3.39 1.07,0.74 2.26,1.41 3.32,2.13 6.62,4.5 5.57,2.83 11.31,5.03 1.89,0.72 1.4,2.22 -0.15,2.95 -1.33,0.63 -8.41,0.78 -10.24,0.66 -3.46,-0.22 -4.98,-2.02 -9.28,-1.39 -2.46,0.36 -7.97,0.82 -8.18,-2.58 -0.16,-2.5 1.48,-5.13 1.43,-6.76 -0.04,-1.25 -0.45,-1.23 1.01,-1.37zm128.33 5.49c0.63,0.53 1.17,1.76 1.72,2.12 0.16,1.86 5.72,7.88 -5.84,6.91 -2.43,-0.2 -4.72,-0.55 -7.27,-0.54 -2.59,0.01 -5.17,0.21 -7.75,0.12 -2.02,-0.08 -5.18,-0.35 -6.8,-1.13 -0.71,-0.34 -1.86,-1.3 -1.26,-2.33 0.44,-0.75 1.86,-0.77 2.84,-0.93 4.01,-0.67 7.83,-1.93 11.15,-4.37 -0.18,-0.98 -0.68,-0.78 -0.83,-1.87 1,-0.42 8.45,-2.68 8.75,-4.26l0.7 -0.06c0.81,2.05 2.96,4.97 4.58,6.35zm-232.49 -3.26c0.8,0.16 2.68,1.42 3.98,1.87 1.47,0.51 3.15,0.99 4.75,1.2 -0.06,0.79 -0.85,1.83 -1.17,2.84 -1.33,4.23 2.24,7.49 -0.63,9.29 -2.66,1.67 -10.16,1.96 -13.56,1.4 -2.15,-0.36 -4.87,-0.91 -3.4,-3.54 0.57,-1.02 5.79,-6.06 7.42,-8.08 0.77,-0.96 1.83,-3.71 2.62,-4.98zm102.45 -107.4c-0.79,11.89 0.43,12.09 -5.49,21.14 -0.72,1.11 -0.98,1.55 -2.35,2.09 -1.05,0.41 -3.18,0.13 -3.79,-0.35 -2.07,0.1 -11.82,-5.93 -12.8,-7.04 0.48,-1.37 1.7,-1.94 2.24,-5.13 0.68,-4.02 0.1,-4.45 0.12,-6.66 -0.24,1.62 -0.55,3.32 -0.8,5.14 -0.44,3.2 -0.92,4.06 -2.42,6.51 -0.31,0.51 -0.98,1.14 -1.2,1.77 -0.55,1.54 -0.68,2.89 -1.32,4.44 -0.82,1.96 -1.44,2.76 -1.96,3.98 -1.46,3.41 1.45,4.32 -1.56,6.69 -1.66,1.3 -5.04,1.5 -7.19,1.56 0.03,-0.31 0.09,-0.57 0.17,-0.79 -0.63,0.81 -1.42,0.91 -3.11,0.94 -3.35,0.07 -6.74,0.04 -10.06,-0.19 -0.45,-0.21 -1.07,-3.01 -5.5,-2.14 -2.49,0.49 -1.1,0.66 -5.77,-1.06 -2.62,-0.96 -1.6,-0.61 -3.48,-1.68 -0.04,-0.77 -0.64,-1.6 -0.75,-2.21 -0.14,-0.73 0.33,-1.56 0.53,-2.23 1.1,-3.73 -0.42,-21.52 0.44,-27.61 0.72,-5.11 1.19,-4.71 2.92,-8.33 0.96,-1.31 1.53,-1.97 2.7,-2.93 2.25,-2.38 8.48,-3.44 12.39,-4.39 2.79,-0.68 4.49,-0.66 5.89,-2.51 0.6,-0.79 1.09,-1.5 1.58,-2.54 0.22,-0.46 0.4,-1.13 0.62,-1.52 0.34,-0.61 0.56,-0.46 1,-1.02l-0.21 -0.15c-1.32,-0.99 -1.22,-4.58 -1.15,-5.99 1.7,-1.32 9.87,-1.53 12.69,-1.53 6.92,-0.02 6.96,0.51 12.61,1.46 0.12,0.7 0.22,2.37 -0.05,3.09 -0.31,0.85 -1.1,1.27 -1.2,1.98 -0.22,1.57 1.1,3.37 0.4,5.35l-1.62 0.22 0.06 1.32c-0.45,0.38 -0.57,0.41 -1.29,0.68 -0.11,0.97 0.46,1.04 -0.34,1.62 -0.51,0.37 -0.94,0.35 -0.99,1.02 0.06,1.3 0.04,1.65 -1.02,2.27 -2.04,1.19 -5.8,-0.89 -7.28,-1.87 -5.73,-3.85 -4.47,-4.36 -5.06,-8.33 -1.01,-0.43 -1.5,-0.09 -2.02,-1.2 -0.74,-0.48 -1.61,-3.29 -0.54,-4.81 1.33,-1.89 2.9,0.42 3.68,1.22 -0.63,-2.5 -3.71,-3.55 -4.56,-0.45 -0.37,1.37 -0.11,2.75 0.41,3.84 0.7,1.44 1.04,1.33 2.51,1.94 0.29,1.12 0.02,2.2 0.46,3.51 0.6,1.79 2.04,2.98 3.55,4.03 0.64,0.44 1.74,1 2.28,1.51 -0.34,1.47 -4.29,4.94 -3.62,6.57 0.65,0.03 0.54,0.04 0.8,-0.65 0.36,-0.94 0.76,-2.05 1.67,-2.43 0.44,0.23 0.42,0.31 0.81,0.63 1.45,1.2 0.35,0.37 -0.52,3.58 -0.29,1.08 -0.2,2.64 -0.5,3.46 -0.69,1.88 -7.29,5.86 -9.35,6.81 -0.96,0.44 -5.04,1.95 -5.91,2.08 -2.66,-4 0.08,-2.49 0.35,-6.69 0.05,-0.84 0.1,-2.03 -0.41,-2.65 0.1,4.39 -1.18,4.7 -2.02,6.69 -0.76,-0.18 -2.4,-1.28 -3.29,-1.67 -1.07,-0.47 -2.3,-0.88 -3.24,-1.36l-1.62 -0.33c0.39,0.2 -0.03,-0 0.2,0.34 0.41,-0.02 2.09,0.96 2.62,1.21 2.91,1.38 6.01,2.3 6.55,4.85 -1.48,0.88 -6.37,1.45 -7.23,3.75 0.43,-0.27 2.11,-1.66 2.76,-1.27 -0.24,0.61 -0.83,0.94 -1.2,1.43 -0.4,0.53 -0.59,1.11 -0.9,1.54l0.08 0.47c0.09,-0.65 -0.03,-0.13 0.26,-0.34 0.11,-0.71 1.57,-2.15 2.1,-2.6 3.42,-2.88 8.5,-2.15 16.24,-7.68 1.01,-0.72 1.85,-1.29 2.63,-2.15l2.21 -2.28c0.46,-2.5 0.15,-4.08 1.62,-6.1 0.58,-0.8 2.18,-2.66 3.27,-2.35 0.73,0.2 0.4,0.4 0.91,0.89 1,-0.01 1.53,-0.45 2.89,-0.2 1,1.1 -0.33,1.11 1.68,1.62 1.27,0.32 0.65,1.03 0.8,2.03 0.63,0.08 1.02,0.44 1.38,0.87 0.01,0.76 -0.3,0.72 -0.04,1.36 0.1,0.24 0.52,0.62 0.57,1.13 0.01,0.14 -0.34,3.16 -1.55,3.41 -0.98,0.2 -0.43,-0.36 -1.07,0.22 -1.09,0.99 -2.42,2.19 -4.03,2.38 -1.66,0.21 -1.2,0.16 -2.04,1.13 -4.34,4.96 -6.76,12.35 -14.22,17.93 -2.49,1.86 -5.41,3.15 -8.74,4.29 -1.58,0.54 -2.9,1.94 -4.86,1.32 -1.2,-0.38 -2.73,-2.09 -3.49,-2.93 -8.18,-9.05 -7.34,-13.36 -9.1,-16.5 0.34,2.5 1.67,6.63 2.73,9.03 1.32,3.01 3.06,4.9 4.77,7.09 5.06,6.47 6.6,4.4 11.45,2.51 4.67,-1.82 7.42,-3.42 10.97,-6.69l2.77 -3.17c2.67,-3.34 4.67,-7.26 7.09,-10.71 1.84,-2.62 1.42,-2.11 3.26,-2.67 0.81,-0.25 1.4,-0.53 2.02,-0.95 0.52,-0.35 1.15,-0.9 1.73,-1.1 1.69,3.42 3.33,3.5 4.07,4.83 0.61,1.09 -1.33,2.4 -0.87,7.26 0.05,-1.13 0.73,-4.28 1.21,-5.35 0.24,0.19 0.09,-0.02 0.36,0.35 0.12,0.15 0.15,0.25 0.23,0.43 0.66,1.52 1.45,4.07 2.07,5.34l0.53 0.75c-0.03,-1.57 -0.98,-3.9 -1.47,-5.22 -0.75,-2.02 -2.31,-2.75 0.62,-5.56 1.96,-1.88 3.38,-5.23 3.48,-7.97 -0.87,-0.79 -1.29,-1.14 -1.98,-2.1 -0.93,-1.3 -2.57,-4.16 -1.96,-5.86 0.21,-0.59 1,-1.78 2.1,-1.93 -0.61,-0.52 -0.53,-0.6 0.08,-1.18 0.31,-0.31 0.86,-0.83 1.24,-1.08 1.39,-0.89 2.08,0.05 3.21,0.6 0.65,0.32 1.11,0.35 1.76,0.55 1.15,0.37 0.27,0.43 1.22,0.93 0.74,0.39 0.89,0.12 1.58,0.73 2.43,2.14 3.53,0.86 1.61,7.38 -1.32,4.5 -1.28,1.04 -1.7,7.29zm-51.56 35.1c1.17,-0.08 7.79,0.29 10.75,0.21 6.83,-0.18 7.48,-1.24 9.25,-1.46l0.13 3.94c-4.5,2.1 -15.43,1.82 -20.5,0.74 0.12,-1.45 0.4,-1.64 0.37,-3.43zm-3.6 -2.25c4.49,-0.53 3.66,8.52 -0.78,6.18 -0.09,-0.87 0.22,-1.07 0.29,-1.93 -0.5,0.33 -0.94,0.78 -1.29,1.53 -0.21,0.45 -0.4,1.48 -0.67,1.85 -0.34,1.14 -0.86,2.11 -1.28,3.3l-3.67 9.68c-0.69,1.98 -4.2,11.59 -5.04,12.77 -1.01,0.1 -4.93,-0.91 -6.08,-1.21 0.15,-1.07 2.6,-4.87 3.25,-5.91 2.08,-3.36 7.93,-16.69 9.25,-17.66 0.08,-0.44 -0.08,-0.04 0.22,-0.57 1.1,-1.98 1.71,-2.33 3.34,-2.31 -0.61,-0.81 -1.13,-0.55 -1.86,-1.12 -0.66,-2.7 0.56,-4.74 3.22,-4.83 0.21,0.67 0.25,0.55 0.61,1.05 0.03,-0.03 0.06,-0.08 0.07,-0.1 0.01,-0.02 0.05,-0.07 0.07,-0.1l0.35 -0.61zm-11.61 -2.29c0.89,0.06 2.71,1.01 3.77,1.38 1.03,0.36 3.1,0.7 3.7,1.38 -0.27,0.72 -0.6,0.78 -0.82,1.63 -0.19,0.75 -0.12,1.49 -0.48,2.06 -1.13,0.03 -4.76,-1.33 -6.15,-1.64 -0.84,-0.6 -1.36,-0.2 -0.84,-2.29 0.22,-0.9 0.69,-1.89 0.81,-2.52zm38.33 -74.9c3.77,-0.15 6.43,0.1 9.63,1.39 2.3,0.93 5.16,2.94 4.64,6.23 -2.04,-0.73 -3.22,-1.51 -5.71,-2.02 -4.75,-0.97 -9.58,-0.73 -14.34,0.14 -1.98,0.36 -6.06,1.67 -6.08,1.67 0.15,-1.62 0.46,-1.67 1.02,-2.82 -0.29,-0.84 -0.67,-0.56 -0.44,-1.38 1.65,-0.14 0.17,1.1 2.56,-0.42 0.77,-0.49 1.65,-0.97 2.6,-1.36 2.03,-0.82 3.83,-1.17 6.13,-1.43zm-2.31 6.1c4.8,-0.44 12.42,-0.01 16.11,2.14 0.68,0.43 0.5,0.96 0.44,1.81 -0.02,0.25 -0.06,0.89 -0.12,1.1 -0.22,0.8 -0.06,0.38 -0.43,0.65 -0.78,-0.17 -2.04,-0.78 -3.15,-1.09 -4.99,-1.4 -14.93,-1.25 -19.92,-0.16 -0.61,0.13 -1.25,0.31 -1.8,0.5 -0.81,0.28 -0.94,0.12 -1.27,0.87l-1.66 2.48c-0.5,3 -1.78,4.79 -3.88,5.84 -1.4,0.7 -2.16,0.82 -3.91,0.48 -1.11,-0.21 -2.64,-0.69 -3.1,-1.43 1.47,-0.73 2.03,-0.02 6.48,-2.71 0.7,-0.42 0.34,0.01 0.62,-0.74 -1.88,0.25 -2.09,0.4 -3.78,-0.44 -1.29,-0.64 -1.97,-1.24 -1.37,-2.88 1.06,-0.16 1.87,0.84 3.91,0.46 1.4,-0.26 2.09,-0.83 3.24,-1.19l0.75 -0.41c0.05,-1.62 0.91,-2.59 2.17,-2.36 0.81,0.15 0.7,-0.16 1.3,-0.63 1.33,-1.03 7.39,-2.13 9.39,-2.31z"/>
 </g>
</svg>
