<?xml version="1.0" encoding="UTF-8"?>
<!DOCTYPE svg PUBLIC "-//W3C//DTD SVG 1.1//EN" "http://www.w3.org/Graphics/SVG/1.1/DTD/svg11.dtd">
<!-- Creator: CorelDRAW -->
<svg xmlns="http://www.w3.org/2000/svg" xml:space="preserve" width="4.51844in" height="3.48383in" version="1.1" style="shape-rendering:geometricPrecision; text-rendering:geometricPrecision; image-rendering:optimizeQuality; fill-rule:evenodd; clip-rule:evenodd"
viewBox="0 0 228.98 176.55"
 xmlns:xlink="http://www.w3.org/1999/xlink"
 xmlns:xodm="http://www.corel.com/coreldraw/odm/2003">
 <defs>
  <style type="text/css">
   <![CDATA[
    .fil0 {fill:black}
   ]]>
  </style>
 </defs>
 <g id="Layer_x0020_1">
  <metadata id="CorelCorpID_0Corel-Layer"/>
  <path class="fil0" d="M189.91 42.54l0.27 -0.79c0.19,-0.4 0.23,-0.5 0.41,-0.96 0.28,-0.71 0.52,-1.26 0.79,-1.92 0.52,-1.28 1.19,-2.49 2.02,-3.39 0.81,-0.88 5.3,-3.74 6.87,-3.67 0.17,-0.32 0.12,-0.22 0.07,-0.34 -1.15,-0.02 -1.79,0.34 -2.86,0.43 0.21,-0.73 1.37,-1.9 1.79,-2.68 -1.72,1.46 -1.75,2.43 -2.7,2.99 -2.91,1.72 -3.87,1.14 -5.68,5.8 -0.35,0.89 -1.04,2.96 -1.08,3.97 -0.03,0.85 -0.07,0.28 0.11,0.54zm-149.9 88.03c-0.32,0.51 -0.19,1.32 -0.6,1.94 -0.76,1.14 -4.13,1.68 -5.78,0.96 -2.41,-1.05 0.05,-7.19 -0.19,-7.75 -0.62,0.75 -1.04,3.13 -1.25,4.24 -0.69,3.58 2.82,5.13 6.27,4.13 1.76,-0.51 2.14,-1.59 1.55,-3.53zm149.04 -39.19c1.36,-0.19 3.16,-1.11 4.93,-1.43 6.14,-1.1 13.81,0.78 16.53,-2.75 -0.78,0.33 -1.13,0.78 -2.07,1.16 -2.63,1.07 -15.41,-0.96 -19.38,3.02zm-160.47 50.07c1.6,0.69 19.67,-10.39 22.2,-13.87l-5.39 3.64c-1.86,1.12 -3.66,2.31 -5.49,3.46 -3.74,2.35 -6.98,4.66 -11.31,6.76zm43.3 -52.36c3.09,2.42 5.09,4.22 10.21,4.52 2.97,0.17 4.03,-0.13 5.89,-1.55 1.09,-0.83 2.55,-2.85 3.19,-4.16 -1.75,0.33 -1.15,4.88 -9.07,4.7 -6.63,-0.15 -8.43,-2.77 -10.21,-3.5zm86.23 86.02l-0.24 -0.52c-0.01,-0.03 -0.04,-0.09 -0.05,-0.11 -0.01,-0.02 -0.03,-0.08 -0.05,-0.11 -0.37,0.33 -0.96,0.55 -1.54,0.6 -0.96,0.09 -1.24,-0.03 -1.64,-0.59 -0.58,0.68 -1.04,0.35 -1.84,0.08 -0.53,-0.18 -1.39,-0.31 -1.94,-0.42 -3.03,-0.63 -2.97,-2.27 -1.88,-2.59 0.84,-0.25 0.34,0.26 2.56,-0.5 7,-2.42 7.6,-3.51 13.47,-6.81 1.05,-0.59 1.14,-1.12 1.54,-2.51 0.31,-1.09 0.45,-2.34 0.57,-3.5 0.65,-0.02 4.83,0.96 9.03,0.98 -0.27,4.19 -0.86,3.91 0.51,8.08 2.8,8.57 -3.48,5.2 -10.11,6.97 -2.42,0.64 -5.66,1.27 -8.38,0.97zm55.96 -25.09c1.29,-0.68 2.97,-0.89 5.8,-2.43 0.7,-0.38 1.28,-0.89 1.75,-1.12 0.66,0.64 1.54,2.71 2.25,3.67 0.86,1.15 1.74,2.16 2.57,3.35 0.73,1.04 1.73,3.18 0.68,4.41 -1.44,1.69 -7.91,0.56 -10.74,0.72 -1.8,0.1 -3.67,0.42 -5.41,0.56 -2.77,0.22 -5.04,-0.35 -5.51,-0.31 -1.2,0.11 -4.27,0.27 -4.09,-1.59 0.51,-0.24 5.47,-0.91 7.29,-1.81 2.09,-1.03 3.67,-2.32 6.24,-2.91 0.09,-0.87 -0.47,-2.16 -0.82,-2.54zm-15.03 -27.78c1.74,0.47 3.76,0.69 5.66,0.06 0.9,-0.3 1.51,-0.67 2.15,-1.07 0.57,-0.36 0.45,-0.27 0.92,-0.77 0.34,-0.36 0.44,-0.55 1.01,-0.68 0.31,0.84 -0.45,2.79 -0.82,3.38 -1.02,1.67 -4.17,2.59 -6.13,3.03 -2.76,0.61 -3.56,-0.19 -4.14,0.18 0.63,0.8 3.94,0.96 5.2,1.16l4.37 0.49c0.12,0.01 0.8,0.09 0.85,0.09 1.25,-0.08 0.3,0.13 0.76,-0.27 -1.8,-0.37 -4.82,-0.5 -6.34,-0.96 0.41,-0.22 1.93,-0.44 4.07,-1.51 2.37,-1.19 1.2,-2.39 2.18,-3.63 2.6,-0.07 1.56,3.1 1.56,3.1 1.98,2.12 1.62,1.44 3.4,4.33 0.61,0.99 8.07,14.38 8.3,15.26 -1.16,1.86 -5.73,3.66 -7.96,4.3 -2.28,0.65 -8.54,1.43 -11.07,1.1 -1.24,-2.1 -9.45,-13.8 -9.75,-14.75 0.91,0.12 1.4,0.66 1.95,1.13 0.53,0.45 1.09,0.91 1.77,1.44 2.57,2.05 2.65,2.51 5.48,3.82 1.63,0.76 3.42,2.24 6.28,3.05l0.39 -0.53c-1.96,-0.28 -5,-2.12 -6.8,-3.06 -2.9,-1.53 -6.25,-5.11 -8.54,-6.33 -1.68,-0.89 -1.1,-0.53 -2.57,-2.33 -0.71,-0.87 -1.41,-1.77 -2.11,-2.79 -0.4,-0.58 -0.7,-0.82 -0.79,-1.77 -0.09,-0.89 -0.19,-1.58 0.24,-2.34 1.25,-2.22 2.66,-2.19 5.72,-4.08 2.91,-1.8 16.04,-9.85 19.02,-10.78 -2.75,4.58 -3.87,9.11 -8.39,10.93 -2.42,0.97 -3.27,0.65 -5.85,0.77zm-16.71 -4.4c4.43,1.31 11.85,-0.2 16.52,-1.57l1.56 -0.45c1.09,-0.07 0.29,-0.09 0.67,0.12 -1.63,0.54 -4.34,2.48 -5.92,3.41 -5.32,3.13 -7.63,5.03 -14.14,2.87 -3.77,-1.25 -5.41,-2.6 -6.33,-2.9 0.49,1.01 1.44,1.29 2.22,2.97 1.01,2.17 2.07,3.06 3.31,4.62 1.07,1.35 2.52,3.02 3.32,4.63 0.29,-2.01 -1.58,-3.95 -2.78,-5.34 -0.35,-0.41 -0.69,-0.58 -1.05,-0.97 -0.77,-0.84 -2.25,-2.68 -2.71,-3.73 1.49,0.4 3.12,1.43 4.82,1.93 2.53,0.75 3.87,0.41 6.28,0.67 -0.43,1.07 -1.93,1.63 -2.3,2.46 1.1,0.91 2.11,-0.24 0.76,2.44 -0.55,1.08 -0.56,2.56 -0.72,3.83 -0.34,2.56 -0.84,5.19 -1.23,7.74l-2.16 15.89c-2.19,1.62 -9.28,1.37 -12.29,0.9 -2.89,-0.46 -7.81,-2.39 -9.82,-3.79 0.01,-1.2 1.59,-10.76 1.9,-12.73 0.68,-4.3 1.27,-8.53 1.77,-12.92 0.42,-3.7 0.84,-9.42 2.53,-12.17 2.03,-3.31 3.21,-3.79 5.05,-6.1l8.22 -8.33 6.83 -6.01c0.75,-0.61 1.23,-1.19 2.04,-1.68 4.24,-2.58 13.59,0.1 18.15,1.97 1,0.41 4.66,2.09 5.35,2.11 1.56,-3.22 2.91,-4.45 3.95,-8.72 0.27,-1.1 0.3,-2.61 0.77,-3.49 1.74,4.12 1.07,13.42 1.9,14.05 0.35,0.17 2.87,0.6 3.54,0.8 -0.13,0.55 -0.97,1.69 -1.36,2.27 -1.51,2.19 -3.18,3.7 -5.61,5.21 -2.08,1.3 -7.18,3.76 -9.43,4.92 -3.18,1.64 -7,2.7 -10.78,3.58 -7.12,1.66 -7.07,0.91 -12.83,1.54zm29.32 -21.22l-6.1 -2.49c-2.14,-0.77 -4.4,-1.6 -6.76,-2.04 -4.89,-0.91 -11.24,-0.76 -13.45,2.78 0.29,-1.08 3.53,-4.75 4.52,-5.48 0.21,-0.15 0.22,-0.14 0.41,-0.27 0.22,-0.16 -0.02,0.04 0.2,-0.16 0.2,-0.18 0.13,-0.11 0.28,-0.29 -1.45,0.28 -4.23,3.17 -4.87,4.18 -0.26,0.41 -0.43,0.76 -0.7,1.16 -0.91,1.37 -0.41,1.97 -1.5,2.11 0.3,-0.86 0.64,-1.46 0.95,-2.34 0.3,-0.84 0.71,-1.49 1.08,-2.29 0.25,-0.54 1.51,-3.68 1.57,-4.37 0.07,-0.81 0.01,-0.38 -0.13,-0.57 -1.8,2.69 -2.91,9.23 -4.85,10.83 -0.99,0.82 -1.79,1.65 -2.73,2.47l-0.14 -0.2c-0.1,-0.19 -0.08,-0.16 -0.17,-0.34 -0.21,-0.44 0.08,-0.16 -0.3,-0.54 -0.3,-0.3 -0.69,-0.32 -1.12,-0.6 0.13,-0.43 1.93,-2.62 2.44,-3.33 0.83,-1.17 1.53,-2.27 2.34,-3.41 0.73,-1.04 4.08,-7.15 4.38,-7.26 0.59,0.03 2.24,0.66 3.21,0.84 3.74,0.69 8.01,0.75 11.82,0.56 6.11,-0.31 8.64,-1.02 14.15,-2.19 0.5,1.35 -0.85,5.88 -1.4,7.27 -0.39,0.96 -2.72,5.63 -3.11,5.99zm5.17 -13.4l3.6 -1.42c1.38,1.38 1.73,1.72 2.11,3.79 0.33,1.79 0.51,3.52 0.78,5.3 0.61,4.05 1.37,6.03 2.49,9.45 -1.81,-0.31 -3.44,-1.02 -5.21,-1.32 -1.54,-0.26 -1.09,-0.35 -1.16,-2.05 -0.15,-3.46 -0.41,-5.36 -1.24,-8.73 -0.49,-1.97 -1.49,-2.91 -1.37,-5.03zm-25.69 -1.44c2.69,1.48 12.48,0.95 15.88,0.42 2.6,-0.4 4.64,-1.03 6.92,-1.87 2.03,-0.75 5.52,-2.86 5.99,-2.95 0.31,0.73 0.85,2.23 0.6,3.1 -0.54,0.86 -6.62,2.42 -7.97,2.7 -6.01,1.22 -14,1.76 -20.1,1.06 -1.35,-0.15 -3.28,-0.46 -4.46,-0.92 -0.87,-0.34 -1.09,-0.5 -1.12,-1.53 -0.02,-0.93 -0.13,-1.88 -0.13,-2.76 4.28,0.99 3.07,1.18 8.37,1.38 6.76,0.25 16.47,-0.75 22.77,-3.56 0.74,-0.33 1.06,-0.69 1.76,-0.87 0,1.05 -0.55,1.24 -2.19,2.12 -10.11,5.41 -25.86,3.41 -26.31,3.68zm-9.32 -20.89c-0.63,0.18 -4.54,2.24 -6.57,3.06 -2.5,1.01 -4.98,2.48 -7.01,0.45 -0.67,-0.67 -1.31,-1.99 -1.94,-2.79 -4.92,-6.21 -3.18,-11.44 -4.43,-19.21 -0.61,-3.78 -4.96,-8.48 -1.63,-10.36 4.45,-2.52 4.66,-3.41 5.74,-1.18 0.61,1.26 0.96,1.94 1.24,3.46 -0.69,0.42 -0.79,0.83 -1.67,0.91 -0.4,-0.52 -0.5,-1.57 -0.86,-2.25 -0.45,-0.85 -0.65,-1.06 -1.48,-1.49 0.32,1.34 1.62,2.22 1.35,4.01 -0.57,0.4 -0.75,0.5 -1.6,0.51 -1.08,-1.25 -0.58,-0.97 -1.91,-2.47 0.01,0.57 0.62,2 0.9,2.53 0.59,1.11 1.16,0.68 2.38,0.41 1.92,-0.42 2.93,-1.24 4.99,-1.92 -0.37,-1.23 -0.61,-2.97 0.98,-2.63 0.35,1.06 0.27,1.4 -0.18,2.4 -0.31,0.71 -0.17,1.25 -0.64,2.22 -0.92,1.87 -1.37,1.82 -2.74,3.05l0.82 0.43c0.34,5.9 4.99,7.43 4.44,9.51 -0.1,0.4 -0.24,0.79 -0.38,1.15 -0.28,0.76 -0.53,1.41 -0.86,2.18 -0.29,0.67 -1.45,3.9 -0.98,4.68 0.22,-0.23 1.24,-3.45 1.53,-4.13 1.54,-3.67 0.81,-2.61 1.35,-4.21 0.6,0.21 0.61,0.55 0.69,1.67l0.66 6c0.52,-0.63 0.19,-2.51 0.15,-3.3 -0.17,-2.91 -0.66,-4.42 0.68,-5.76 0.58,-0.58 0.93,-1.17 1.54,-1.77 0.7,0.04 0.89,0.4 1.44,0.69 1.87,0.99 1.36,0.05 1.39,4.66 0.01,0.84 0.35,2.65 0.45,3.65 0.33,3.31 1.95,4.85 2.18,5.85zm-14.11 -31.61c0.48,0.69 1.32,1.22 1.74,1.88l-1.13 -0.16c-0.12,1.13 1.07,2.42 -0.4,3.18 -0.41,-0.6 -0.62,-1.98 -0.91,-2.67 -0.55,-1.3 -1.2,-0.94 -1.4,-2.1 0.68,-0.97 1.35,-1.2 2.1,-0.13zm43.28 0.86c1.48,0.02 4.39,2.18 4.98,2.9 4.77,5.85 4.48,12.15 4.16,19.85 -0.22,5.13 -0.46,10.41 -0.17,15.54 0.18,3.15 0.71,4.59 -1.21,6.58 -1.09,1.13 -3.95,2.12 -5.53,2.52 0.5,-1.28 2.46,-2.93 2.88,-4.36 -0.54,0.42 -1.62,2.09 -2.23,2.71 -0.89,0.91 -1.24,1.96 -3.08,2.1 0.24,-0.86 1.5,-1.79 2.09,-2.63 -0.65,0.32 -3.6,4.07 -6.14,3.22 0.13,-0.86 0.94,-1.07 1.48,-1.94l-1.76 1.8c-0.78,0.46 -5.92,1.04 -6.79,0.48 -0.75,-0.48 -0.86,-1.6 -1.82,-1.98 0.15,0.82 1.13,1.74 0.97,2.1l-0.51 0.21c-0.49,0.1 -4.73,0.21 -5.37,-0.53 -0.77,-0.89 -1.75,-3.17 -2.28,-4.48 -0.4,-1.01 -0.48,-1.49 -0.97,-2.42 -0.35,-0.66 -0.84,-1.45 -1.15,-2.26 -0.51,-1.34 -0.91,-3.98 -1.13,-5.45 0.04,1.17 0.31,3.05 0.58,4.2l2.63 7.3c0.49,1.29 1.18,2.37 1.57,3.44 -1.35,0.07 -4.58,-0.8 -5.31,-1.55 -1.88,-1.92 0.4,-3.51 -0.67,-5.76 -1.26,-2.63 -2.61,-6.51 -2.73,-9.57 -0.04,-1.17 0.03,-0.76 0.27,-1.47 -3.09,-1.74 -4.08,-10.58 -3.82,-13.18 1.21,0.11 3.4,4.65 4.22,6.17 2.94,5.48 6.1,11.55 11.48,14.87 2.37,1.47 4.52,2.43 7.04,3.61 3.02,1.41 4.78,1.07 7.3,-1.53 3.81,-3.94 6.22,-7.98 7.86,-13.41 0.22,-0.74 0.39,-1.35 0.58,-2.11 0.22,-0.9 0.6,-1.63 0.3,-2.11 -0.71,2.14 -2.39,6.21 -3.5,8.18 -1.54,2.75 -5.19,8.08 -7.54,9.86 -1.32,1.01 -3.01,0.85 -4.35,-0.02 -3.53,-2.31 -7.94,-1.88 -13.4,-10.09 -1.62,-2.44 -4.86,-8.1 -6.51,-11.05 -2.71,-4.85 -2.42,-2.71 -4.91,-3.88 -1.69,-0.79 -4.4,-3.96 -4.19,-4.77 0.4,-0.77 0.53,-0.35 0.9,-1.18 -0.35,-0.75 -0.47,-0.34 -0.84,-1.01 0.2,-0.49 0.45,-0.7 1.01,-0.95 0.65,-0.29 0.98,-0.03 1.64,-0.4 -0.19,-0.48 -0,-0.18 -0.5,-0.36l-0.77 -0.26c-0.09,-0.79 0.28,-0.89 1.04,-1.13 1.22,-0.39 0.53,-0.41 1.23,-1.28 1.03,-0.01 1.13,0.48 2.35,0.47 0.94,-2.35 1.26,-0.5 2.93,0.01 2.91,0.89 0.65,5.74 4.02,8.97 5.15,4.93 6.72,5.84 14.25,8.72 3.29,1.26 5.22,3.72 6.95,6.1 -0.95,-3.25 -3.21,-4.32 -3.61,-5.33 1.51,0.02 2.48,1.24 3.51,1.64 -0.32,-1.17 -1.85,-2.14 -3.24,-2.64 -0.53,-0.19 -1.71,-0.47 -2.25,-0.59l-1.82 -0.4c-0.5,-0.24 -0.23,-0.04 -0.5,-0.39 -1.84,-2.86 8.66,-5.59 9.27,-7.53 -1.59,0.32 -8.58,4.09 -8.98,4.21 -0.08,-1.3 -0.84,-2.01 -1.18,-3.39 -0.28,-1.11 -0.05,-3.92 -0.08,-4.01 -1.89,4.08 0.94,6.47 0.56,7.72 -0.03,0.11 -0.82,2.33 -0.9,2.48 -1.81,-0.18 -7.01,-3.66 -8.83,-5.21l-0.41 -0.48 -0.64 -0.51c-0.19,-0.19 -0.3,-0.32 -0.51,-0.5 -2.78,-2.37 -1.84,-2.05 -2.86,-6.78 -0.35,-1.62 -0.5,-1.32 -1.36,-2.41 0.19,-0.18 0.05,-0.07 0.33,-0.25 1.05,-0.68 1.39,-1.08 2.02,-1.16 0.43,0.66 0.75,1.56 1.47,1.96 -0.08,-0.79 -0.31,-1.12 -0.67,-1.76l-1.96 -2.78c-0.32,-0.46 -0.67,-0.73 -0.88,-1.25 1.64,-1.25 3.36,-1.89 4.39,-3.32 2.01,-2.81 1.03,-2.98 1.38,-6.3l0.55 -0.23c2.46,-0.95 2.72,-4.25 2.07,-6.2 -1.09,-3.29 -4.64,-1.84 -4.78,1.21 0.14,-0.13 0.11,-0.09 0.26,-0.29 0.08,-0.11 0.15,-0.22 0.21,-0.32 0.31,-0.49 0.93,-1.32 1.47,-1.58 1.08,-0.51 1.88,0.58 2.12,1.54 0.29,1.18 0.13,2.66 -0.3,3.66 -0.7,1.6 -1.54,1.19 -2.11,1.97 -0.39,2.33 0.32,3.33 -1.25,5.3 -1.65,2.07 -8.35,7.04 -10.31,4.56 -0.84,-1.06 -0.52,-1.28 -0.44,-2.46 -1.26,0.1 -2.41,-0.44 -1.14,-1.59 -0.69,-0.22 -1.25,-0.17 -1.5,-0.82 -0.3,-0.77 0.23,-0.85 0.54,-1.4 -1.18,0 -1.03,0.57 -2.3,-0.04 -0.4,-1.4 0.49,-3.84 -0.3,-5.44 -0.3,-0.6 -0.83,-0.98 -1.07,-1.81 -0.15,-0.53 -0.3,-1.69 -0.29,-2.24 1.85,-1.29 7.97,-2.39 10.72,-2.66 2.79,-0.28 10.11,-0.67 12.64,-0.08 0.68,4.45 -1.89,7.46 3.49,13.58 0.72,0.82 1.25,1.4 2.63,1.74 0.58,0.15 8.51,2.98 9.29,3.8zm-8.7 -15.47c-1.35,-0.18 -1.2,-0.69 -2.18,-1.24 0.62,2.5 3.82,5.11 4.02,6.21 -3.79,0.43 -4.77,-5.35 -5.37,-7.74 -0.6,-2.38 -1.09,-1.34 -2.11,-1.75 0.15,-0.63 0.42,-0.57 1.17,-0.84 2.56,-0.91 3.57,2.04 5.37,3.57 0.55,0.47 1.71,0.93 2.01,1.62 -0.82,0.39 -1.93,0.3 -2.91,0.17zm-31.09 -4.29c3.25,-2.68 14.55,-4.24 20,-3.71 0.89,0.09 2.47,0.28 3.28,0.56 0.95,0.32 1.14,1.69 1.14,2.73 -1.98,0.1 -4.61,-0.23 -6.77,-0.21 -4.41,0.04 -8.14,0.27 -12.38,1.36 -0.96,0.25 -4.69,1.54 -5.17,1.53l-0.1 -2.26zm-0.36 -1.14c0.18,-3.55 0.88,-4.5 3.41,-5.77 2,-1.01 4.46,-1.76 6.98,-2.01 3.06,-0.3 8.68,0.5 10.84,2.27 0.67,0.55 1.79,1.68 2.07,2.41 -5.34,-0.57 -6.88,-0.88 -12.65,0.01 -6.98,1.09 -8.76,2.65 -10.65,3.08zm6.29 151.59c0.23,-2.57 0.24,-1.81 2.72,-2.26 0.84,-0.15 3.17,-0.61 3.78,-0.95 0.35,-0.36 3.3,-25.63 4.11,-27.65 0.9,0.8 10.11,14.41 10.98,15.78l3.65 5.44c1.52,0.16 4.01,-0.03 5.59,-0.14 1.68,-0.12 3.72,-0.66 5.11,-0.7 0.22,0.36 0.53,0.78 0.59,1.32 -2.1,1.09 -6.03,3 -8.24,3.6 -1.15,0.31 -3.93,0.69 -4.73,1.16 -1.13,0.66 -0.84,2.05 0.81,3.11 0.03,0.02 0.08,0.05 0.11,0.07 0.34,0.23 0.13,0.07 0.33,0.25 0.7,-0.05 3.96,0.54 5.35,0.58 4.21,0.12 9.16,-0.94 11.67,-0.67 2.12,0.23 3.76,0.44 6,0.15 4.58,-0.58 4.93,-3.58 2.82,-6.9 -1.46,-2.3 -3.95,-4.28 -4.88,-7.4 0.27,-0.38 0.49,-0.45 0.77,-0.67 0.05,-1.5 -5.08,-9.84 -6.05,-11.68 -1.03,-1.95 -2.08,-3.98 -3.23,-5.72 -1.84,-2.78 -2.59,-4.88 -3.17,-5.78 -2,-3.08 -1.26,-2.32 0.47,-5.57 0.53,-0.99 1.02,-1.84 1.61,-2.79 0.47,-0.76 1.31,-2.13 1.65,-2.91 0.68,-1.59 1.6,-1.69 3.46,-3.12 4.24,-3.26 3.94,-4.92 4.95,-6.4 1.75,0.2 1.56,0.91 4.08,0.24 0.03,-0.86 -1.22,-3.71 -1.55,-4.78 -1.09,-3.46 -1.73,-11.58 -2.55,-13.32 -0.51,-1.08 -0.74,-1.05 -1.49,-1.68 -0.18,-1.13 0.37,-1.48 0.1,-2.85 -0.37,-1.87 -1.87,-3.27 -1.14,-4.29 0.58,-0.81 0.77,-1.04 0.78,-2.35 0.03,-4.17 -0.42,-7.84 -0.22,-12.17 0.18,-3.95 0.36,-8.03 0.33,-11.99 -0.01,-1.92 -0.07,-4.16 -0.3,-5.78 -0.24,-1.65 -0.78,-3.49 -1.38,-4.91 -3.86,-9.14 -11.18,-8.83 -18.47,-12.26 -1.82,-0.86 -4.7,-5.59 -4.67,-7.63 0.01,-0.67 0.15,-5.86 0.2,-6 0.65,0.11 0.72,0.74 0.85,1.56 0.55,3.48 1.4,6.85 5.21,7.94 0.85,0.24 3.39,-0.62 3.63,-1.31 -0.7,-0.57 -1.41,-0.49 -2.26,-1.42 -0.61,-0.67 -1.48,-1.42 -1.73,-2.12 0.53,-0.2 3.94,0.2 4.62,-1.86 -0.62,-0.62 -2.39,-1.2 -3.49,-2.17 -1.04,-0.92 -1.71,-2.14 -2.82,-2.93 -2,-1.42 -2.8,-0.38 -4.03,-1.2 -2.13,-1.42 -1.3,-1.31 -2.47,-3.33 0.03,-0.04 0.08,-0.12 0.09,-0.09l0.19 -0.18c0.3,-0.27 1.04,-0.96 0.49,-1.47 -0.76,-0.38 -0.77,0.07 -1.39,0.46 -0.57,-0.15 -2.79,-1.6 -4.61,-2.21 -5.23,-1.76 -12.27,-0.77 -16.58,2.07 -1.5,0.99 -2.36,1.62 -2.92,3.84 -0.33,1.32 -0.02,4.83 0.35,6.13 0.33,1.14 0.63,0.68 0.95,2.47 0.2,1.15 0.46,1.61 1.04,2.31 1.35,1.63 0.1,3.87 0.4,5.87 0.67,0.58 1.14,0.59 2.01,0.85 0.29,0.79 0.17,0.79 0.67,1.52 0.3,0.43 0.5,0.97 0.82,1.38 0.42,0.55 0.72,0.54 0.99,1.22 0.26,0.67 0.26,0.99 0.69,1.49 2.23,2.67 4.71,0.3 6.4,0.07l1.47 2.46c-3.63,2.83 -2.1,-0.22 -4.8,0.42 -0.43,0.1 -0.84,0.34 -1.13,0.42 -0.9,0.24 -0.78,-0.05 -1.48,-0.09 -0.84,-0.04 -1.19,0.73 -1.83,1.3 -1.04,0.92 -1.31,0.28 -1.6,1.82 -0.22,1.16 -0.81,0.92 -1.27,1.9 -0.32,0.67 -0.21,0.53 -0.09,1.27 0.22,1.38 -0.8,2.16 0.41,3.8 0.4,0.54 1.28,1.08 1.7,1.68 -0.19,0.56 -0.77,0.92 -1.19,1.34 -0.34,0.34 -0.32,0.33 -0.62,0.74 -0.26,0.35 -0.13,0.4 -0.72,0.59 -1.7,-0.9 -4.21,-6.03 -4.37,-8.24 1.35,-1.23 4.5,-5.93 2.27,-8.37l-2.88 -3.21c-1.25,-1.24 -1.95,-0.19 -3.15,0.24 -0.63,0.22 -0.48,-0.04 -1.06,0.14 -0.23,0.07 -1.43,0.9 -1.88,1.15 -0.77,0.42 -1.18,0.68 -1.9,1.14 -1.3,0.84 -2.55,1.52 -2.33,3.63 0.38,3.61 2.63,5.8 3.02,9.28 1.06,9.47 -0.06,12.48 4.99,19.5 2.05,2.85 2.98,4.7 7.77,3.01 1.82,-0.64 8.13,-3.78 8.46,-3.88 0.23,0.34 1.05,4.31 1.29,5.16 0.52,1.9 0.93,3.01 1.67,4.73 0.85,1.95 -0.99,3.13 0.46,5.29 0.76,1.12 0.23,0.98 0.21,2.57 -0.07,4.69 1.35,1.71 -0.66,5 -2.15,3.53 -3.73,6.41 -6.16,9.89 -0.46,0.66 -2.57,3.44 -2.68,3.82 0.6,0.31 2.63,0.67 2.62,1.74 -0.29,0.82 -1.66,1.83 -2.23,2.3 -0.77,0.65 -1.57,1.6 -2.28,2.28 -3.28,3.1 -6.08,6.14 -8.61,9.8 -1.44,2.08 -1.83,4.18 -2.23,7.05l-3.33 24.2c-0.25,1.74 -1.22,6.86 -1.08,8.25 0.97,1.36 5.52,2.45 6.81,3.55 0.06,1.12 -0.41,3.6 -0.87,4.55 -0.56,1.16 -8.9,5.51 -10.3,6.09 -1.27,0.52 -2.57,1 -3.95,1.48 -1.57,0.54 -3.25,0.1 -3.64,1.77 -0.74,3.16 3.9,4.08 6.42,4.5 5.04,0.84 9.65,0.17 14.45,-1.03 4.01,-1.01 11.77,1.06 10.72,-5.55 -0.52,-3.26 -2.24,-5.14 -1.45,-8.76zm-165.29 6.61c-1.28,1.13 0.25,2.88 -3.09,2.33 -0.21,-1.44 0.17,-1.18 0.34,-2.13 -0.67,1.09 -0.44,2.61 -2.42,2.19 -0.69,-0.15 -0.61,-0.19 -0.87,-0.72 -0.68,0.34 -2,0.84 -2.36,-0.42 -0.63,0.38 -0.6,0.52 -1.36,0.03 -1.68,-1.08 0.34,-2.28 0.9,-2.9 1.28,-1.39 2.32,-2.24 3.53,-3.56l3.36 -3.57c0.61,-0.61 1.87,-4.53 2.12,-4.99 0.64,0.18 2.26,1.41 3.36,1.89 1.41,0.61 2.74,0.86 4.1,1.31 -0.27,0.73 -0.64,0.97 -0.98,2.1 -0.98,3.22 -1.27,1.96 -0.03,7.71 0.34,1.58 -1.18,2 -3.34,2.6 -4.96,1.38 -3.33,-1.58 -3.26,-1.9zm114.52 -14.01c5.28,-0.52 7.55,-1.75 8.78,-1.88 1.31,1.97 0.39,3.23 2.96,4.63 3.66,2 6.18,4.36 9.86,5.36 1.02,0.28 1.88,0.78 2.79,1.08 1.09,0.35 2.14,0.44 2.75,1.1 -0.6,1.78 -6.64,1.27 -9.4,1.44 -3.74,0.23 -6.13,-1.61 -9.46,-1.5 -2.63,0.08 -8.09,1.24 -9.15,-1.11 -0.62,-1.38 0.14,-3.33 0.57,-4.56 1.21,-3.44 0.22,-2.81 0.3,-4.56zm-59.94 -67.26c1.32,0.02 0.93,0.31 2.45,-0.06 0.78,-0.19 1.58,0.11 2.35,0.28 4.63,1.05 11.64,1.31 16.08,0.25 2.9,-0.69 3.16,-1.42 4.28,-0.51 0.56,0.45 1.33,0.8 1.56,1.34 0.48,1.11 -0.6,0.29 1.02,1.66l7 4.8c-2.19,1.12 -8.14,3.6 -10.67,4.69 -3.67,1.59 -7.72,2.69 -11.93,3.44l-9.24 1.29c-0.49,0.06 -0.53,0.12 -0.75,-0.1 -0.32,-0.33 -0.39,-2.78 -0.46,-3.43 -0.39,-3.58 -1.96,-10.55 -1.71,-13.64zm-5.43 10.15c0.04,-1.07 3.83,-9.76 4.38,-10.3 0.34,0.6 -1.09,4.43 -1.36,5.56 -0.25,1.07 -0.83,5.4 -1.19,5.88 -0.3,0.25 -0.21,-0.53 -1.84,-1.15zm-14.54 15.82c0.18,-0.69 0.65,-1.05 1.06,-1.63 4,-5.63 6.04,-10.23 9.15,-16.36 1.71,-3.37 1.94,-4.07 4.01,-7.48 0.83,-1.37 1.5,-2.31 3.79,-1.79 0.03,0.53 -1.42,3 -1.8,3.79l-5.04 12.69c-1.08,3.17 -2.92,7.24 -4.37,10.33 -0.52,1.1 -0.24,1.49 -1.62,1.25 -1.67,-0.29 -3.56,-0.46 -5.16,-0.79zm-1.47 0.52c0.99,0.72 5.25,1.45 6.88,1.48 1.51,0.03 1.8,-0.74 2.36,-1.81 1.54,-2.94 2.8,-5.89 3.95,-9.06 0.46,-1.26 1.72,-5.48 2.47,-6.08 3.15,0.76 1.92,3.43 1.67,5.84 -0.13,1.23 -0.29,2.55 -0.38,3.78 -0.07,0.95 -0.47,3.33 1.02,3.11 0.05,-0.96 -0.24,-1.08 -0.06,-2.4l0.93 -7.75c0.69,0.12 0.71,0.26 1.18,0.62 0.38,0.3 0.53,0.4 1,0.57 -2.61,-1.6 -2.11,-2.19 -1.66,-5.03 0.33,-2.11 0.55,-4.49 1.34,-6.2 0.38,2.39 0.84,4.86 1.09,7.39 0.26,2.6 0.08,5.18 1.1,7.28 2.81,0.37 11.74,-1.24 14.62,-1.98 5.56,-1.44 7.24,-2.48 12.16,-4.56 7.36,-3.11 5.57,-3.42 8.29,-1.8 2.62,1.56 5.07,3.22 7.48,5.02 1.63,1.22 3.16,2.4 4.84,3.61l4.56 3.72c0.8,0.68 1.42,1.17 2.23,1.83 1.96,1.6 4.91,4.29 6.01,6.49 1.4,2.81 6.4,20.26 8.1,25.35 0.53,1.59 1.95,5.01 2.09,6.46 -3.65,1.11 -4.03,2.72 -11.1,3.51 -1.12,0.12 -6.19,0.25 -7.11,0.01 -0.94,-0.25 -1.92,-3.79 -2.39,-4.98 -1.38,-3.49 -2.76,-7.01 -4.22,-10.48 -1.09,-2.6 -2.13,-5.24 -3.4,-7.74 -0.45,-0.87 -0.91,-1.47 -1.31,-2.23 1.2,0.87 8.07,3.03 10.56,4.46l3.15 1.97c-2.47,-4.22 -14.69,-6.55 -15.42,-8.87 1.8,-0.25 3.88,0.39 6.99,-0.25 1.89,-0.39 4.64,-1.24 4.98,-2.87 -2.08,1.02 -2.44,1.51 -5.08,1.97 -8.01,1.4 -9.95,-1.5 -16.3,-4.22 -3.3,-1.41 -6.47,-2.93 -9.87,-4.15 -3.09,-1.11 -6.04,-2.22 -9.2,-3.12 -0.45,-0.13 -1.02,-0.27 -1.36,-0.58 3.59,-0.31 12.3,0.65 16.2,1.09 3.84,0.44 7.73,0.61 11.41,1.41 1.08,0.24 2.67,0.5 3.85,0.55 -0.54,-0.31 -6.69,-1.31 -7.67,-1.59 -3.84,-1.08 -12.54,-1.82 -16.81,-2.14 -3.5,-0.26 -5.7,-0.01 -9.02,0.25 0.28,-0.42 -0.01,-0.08 0.38,-0.4 0.1,-0.08 0.38,-0.25 0.53,-0.33 0.37,-0.22 0.61,-0.35 1,-0.52 2.65,-1.18 13.79,-3.98 16.86,-5.45 -1.37,-0.4 -16.27,4.33 -19.3,5.71 -2.33,1.06 -1.48,0.8 -2.45,0.28 -1.86,1.04 -3.91,1.28 -6.28,1.81 -1.58,0.35 -5.3,1.11 -6.23,1.91 2.52,-0.13 5.94,-1.55 8.84,-1.74 -0.51,0.83 -4.27,3.04 -5.33,3.86 -2.05,1.59 -5.49,4.83 -7.13,6.72 -1.47,1.71 -2.99,3.22 -4.31,4.99l-9.75 13.39c-2.52,3.6 -5.08,7.35 -7.74,10.84 -2.63,3.45 -2.07,3.97 -4.75,4.41 -2.57,0.42 -5.98,0.2 -8.5,-0.24 -3.01,-0.53 -7.6,-2.12 -9.38,-4.51 -1.04,-1.41 -0.34,-1.75 0.51,-3.02 0.91,-1.36 14.01,-20.71 16.02,-21.32 0.01,1.11 -0.61,2.53 -0.07,2.72 0.58,-2.28 -0.19,-2.11 1.24,-4.59 3.38,-5.86 8.86,-14.04 13.22,-19.38 1.06,-1.3 3.53,-3.8 4.07,-4.99 -0.91,0.27 -3.84,2.82 -4.69,3.86l-1.43 1.62c-0.43,0.53 -0.85,1.08 -1.27,1.6 -0.22,0.28 -0.4,0.43 -0.64,0.71 -1.11,1.3 -0.81,1.36 -2.9,1.53 -0.94,0.08 -1.95,0.19 -2.89,0.1 0.47,-0.41 0.92,-0.73 1.44,-1.09 2.62,-1.85 8.98,-8.62 11.42,-11.38 1.33,-1.5 3.45,-4.12 5.52,-4.63 0.91,-0.22 3.18,-0.59 3.27,-1.75l-3.98 1.3c1.07,-0.83 2.22,-2.35 3.29,-3.37 0.75,-0.72 2.84,-2.82 3.25,-3.78 -0.57,0.3 -0.64,0.57 -1.12,1 -1.81,1.63 -3.83,3.03 -5.42,4.89l-2.27 1.92c0.41,-0.62 0.71,-1.27 1.1,-1.91 0.41,-0.68 0.87,-1.24 1.29,-1.92 0.83,-1.38 0.84,-3.46 1.51,-4.91 0.37,-0.82 0.94,-1.01 1.64,-1.57 1.1,-0.87 1.11,-0.49 2.38,-0.11 1.52,0.45 3.75,0.82 5.07,1.32 -0.16,0.81 -0.61,1.04 -1.06,1.63 -1.22,1.59 -2.33,3.46 -3.29,5.16 -2.61,4.64 -4.83,10.25 -7.56,14.74 -0.8,1.31 -4.06,5.9 -4.25,7.01zm18.38 -29.21c-0.4,0.49 0.04,0.31 -0.58,0.44 -1.9,0.39 -0.36,-4.92 2.44,-5 0.43,0.73 1.22,1.78 1.29,2.75 0.08,1.1 -0.79,2.08 -1.3,2.45 -0.91,-0.1 -1.01,-0.5 -1.69,-0.87l-0.16 0.22zm7.42 -2.32c0.43,-0.04 -0.04,-0.01 0.28,-0l5.29 0.44c3.52,0.17 9.09,0.27 12.44,-0.52 1.2,-0.28 1.83,-0.96 1.92,0.35 0.06,0.95 0.15,1.97 0.02,2.94 -2.94,1.19 -6.5,1.69 -10.16,1.74 -2.09,0.03 -9.23,-0.24 -10.81,-0.95 0.05,-0.7 0.45,-1.46 0.85,-2.03 1.53,-0.09 6.49,0.43 10.28,0.27 1.75,-0.07 5.37,-0.37 7.17,-0.74l1.67 -0.37c0.38,-0.14 0.21,-0.09 0.35,-0.18 -5.77,0.39 -9.76,0.96 -15.8,0.41 -2.93,-0.27 -4.1,-0.06 -3.91,-1.28l0.41 -0.09zm-4.57 -2.11c4.53,-0.64 4.47,7.77 -0.54,6.17 0.25,-0.9 0.49,-0.43 1.02,-1.27 0.28,-0.44 0.51,-0.99 0.37,-1.62 -0.1,-0.46 -0.42,-0.86 -0.6,-1.49 -0.16,-0.55 -0.24,-1.11 -0.25,-1.79zm-5.39 3.94c-1.07,-0.07 -4.31,-1.1 -5.21,-1.58 -1.13,-0.59 -0.63,-1.25 -0.28,-2.25 0.3,-0.84 0.33,-1.85 0.76,-2.51l6.48 2.38c-0.47,2.83 -4.62,-0.35 -5.9,0.39 0.77,0.77 3.58,0.98 4.67,1.69l-0.53 1.88zm53.38 -48.51c-0.47,-0.46 -1.02,-1.79 -0.44,-2.47 0.64,-0.76 1.36,-0.02 2,0.37 0.07,1.21 -0.54,2.06 -1.56,2.1zm0.46 -3.15c-0.06,-0.11 -0.22,0.17 -0.13,-0.53 0.07,-0.54 0.51,-0.77 1,-0.86 0.17,0.81 0.19,0.93 -0.1,1.53 -0.66,0.02 -0.28,0.13 -0.77,-0.14zm-3.69 20.42c0.82,1.45 2.16,7.17 3.2,8.34 0.22,-3.26 -2.4,-7.83 -2.47,-9.24 0.67,-0.71 1.27,-1.06 2.17,-2.01 1.2,-1.28 2.46,-3.55 3.07,-5.38 0.59,-1.79 0.34,-1.96 0.88,-3.45l-2.27 -2c-0.53,-0.68 -1.16,-1.7 -1.16,-2.9 1.54,-0.93 1.45,-0.55 2.61,0.27 0.35,0.25 2.14,0.95 2.69,1.2 0.54,0.24 1.09,0.29 1.73,0.21 1.26,-0.16 1.48,-1.24 1.58,-2.31 0.16,-1.55 0.37,-1.13 -0.18,-1.38 -0.33,0.28 -0.29,0.61 -0.41,1.13 -0.32,1.43 -1.2,2.45 -2.42,1.38 -1.32,-1.16 0.63,-3.33 0.94,-4.18 -1.59,0.21 -1.91,2.26 -2.26,3.8 -1.07,-0.14 -2.25,-1.13 -1.98,-2.42 0.14,-0.65 1.18,-1.85 1.5,-2.67 -1.19,0.84 -1.04,1.64 -1.8,2.31 -0.54,-0.65 -0.27,-0.71 -0.18,-1.54 0.08,-0.71 -0.07,-1.09 0.32,-1.69 0.21,-0.33 0.62,-0.8 1.16,-0.74 0.73,0.08 0.77,0.5 1.02,1.01 2.75,0.01 0.3,-0.62 4.09,1.28 0.67,0.33 2.82,1.71 3.06,2.18 0.45,0.88 -0.14,3.63 -0.42,4.65 -0.45,1.65 -0.73,2.41 -1.82,3.46 -0.41,4.51 -0.61,9.22 -1.08,13.79 -0.54,5.31 -1.66,7.3 -4.26,10.56 -1.29,1.62 -1.63,3.37 -4.24,3.21 -3.11,-0.2 -12.66,-5.35 -14.69,-7.45 0.12,-1.05 1.44,-2.23 1.87,-5.18 1.08,-7.33 -1.14,-6.76 2.58,-8.1 0.81,-0.29 1.92,-1.11 2.46,-1.16 0.04,0.01 4.03,3.66 4.08,3.97 -0.29,1.33 -1.06,2.17 -1.27,4.13 -0.14,1.3 -0.12,3.76 0.84,4.26 -0.26,-1.87 -0.25,-6.21 1.06,-7.34zm-25.7 26.42c0.26,-0.89 0.21,-1.59 0.35,-2.47 0.23,-1.5 1.94,-2.73 1.78,-3.51l-1.38 2.18c-0.7,1.29 -1.32,5.42 -2.85,5.93 -0.47,0.16 -1.05,0.12 -1.44,-0.04 0.01,-0.91 0.93,-1.85 1.31,-2.64 -0.14,0.29 -1.47,2.42 -1.79,2.71 -1,0.46 -7.63,-0.22 -9.47,-0.31 -1.59,-0.08 -1.51,0.02 -2.3,-1 -1.82,-2.33 -3.35,-0.41 -5.15,-1.1 -0.48,-0.18 -1.19,-1.46 -1.52,-1.86 -0.38,-0.46 -1.13,-1.22 -1.4,-1.61 0.68,1.36 1.68,2.44 2.38,3.75 -0.9,0.12 -1.26,-0.36 -1.71,-0.89l-2.25 -2.82c-0.4,-0.59 -0.57,-1.12 -1.03,-1.49 0.27,1.93 2.42,3.44 2.84,4.61 -0.87,-0.13 -2.24,-0.9 -3.09,-1.34 -1.38,-0.72 -1.53,-0.87 -2.01,-2.38 -0.71,-2.2 0.82,-1.92 0.82,-7.14 -0,-5.74 -0,-11.49 0,-17.23 0.01,-7.76 0.81,-16.55 8.75,-19.37 0.11,-0.04 0.77,-0.24 0.96,-0.25 0.72,-0.04 2.94,0.79 4.21,1.02 -0.52,-0.65 -1.73,-0.79 -2.58,-0.88l-1.01 -0.29c1.46,-0.91 5.89,-1.91 7.85,-2.48 2.15,-0.63 2.11,-0.92 3.18,0.98 0.45,0.81 1.55,2.48 1.52,3.57l-2.22 -0.19c1.8,1.51 5.85,1.87 8.21,5.31 1.73,2.53 3.41,6.22 3.64,9.89 -0.71,0.4 -1.37,0.95 -2.41,1.49 -2.19,1.13 -6.27,2.79 -8.64,2.97 -0.18,-0.75 -0.96,-2.29 -0.94,-2.77 0.02,-0.64 0.91,-1.83 1.19,-2.52 0.58,-1.41 0.93,-4.77 -0.46,-5.88 0.51,1.88 0.58,2.68 -0.07,4.68l-1.82 3.64c-2.3,-1.34 -5.59,-3.91 -8.34,-4.7 0.3,0.44 0.74,0.66 1.23,1.02 2.25,1.61 8.11,4.73 8.26,6.8 -2.06,1.11 -7.07,1.1 -8.06,3.66 1.01,-0.25 2.36,-1.45 4,-1.51 -0.25,0.68 -0.97,1.14 -1.48,1.95 -0.45,0.71 -0.81,1.44 -1.18,2.13 0.37,-0.24 0.51,-0.65 0.8,-0.98 4.84,-5.55 8.66,-3.32 17.72,-8.3 2.38,-1.31 6.53,-4.22 7.55,-6.48 0.6,-1.34 0.8,-3.94 1.33,-5.6 0.3,-0.93 1.6,-2.88 2.76,-2.42 0.69,0.27 0.41,0.62 0.34,1.36 1.85,-0.17 3.14,-1.26 3.93,-0.07 -0.13,0.47 -0.55,0.38 -0.68,0.9 0.83,0.35 0.08,-0.33 1.14,-0.28 0.56,0.03 0.87,0.37 1.12,0.79 -0.4,0.69 -0.88,0.51 -1.38,1.18 0.97,0.83 2.26,-0.6 2.77,1.49 -0.5,0.49 -0.58,0.18 -0.85,0.88 0.99,1.16 2.35,0.59 0.22,3.35 -1.04,1.35 -1.83,2.23 -3.49,2.93 -3.53,1.51 -1.69,-0.8 -5.4,4.23 -4.63,6.27 -8.48,12.86 -15.02,17.08 -1.59,1.03 -9.23,4.7 -11.53,4.47 -1.08,-0.11 -1.38,-0.74 -1.93,-1.27l-3.9 -4.2c-0.27,-0.33 -0.37,-0.46 -0.68,-0.84 -1.51,-1.81 -2.68,-3.65 -3.84,-5.79 -1.37,-2.51 -3,-6.35 -3.6,-9.08 0.17,2.4 1.4,6.49 2.28,8.71 1.44,3.63 6.21,10.16 9.4,12.56 2.74,2.06 5.18,0.6 8.23,-0.51 2.35,-0.85 5.34,-2.44 7.29,-3.7 2.34,-1.51 4.05,-3.37 5.84,-5.14l1.33 -1.54c1.57,-1.84 7.03,-10.62 8,-11.22 -0.14,2.24 -0.74,6.73 -1.6,8.49 -0.6,1.23 -1.46,2 -2.38,2.69 -1.48,1.12 -1.71,1.51 -3.33,0.56 0.18,0.56 0.2,0.47 0.85,0.6 0.43,0.09 0.8,0.18 1.25,0.29 -0.05,5.15 -2.43,6.55 -3.86,10.69 -0.84,2.43 1.16,2.98 -1.5,5.43 -0.89,0.83 -4.25,1.23 -5.82,1.16 0.1,-0.72 0.51,-1.19 0.75,-2.02zm-0.64 -60.42c-0.58,-0.25 -0.96,0.3 -1.33,-1.7 -0.73,-4 -0.13,-3.76 1.45,-4.09 5.51,-1.18 13.42,-1.26 18.99,-0.14 0.98,0.2 4.05,0.58 4.17,1.72 0.28,2.78 -1.2,3.31 -1.58,4.28 -0.5,1.29 0.26,3.61 0.17,5.27l-1.65 0.21c-0.63,3.56 -1.76,1.7 -4.49,1.87 0.23,0.21 -0.01,0.07 0.36,0.2l1.32 0.14c0.62,0.06 1.18,0.16 1.63,0.38 -0.11,1.17 -0.83,1.19 -1.84,1.61 0.11,0.64 0.36,0.8 0.1,1.46 -0.53,1.33 -2.16,1.62 -3.46,1.16 -3.35,-1.19 -7.89,-3.9 -8.68,-7.52 -0.65,-2.97 0.33,-2.55 -1.25,-2.94 -0.42,-0.11 -0.38,-0.03 -0.76,-0.3 -2.21,-1.61 -1.92,-6.93 0.31,-6.41 1.09,0.25 1.42,1.28 2.15,1.79 -0.16,-1.15 -1.13,-2.3 -2.29,-2.47 -2.23,-0.33 -3.37,3.46 -1.91,6.31 1.32,2.56 1.77,1.21 2.6,2.14 0.23,0.35 0.23,2.54 0.54,3.33 0.91,2.32 3.62,4.57 5.93,5.73 -0.59,1.85 -3.08,3.81 -3.09,6.83 0.5,-0.32 1.73,-2.86 2.06,-3.44 0.54,0.24 0.38,0.3 0.86,0.66l2.59 1.63c0,0.38 -0.77,2.72 -0.91,3.63 -0.1,0.62 -0.14,1.47 -0.32,2.03 -0.22,0.69 -0.54,0.79 -0.91,1.45 -0.81,1.46 -1.08,1.37 -2.44,2.29 -0.87,0.59 -1.86,1.61 -2.96,1.84 -0.24,-8.02 -3.92,-11.33 -4.15,-12.38 -0.59,-2.68 -1.03,-3.91 -1.39,-6.74 -0.03,-0.25 -0.05,-0.5 -0.11,-0.73 -0.16,-0.59 0.21,0.57 -0.09,-0.25 -0.01,-0.03 -0.05,-0.05 -0.06,-0.12 -0.01,-0.06 -0.04,-0.08 -0.06,-0.11 -0.02,4.11 1.2,6.53 1.31,8.06 -0.77,-0.32 -1.42,-0.95 -2.35,-1.41 -3.35,-1.65 -2.24,-0.94 -2.96,-2.62 -0.44,-1.02 -1.32,-1.45 -1.84,-3.65 1.41,-1.69 2.76,-1.2 5.1,-6.49l1.25 -2.46zm-12.8 -4.72c0.58,-0.05 3.75,1.45 6.98,-1.1 0.7,-0.55 1.36,-1.94 2.52,-2.05 1.18,-0.11 -0.07,2.12 -0.4,2.65 -1.44,2.27 -1.14,3.96 -3.14,5.98 -2.56,2.57 -6.22,2.09 -6.72,1.21 1.82,-0.54 3.17,-0.81 4.51,-1.9 0.86,-0.7 0.93,-0.98 1.59,-1.62 0.58,-0.56 1.22,-0.6 1.36,-1.63 -1.59,0.63 -1.73,1.37 -4.12,0.87 -1.24,-0.26 -2.66,-1.2 -2.59,-2.43zm10.87 -1.62c-0.11,-2.65 0.28,-2.68 1.46,-3.08 4.13,-1.39 7.62,-1.76 12.12,-1.75 4.07,0.01 8.04,0.62 11.67,2.21 0.75,0.33 0.99,0.39 1,1.35 0,0.63 -0.05,1.38 -0.21,1.97 -1.34,-0.27 -2.79,-0.98 -5.91,-1.56 -4.24,-0.79 -9.71,-0.73 -13.99,-0.26 -1.63,0.18 -5.19,1.14 -6.13,1.12zm0.79 -4.09c0.48,-1.16 1.96,-3.49 3.41,-3.87 1.81,-0.47 0.38,-0.04 1.65,-0.71 4.88,-2.6 20.28,-1.99 20.36,5.33 -0.81,-0.22 -1.68,-0.72 -2.57,-1.04 -2.75,-1.01 -6.77,-1.47 -9.7,-1.54 -7.45,-0.18 -11.54,1.74 -13.14,1.83zm-1.48 1.4c-1.57,0.29 -1.33,-0.35 -2.68,0.86 -1.72,1.55 -1.73,2.54 -4.5,2.65 -1.4,0.06 -2.31,-0.42 -3.35,-0.34 -1.13,1.23 -0.76,2.39 0.29,3.33 0.42,0.38 0.94,0.74 1.6,0.93 0.66,0.19 1.8,-0 2.31,0.47 -3.27,2.14 -4.94,1.61 -6.85,2.55 0.21,1.59 4.68,3.56 8.6,1.18 4.17,-2.52 3.07,-6.71 4.64,-7.54 -0.11,5.55 1.79,3.89 -0.99,9 -1.63,2.99 -3.06,3.47 -6.98,4.51 -7.15,1.91 -11.8,2.88 -15.08,7.89 -3.51,5.36 -3.16,12.5 -3.11,19.68 0.02,3.55 0.52,13.67 -0.5,16.75 -0.25,0.75 -0.62,1.41 -0.55,2.33 0.07,0.96 0.55,1.29 0.74,2.2 -0.32,0.57 -0.49,0.52 -0.86,1.21 -1.37,2.56 -1.01,5.01 -1.03,5.05 -1.44,1.24 -2.49,1.09 -3.25,3.18 -0.67,1.85 -0.7,3.12 -1.7,4.89l-2.91 5.2c-0.56,1.65 0.74,0.02 -2.11,2.95 -0.48,0.5 -1.15,1.07 -1.6,1.6l-10.72 10.73c-0.57,0.46 -0.6,0.22 -0.87,0.87 2.48,0.41 3.73,0.61 6.23,0.06 -0.27,0.79 -10.15,15 -10.69,15.71l-7.6 9.97c-1.27,1.65 -2.32,3.33 -3.64,5.14 -0.88,1.21 -4.86,6.61 -5.16,8.03 -0.33,1.6 0.76,2.28 1.31,3.12 -0.51,1.76 -1.82,3.89 -2.81,5.35 -1.89,2.79 -7.08,7.13 -7.83,8.55 -3.16,6.04 14.61,4.66 18.01,2.81 2.67,-1.46 1.23,-3 0.86,-5.91 -0.29,-2.28 0.29,-5.12 1.53,-6.44 0.87,-0.05 1.7,0.21 2.54,0.27 2.64,0.18 5.5,0.25 7.97,-0.55 1.66,-0.54 2.07,-1.6 2.92,-2.81l7.17 -10.23c1.59,-2.26 3.29,-4.48 4.81,-6.85 1.34,-2.09 3.46,-4.5 5.03,-6.46 2.34,-2.92 5.18,-7.02 8,-9.4l2.95 -2.79c1.96,-1.82 4.34,-3.61 6.72,-4.93 3.65,-2.02 4.82,-1.85 9.14,-0.64 9.31,2.63 18.26,6.73 26.74,10.94 1.37,0.68 1.82,1.95 2.56,3.19 0.36,0.6 0.75,1.13 1.1,1.77 2.38,4.3 9.19,22.85 10.34,24.43l6.36 0.41c0.74,3.64 -1.63,5.03 -1.18,8.42 0.66,4.97 8.09,2.66 11.36,2.88 4.55,0.31 2.46,1.89 13.52,1.44 1.34,-0.05 3.07,-0.15 4.26,-0.56 0.98,-0.34 2.52,-1.62 1.5,-2.94 -0.54,-0.69 -5.91,-2.13 -7.27,-2.7 -2.26,-0.95 -4.38,-2.46 -6.27,-3.7 -0.98,-0.64 -2.04,-1.22 -3,-1.9 -0.74,-0.53 -1.4,-2.34 -1.59,-3.51 0.93,-0.87 2.29,-1.08 3.22,-2.2 -0.18,-1.15 -5.12,-16.05 -5.6,-17.52 -4.38,-13.33 -2.5,-15.17 -11.94,-22.69l-3.13 -2.61c-2.7,-2.39 -11.93,-9.24 -15.23,-10.96 -1.55,-0.81 -1.01,-0.11 -0.87,-1.86 -1.99,-0.77 -4.26,-2.4 -6.08,-3.51 -2.83,-1.74 -2.25,-3.49 -4.72,-4.89 -0.02,-0.95 0.18,-1.64 0.09,-2.83 -0.09,-1.2 -0.45,-1.64 -0.57,-2.38 1.3,-1.66 1.81,-1.21 1.52,-4.28 -0.14,-1.51 0.9,-3.3 1.5,-4.46 1.34,-2.59 1.74,-3.93 2.62,-6.51 0.3,-0.89 0.73,-1.46 0.98,-2.21 0.82,0.21 0.59,0.28 1.19,0.79 2.74,2.36 11.6,6.97 14.77,6.94 2.65,-0.02 3.89,-1.73 4.93,-3.1 2.31,-3.04 4.09,-6.17 4.7,-11.02 0.34,-2.68 0.57,-13.05 1.34,-14.53 1.14,-2.19 1.51,-2.96 1.96,-5.82 0.63,-4.03 -2.18,-4.9 -5.03,-6.3 -0.56,-0.27 -0.72,-0.53 -1.08,-0.78 -0.79,-0.54 -0.64,0.01 -1.46,-0.24 -2.32,-0.69 -1.15,-1.77 -3.91,0.24 -0.38,0.28 -0.9,0.53 -1.23,0.79 -0.66,0.51 -1.08,1.59 -1.58,2.3 -0.94,1.33 -0.73,1.16 -0.29,2.87 0.58,2.32 1.4,3.91 2.76,5.16 1.03,0.95 1.18,0.97 0.73,2.76 -0.47,1.85 -1.51,3.82 -2.66,5.28l-2.03 2.02c-0.64,-0.26 -3.28,-2.68 -3.68,-3.23 0.52,-1.23 3.09,-2.71 2.48,-5.19 -0.33,-1.32 -0.38,-0.75 -0.36,-2.4 -0.37,-0.38 -0.78,-0.81 -1.08,-1.24 -0.62,-0.87 -0.13,-1.11 -0.63,-1.74 -0.3,-0.39 -1.05,-0.49 -1.49,-0.87 -0.44,-0.38 -0.56,-0.77 -1.29,-1.09 -1.27,-0.54 -1.11,0.13 -2.05,0.04 -0.56,-0.05 -0.93,-0.61 -1.54,-0.83 -1.54,-0.57 -2.53,0.65 -3.16,1.33l-3.7 -2.02 1.09 -1.85 3.52 0.92c1.52,0.29 2.39,-0.32 3.11,-1.27 0.5,-0.67 0.35,-0.9 0.55,-1.66 0.22,-0.86 0.58,-0.51 1.09,-1.09 0.54,-0.6 0.13,-0.85 0.81,-1.39 0.4,-0.31 0.38,-0.05 0.62,-0.54 0.16,-0.31 0.09,-0.56 0.25,-0.94 0.68,-0.87 1.73,-0.35 1.89,-1.68 0.11,-0.87 -0.24,-2.5 -0.24,-3.52 0.01,-1.43 0.64,-1.31 1.14,-2.49 0.52,-1.2 0.37,-1.97 0.41,-3.33 1.6,-0.78 1.16,-3.8 1.12,-5.49 -0.14,-5.71 -7.35,-7.65 -12.4,-7.92 -4.03,-0.22 -7.96,0.52 -11.16,2.15 -0.5,0.25 -1.91,1.23 -2.11,1.28 -0.43,0.09 -2.13,-0.98 -1.1,0.62 0.3,0.46 0.32,0.24 -0.01,0.95 -0.43,0.95 -1.04,3.22 -1.41,3.69z"/>
 </g>
</svg>
