<?xml version="1.0" encoding="UTF-8"?>
<!DOCTYPE svg PUBLIC "-//W3C//DTD SVG 1.1//EN" "http://www.w3.org/Graphics/SVG/1.1/DTD/svg11.dtd">
<!-- Creator: CorelDRAW -->
<svg xmlns="http://www.w3.org/2000/svg" xml:space="preserve" width="6.99163in" height="7.70654in" version="1.1" style="shape-rendering:geometricPrecision; text-rendering:geometricPrecision; image-rendering:optimizeQuality; fill-rule:evenodd; clip-rule:evenodd"
viewBox="0 0 635.56 700.54"
 xmlns:xlink="http://www.w3.org/1999/xlink"
 xmlns:xodm="http://www.corel.com/coreldraw/odm/2003">
 <defs>
  <style type="text/css">
   <![CDATA[
    .fil0 {fill:#020202}
   ]]>
  </style>
 </defs>
 <g id="Layer_x0020_1">
  <metadata id="CorelCorpID_0Corel-Layer"/>
  <path class="fil0" d="M532.88 640.88c1.66,-0.97 19.16,-8.06 21.02,-8.73 11.13,10.26 2.03,11.14 32.48,34.33 19.41,14.79 39.68,18.99 42.04,25.33 -9.45,2.66 -23.77,3.47 -34.71,1.32 -10.7,-2.1 -18.8,-7.8 -29.64,-8.57 -11.76,-0.84 -26.27,3.94 -26.75,-10.76 -0.66,-20.45 2.98,-14.12 -4.44,-32.92zm-159.34 -251.43l-2.6 2.35c5.69,-0.77 1.17,0.3 2.6,-2.35 0.8,-0.31 2.51,-0.97 3.18,-1.44 2.03,-1.44 0.97,-0.91 1.93,-2.18 6.39,-1.54 2.59,-1.08 3.64,-2.66l7.44 -3.2c21.67,18.99 69.98,91.71 86.64,116.21 25.09,36.91 36.85,57.1 59.3,93.49 4.76,7.72 15.53,25.29 18.4,34.03 -9.35,4.93 -14.93,8.96 -28.72,11.23 -6.93,1.14 -12.49,1.28 -19.47,0.76 -9.82,-0.73 -9.78,0.78 -13.85,-6.15 -33.18,-56.5 -52.06,-89.81 -97.77,-134.58l-4.06 -5.21c-3.86,-1.47 -2.98,-0.72 -4.99,-3.66 9.3,1.94 3.52,0.53 4.99,3.66 4.68,0.37 18.74,9.76 24.21,12.87 7.56,4.3 17.64,9.24 25.31,13.04l-0.28 -0.73c-10.45,-7.94 -57.32,-35.82 -78.6,-50.89 -8.16,-5.78 -19.43,-10.24 -27.44,-15.76 20.69,-1.34 28.85,0.25 47.1,4.56l-0.06 -1.23c-44.25,-13.06 -68.58,-11.7 -109.13,15.21l-84.3 55.53 0.39 1.41 47.87 -26.73c-5.02,4.96 -8.67,9 -13.39,13.82 -5.63,5.77 -8.4,10.06 -13.02,16.01 -22.18,28.58 -49.21,72.93 -66.41,105.08 -21.72,0.82 -44.57,-1 -58.16,-13.79 3.23,-9.44 27.95,-49.85 35.09,-63.37 12.77,-24.15 62.21,-91.82 80.25,-116.71l31.83 -42.67c4.22,-5.28 6.36,-11.98 14.62,-10.56 -1.6,-15.21 7.09,-21.52 10.74,-29.8 12.74,3.1 23.33,15.15 54.88,13.25 -5.14,-3.16 -21.18,-4.9 -28.29,-7.38 -9.51,-3.31 -17.52,-7.02 -23.73,-12.96 -1.11,-2.48 10.17,-36.4 10.58,-36.96 1.7,5.07 5.01,10.36 8.35,13.9 -3.16,-14.11 -8,-5.3 -10.29,-37.57 -2.43,-34.33 -7.13,-48.22 -16.4,-79.21 -1.32,-4.42 -1.3,-30.54 -9.71,-37.73 -1.13,-2.72 -0.08,-0.71 -1.45,-2.96 -0.12,-0.2 -0.59,-0.3 -0.69,-0.8 -0.1,-0.5 -0.51,-0.49 -0.75,-0.75 0.84,2.9 0.09,0.99 1.34,3.1l1.56 1.41c1.85,10.92 7.66,18.48 7.84,32.47 -0.27,-0.2 -0.66,-0.88 -0.78,-0.65l-18.97 -20.5c-3.68,-3.86 -6.79,-6.03 -10.47,-9.74 -3.85,-3.88 -6.1,-6.78 -9.95,-10.23l-30.77 -29.82c-4.1,-3.88 -6.86,-4.73 -10.91,-9.3 -16.34,-18.47 -21.21,-25.96 -35.37,-45.43l-20.73 -29.77c-3.7,-4.6 -10.87,-7.72 -11.77,-20.04 12.37,-0.09 11.56,-1.28 15.28,3.33 3.48,-6.78 5.74,-4.26 11.71,-7.14 6.6,-3.18 2.3,-8.66 0.91,-12.87l-1.35 7.36 -6.48 0.59c-5.26,1.97 -3.15,1.68 -13.34,1.02l-5.14 -8.81c3.38,-2.52 17.05,-4.7 22.86,-3.6 0.32,0.06 1.16,0.31 1.47,0.32 0.19,0.01 0.55,0.03 0.74,0.01 3.93,-0.29 -1.17,-0.68 5.7,-1.9 13.4,16.37 0.26,24.83 -1.75,30.38 -2.35,6.48 13.66,20.91 17.47,25.49l35.31 32.88c9.46,7.62 1.09,4.84 23.92,21.54l25.59 19.87c6.16,5.4 6.08,4.34 15.26,7.47 37.07,12.63 35.16,26.35 59.5,31.72l-4.72 -3.15c-4.47,-2.42 -10.69,-4.74 -14.11,-8.26 6.24,-2.63 10.32,0.21 11.01,-10.08 0.71,-10.55 1.84,-9.84 -2.36,-16.6 -1.62,-2.61 -2.02,-3.68 -3.51,-6.61 -2.85,-5.61 -12.57,-10.26 -9.87,-21.7 1.23,-5.24 1.77,0.24 2.49,-8.07 0.85,-9.84 -2.11,-15.16 4.96,-27.26 10.49,-17.96 46.57,-18.45 56.58,4.14 3.04,6.87 5.15,31.31 3.28,37.93 -2.44,8.63 -9.3,22.05 -15.5,27.54 -12.64,11.2 -23.47,5.54 -33.55,0.61 12.47,19.49 30.11,5.5 35.27,3.42 0.22,9.42 -0.06,11.07 5.6,15.42 -0.26,0.21 -0.67,0.18 -0.8,0.6 -0.67,2.16 -15.38,6.45 -17.29,10.38 24.39,-5.83 33.36,-18.57 62.96,-28.73 13.45,-4.61 19.42,-9.21 28.67,-16.8 7.05,-5.78 21.77,-13.97 27.11,-19.61 8.35,-8.84 14.39,-14.73 23.14,-22.31 4.81,-4.17 7.75,-6.75 12.1,-10.64 5.39,-4.82 31.77,-31.21 30.69,-37.29 -0.84,-4.73 -6.46,-7.85 -7.54,-14.82 -1.24,-7.99 1.11,-13.22 5.86,-17.19 7.3,-0.03 1.49,1.8 7.13,1.34 7.17,-0.58 9.1,-1.36 19.43,1.97 0.33,0.11 0.68,0.2 1,0.31l2.98 1.27 -3 5.01c-4.67,1.29 -3.24,0.21 -4.68,5.4 -3.24,-0.04 -4.78,-0.6 -5.4,-0.57 -3.1,0.13 -0.29,1.19 -4.13,0.44 -0.19,-0.04 -0.55,-0.18 -0.76,-0.23l-8.25 -1.73 0.3 -6.92c-1.94,3.18 -3.51,5.25 -3.09,9.82 8.87,4.49 8.52,2.57 14.88,10.13 0.18,-0.34 0.97,-2.26 1.04,-2.38 1.17,-2.09 0.17,-0.75 1.49,-2.25l13.24 0.18c-0.88,10.88 -10.12,16.63 -15.64,24.9 -11.29,16.93 -40.66,57.77 -53.67,71.35 -3.71,3.87 -6.87,4.92 -10.96,9.23 -11.2,11.81 -37.11,34.14 -42.88,40.42 -7.23,7.87 -18.21,13.49 -29.74,32.5 1.06,-14.06 9.63,-29.55 14.35,-40.9 -5.87,6.25 -8.84,9.76 -12.64,19.56 -10.13,26.13 -5.66,21.61 -6.3,33l-5.02 21.41c-2.09,9.68 -3.67,18.46 -5.31,28.56 -1.76,10.88 -1.58,18.92 -5.88,27.06 -14.97,28.37 -23.22,38.7 -51.3,50.25 30.46,-0.96 41.69,-25.79 51.03,-42.94l2.97 -3.85c0.62,36.43 7.29,40.16 7.39,49.46 -5.67,3.21 -9.63,6.41 -15.65,9.67 -5.79,3.14 -13.78,4.99 -18.59,8.22 12.77,-1.41 24.12,-6.79 34.35,-11.3 6.08,4.81 12.43,16.09 10.37,21.85 -0.49,1.37 -1.6,2.44 -2.51,3.53l-2.72 3.42c-2.23,0.68 -0.92,0.07 -2.67,1.24 -0.14,0.09 -0.44,0.89 -0.54,0.67 -0.1,-0.21 -0.28,0.51 -0.43,0.75 -1.97,0.73 -2.05,0.57 -3.56,1.67 -1.49,1.08 -1.01,1.18 -1.55,1.95zm-11.66 11.66l3.73 -2.16c0.17,-0.52 0.49,-0.63 0.75,-0.94 -2.89,1.08 -1.06,0.2 -3.2,1.58 -0.2,0.13 -0.55,0.96 -0.69,0.73 -0.14,-0.23 -0.38,0.53 -0.58,0.79 -6.42,1.96 -19.37,9.79 -28.14,13.3 -22.59,9.04 -35.97,14.56 -60.2,21.85l-31.47 8.67c32.69,0.64 84.57,-19.74 114.44,-39.33l5.37 -4.49zm-178.41 -288.46c-1.87,-4.76 -1.29,-4.89 -6.07,-5.9 1.13,2.91 0.61,2.12 2.81,4 1.48,1.27 1.62,1.21 3.25,1.91zm-95.44 547.17l3.55 -8.98c-4.67,2.02 -5.04,6.05 -3.55,8.98zm460.37 3.33c-1.9,-6.07 -0.25,-6.08 -4.89,-9.59 0.87,3.76 1.55,8.1 4.89,9.59zm-268.68 -335.99c1.02,1.82 0.42,8.01 12.74,9.3l-12.74 -9.3zm-271.66 361.7c2.41,-3.62 6.29,-5.09 9.89,-6.96l31.69 -20.05c25.18,-18.1 23.7,-26.4 32.65,-35.52 8.56,4 5.56,5.04 21.91,9.67 -1.75,4.3 -4.93,7.34 -6.08,12.64 -1.4,6.45 0.32,13.46 0.1,20.09 -0.48,14.67 -11.6,13.62 -24.93,13.05 -12,-0.51 -20.03,4.56 -30.57,7.13 -4.83,1.17 -11.33,2.01 -16.57,2.14 -7.21,0.17 -11.95,0.25 -16.2,-1.3l-1.9 -0.88zm129.26 -650.21l5.82 -10.72c115.96,1.65 237.35,-0.57 353.96,0.28l6.97 10.79 -24.32 26.49c-22.54,20.77 -60.29,58.03 -86.37,70.18 -7.52,3.5 -16.77,6.36 -24.39,9.72 -4.42,1.95 -7.71,3.58 -11.46,6.19 -17.39,12.07 -15.29,-5.87 -10.69,-11.95 4.03,-5.32 3.83,-8.76 6.93,-13.27 8.38,-12.21 4.27,-18.57 4.03,-33.42 -0.39,-24.43 -15.28,-39.16 -39.98,-38.84 -26.66,0.35 -36.94,16.56 -37.23,42.7 -0.05,5.04 -6.38,17.3 2.12,29.99 2.07,3.08 3.59,3.12 5.24,4.86 4,4.25 7.24,14.88 5.53,24.1 -8.71,1.69 -16.5,-6.22 -23.12,-10.3 -7.83,-4.83 -15.28,-6.32 -23.91,-10.18 -12.99,-5.81 -28.66,-19.84 -39.98,-28.19 -7.42,-5.47 -10.74,-10.99 -17.38,-16.72 -13.42,-11.56 -46.14,-39.44 -51.78,-51.71zm398.7 -22.77c3.58,-0.88 86.76,-1.73 91.07,1.31 -0.32,6.87 -3.26,4.62 -20.15,4.72 -16.35,0.09 -62.55,0.99 -73.05,-0.3l2.12 -5.72zm-389.73 5.31c-3.52,-1.33 -1.42,1.03 -2.85,-2.74 2.18,-2.75 -0.64,-1.84 3.88,-2.85l342.32 0.17c9.15,0.09 7.5,1.15 8.31,2.68 -1.82,3.68 -0.09,2.01 -4.51,3.03l-347.16 -0.29zm-113.79 0.43c-6.53,-0.02 -18.19,2.43 -21.91,-3.16 4.95,-3.83 2.47,-3 10.49,-2.84l63.18 -0.05c16.27,-0.08 17.49,-2.12 20.16,5.49 -13.07,1.36 -54.31,0.61 -71.93,0.56zm77.71 -19.22c-5.38,2.42 -10.04,-0.92 -14.21,7.35l-74.87 -0.31c-8.61,-0.04 -16.21,-0.36 -17.26,8.06 -2.02,16.36 26.41,10.77 38.73,10.79 16.7,0.03 33.86,-0.43 50.5,0.09 1.13,1.62 0.13,-0.36 1.34,2.69 8.04,20.18 4.16,7.71 13.29,20.75 15.64,22.36 30.7,46.19 48.05,66.84 8.61,10.26 53.93,53.21 67.04,65.49 19.99,18.73 26.23,31.82 33.14,62.75 15.13,67.72 0.27,74.74 -2.93,99.67 -1.03,8.04 -6.23,6.47 -12.54,25.06 -2.36,6.94 -2.91,7.63 -7.2,11.76 -6.76,6.49 -20.35,24.21 -25.94,32.11 -53.84,76.26 -68.85,88.93 -121.53,184.01 -2.31,4.16 -4.43,7.88 -6.76,12.16 -7.51,13.75 7.95,3.71 -21.96,34.88 -4.53,4.72 -15.21,12.93 -21.18,16.7 -8.13,5.14 -33.34,17.65 -35.27,22.85 -6.12,16.51 34.22,10.84 41.1,9.49 11.14,-2.19 19.71,-6.95 31.12,-7.16 6.31,-0.12 11.99,0.57 17.87,-0.65 8.94,-1.86 7.7,-4.96 12.53,-6.94 2.05,-10.84 1.87,-10.77 1.11,-22.27 -0.89,-13.45 2.96,-11.77 5.98,-20.38 7.58,0.96 15.4,1.98 23.19,1.71 18.81,-0.64 14.05,-3.92 35.76,-40.23 28.29,-47.31 67.06,-106.75 115.53,-133.19 34.06,-18.58 38.11,-19.09 68.26,1.51 18.04,12.32 42.85,37.26 58.01,54.34 29.59,33.33 52.34,72.64 75.12,111.77 8.26,14.19 19.03,6.81 39.54,8.37 11.42,23.92 1.4,18.13 5.97,40.43 1.98,1.77 2.86,4.68 7.72,6.48 3.93,1.46 9.8,1.76 14.44,1.7 15.34,-0.19 15.35,1.49 27.93,5.33 15.69,4.8 42.31,7.14 53.72,-2.85 0.67,-12.11 -7.56,-9.02 -13.45,-14.95 -16.6,-4.58 -38.68,-21.53 -50.48,-33.94 -3.22,-3.38 -8.13,-12.28 -11.47,-14.75 2.09,-5.26 4.21,-4.85 0.74,-11.07 -15.78,-28.28 -46.06,-80.42 -62.67,-104.07l-102.35 -138.84c-3.79,-6.02 -0.8,-11.66 -9.38,-20.99 -8.85,-9.62 1.79,3.42 -5.86,-20.57 -9.44,-29.6 -1.19,-76.4 6.84,-104.91 9.74,-34.6 17.26,-31.79 37.71,-53.18 5.65,-5.91 9.35,-8.66 15.12,-13.95l58.88 -62.32 48.43 -71.71c15.87,-0.37 32.07,-0.06 47.98,-0.08 10.87,-0.01 38.82,5.51 38.21,-9.76 -0.57,-14.19 -27.93,-9.17 -39.47,-9.15 -15.98,0.03 -32,-0.09 -47.98,0.09 -3.55,-3.53 -4.35,-4.96 -11.2,-6.3 -4.42,-0.86 -9.59,-1.79 -14.25,-2.25 -15.32,-1.52 -14.76,-2.27 -22.53,8.6l-356.4 0.16c-4.46,-12.75 -17.42,-10.17 -31.77,-7.25z"/>
 </g>
</svg>
