<?xml version="1.0" encoding="UTF-8"?>
<!DOCTYPE svg PUBLIC "-//W3C//DTD SVG 1.1//EN" "http://www.w3.org/Graphics/SVG/1.1/DTD/svg11.dtd">
<!-- Creator: CorelDRAW -->
<svg xmlns="http://www.w3.org/2000/svg" xml:space="preserve" width="7.75424in" height="7.57347in" version="1.1" style="shape-rendering:geometricPrecision; text-rendering:geometricPrecision; image-rendering:optimizeQuality; fill-rule:evenodd; clip-rule:evenodd"
viewBox="0 0 636.34 621.51"
 xmlns:xlink="http://www.w3.org/1999/xlink"
 xmlns:xodm="http://www.corel.com/coreldraw/odm/2003">
 <defs>
  <style type="text/css">
   <![CDATA[
    .fil0 {fill:#161616}
   ]]>
  </style>
 </defs>
 <g id="Layer_x0020_1">
  <metadata id="CorelCorpID_0Corel-Layer"/>
  <path class="fil0" d="M249.42 439.81c4.04,-0.87 16.62,-10.71 21.22,-13.7 6.89,-4.48 14.46,-8.57 22.68,-12.94 3.87,-1.93 7.05,-2.39 9.67,-5.19 6.27,-0.14 15.09,-4.23 24.31,-4.98l15.69 -0.28 3.83 -0.42c-1.62,1.27 -0.22,0.58 -2.83,1.39 -1.39,0.43 -1.79,0.42 -3.25,0.57 -5.15,0.53 -7.93,-0.74 -13.33,1.31l-1.8 1.05c24.56,6.25 74.01,49.47 92.65,70.17 3.32,3.69 7.09,6.52 10.1,10.39 21.22,27.2 31.51,42.39 49.95,72.01l8.14 11.57c10.53,2.62 23.56,0.99 34.38,-0.33 9.11,19.76 2.28,16.8 4.2,36.31 11.88,14.58 12.59,0.58 46.17,11.12 9.08,2.85 15.83,3.81 25.99,3.64 16.49,-0.28 19.36,-3.96 23.79,-4.5 0.45,-7.01 -2.17,-7.15 -8.47,-9.72 -4.09,-1.66 -7.64,-2.78 -11.56,-4.34 -7.84,-3.12 -14.77,-7.1 -20.95,-10.95 -23,-14.33 -20.88,-17.92 -33.07,-31l5.76 -5.54c-4.98,-15.22 -67.29,-99.85 -76.78,-112.39 -10.11,-13.36 -50.99,-64.84 -63.36,-77.97l-11.02 -12.92c-4.71,-6.16 -4.76,-6.67 -12.64,-10.42 1.59,-8.49 -5.01,-15.07 -9.57,-18.75 -5.01,-4.04 -14.19,0.96 -20.37,3.59 -3.07,0.1 -2.47,0.95 -2.47,-1.82 7.22,0.19 17.38,-6.69 21.94,-9.48 -0.19,-4.29 -3.21,-13.84 -6.15,-17.52l-1.77 -9.04c-2.06,-29.42 4.19,-69.9 14.29,-94.98 8.99,-22.33 49.26,-48.32 68.14,-67.47 4.38,-4.44 9.33,-8.17 14.49,-12.89 10.28,-9.41 29.17,-31.56 37.96,-42.99 8.21,-10.68 15.35,-21.38 24.56,-30.14 6.77,-6.45 4.96,-10.04 9.12,-16.99l78.65 -0.12c8.15,-0.01 19.22,2.01 18.63,-7.92 -0.54,-9.12 -11.41,-7.04 -19.77,-7.02l-77.5 -0.15c-5.52,-4.77 -0.71,-3.97 -10.1,-5.34 -42.67,-6.24 -25.41,2.97 -34.36,5.37 -112.48,0.81 -225.84,-0.11 -338.51,0.11 -20.05,0.04 -11.88,0.33 -17.63,-4.25 -1.06,-2.93 2.57,-0.29 -2.4,-3 -3.08,-1.68 -10.03,-0.76 -13.94,-0.3 -35.23,4.14 -10.68,7.39 -33.27,7.42 -6.46,0.01 -12.92,0.14 -19.39,0.14 -13.3,-0.01 -26.59,-0.05 -39.89,-0.03 -13.24,0.02 -30.59,-4.63 -29.51,10.63 7.31,6.52 10.24,4.37 21.54,4.34 20,-0.05 61.78,-0.99 77.5,0.38 6.46,13.56 1.8,10.43 13.07,20.73l22.17 29.09c0.13,0.13 0.42,0.38 0.54,0.5 0.12,0.11 0.46,0.35 0.55,0.43l1.13 0.75c1.51,3.83 4.47,6.64 6.91,9.74l21.21 24.38 31.93 27.67c2.57,4.57 18.13,16.4 22.15,19.72 4.69,3.88 18.46,18.13 22.01,19.78l1.99 2.87c6.68,8.33 8.74,12.38 12.27,23.17 5.92,18.05 5.67,28.62 8.41,33.14 -1.31,6.54 1.55,19.08 1.79,26.97 0.32,10.65 -1.31,18.81 -1.44,28.52 3.02,1.75 3.28,3.26 6.64,5.34 2.43,1.51 5.87,2.89 8.58,3.97 6.85,2.74 12.32,4.17 20.62,5.4l-7.91 -0.08 -29.28 -5.1c-2.75,3.9 -6.6,10.85 -7.04,16.53 17.16,11.1 25.81,10.39 46.47,16.03l-17.21 -0.72c-2.08,-1.53 -27.3,-7.82 -30.87,-8.17 -14.77,15.97 -8.81,15.61 -15.22,21.92 -4.84,4.77 -14.72,14.78 -17.27,20.83 -4.91,2.5 -19.38,21.82 -23.1,26.59 -5.49,7.03 -5.51,5.04 -6.25,9.18 -3.29,2.15 -2.42,1.63 -4.85,4.81 -1.29,1.69 -2.3,2.76 -3.57,4.37l-49.44 64.55c-7.89,10.72 -47.56,70.21 -51.27,79.22l4.67 4.34c-1.21,2.59 -2.02,3.34 -3.22,6.31 -0.72,0.4 -0.28,-0.28 -2.33,1.64 -1.52,1.42 -0.78,0.67 -2.05,2.45 -1.32,1.86 -2.06,3.21 -2.74,4.9 -4.71,2.19 -7.37,5.37 -12.13,8.73 -5.21,3.68 -7.07,5.48 -12.62,7.68 -4.98,6.35 -33.61,15.56 -38.94,20.33l0.28 5.05c11.38,6.7 31.81,4 44.96,0.56 7.44,-1.95 15.2,-4.59 23.31,-4.55 4.54,0.02 8.8,0.47 13.42,0.12l9.75 -3.34c3.55,-1.04 1.66,-1.52 3.93,-2.01 1.3,-7.17 0.13,-22.92 -0.07,-30.56l5.19 -7.79c34.97,4.51 33.1,4.14 41.25,-9.01 3.32,-5.36 6.91,-11.19 10.58,-16.76 3.12,-4.73 8.93,-12.55 10.73,-17.21l37.48 -49.73c5.56,-6.62 24.12,-24.1 26.32,-29.22 -5.83,2.57 -22.79,12.11 -29.46,15.9 0.68,-1.03 0.31,-1.01 2.21,-2.43 0.78,-0.58 1.32,-0.74 2.16,-1.22 7.52,-4.31 31.43,-15.73 33.95,-20.01zm-81.61 -370.66c-0.77,-2.37 -18.32,-18.13 -22.03,-22.01 -8.69,-9.06 -16.77,-12.33 -3.38,-24.03l353.56 0.05c1.46,4.6 4.46,7.05 6.68,11.41 -2.31,4.31 -13.11,15.66 -16.63,18.77 -4.02,3.55 -5.56,4.48 -9.67,8.56 -17.23,17.12 -72.63,56.43 -92.17,63.93 -20.95,8.05 -17.45,5.9 -35.53,16.93 -3.45,2.11 -8.4,3.29 -10.97,6.27l-11.87 2.79c5.71,-3.57 9.47,-5.35 14.52,-9.27 -0.95,-2.55 -1.68,-2.9 -3.02,-5.42 -0.16,-10.31 0.39,-7.46 4.61,-13.64 2.5,-3.66 3.39,-6.94 6.05,-11.06 7.05,-10.93 3.63,-16.07 3.7,-28.92 0.1,-20.58 -11.09,-33.38 -30.57,-35 -20.44,-1.69 -36.19,10.71 -37.35,29.3 -0.19,3.03 0.12,6.37 -0.1,9.17 -0.71,9.09 -4.54,2.81 0.66,18.77 1.41,4.33 5.47,8.24 9.79,15.45l2.84 3.38c0.02,8.89 1.17,19.42 -10.48,17.7 -6.96,-1.03 -12.19,-8.43 -19.05,-9.16 -3.63,-4.28 -11.05,-5.88 -17.15,-8.16 -4.14,-1.55 -14.08,-6.53 -16.46,-6.85 -0.21,-0.23 -0.5,-0.53 -0.65,-0.67l-3.93 -3.34c-1.53,-1.09 -2.25,-1.5 -4.12,-2.68 -15.67,-9.9 -54.49,-41.1 -57.26,-42.3zm240.19 380.24c-3.46,-0.83 -6.42,-1.03 -9.33,-2.42 -2.16,-1.03 -5.94,-3.68 -7.07,-6.02l16.39 8.44z"/>
 </g>
</svg>
