<?xml version="1.0" encoding="UTF-8"?>
<!DOCTYPE svg PUBLIC "-//W3C//DTD SVG 1.1//EN" "http://www.w3.org/Graphics/SVG/1.1/DTD/svg11.dtd">
<!-- Creator: CorelDRAW -->
<svg xmlns="http://www.w3.org/2000/svg" xml:space="preserve" width="8.26225in" height="6.65719in" version="1.1" style="shape-rendering:geometricPrecision; text-rendering:geometricPrecision; image-rendering:optimizeQuality; fill-rule:evenodd; clip-rule:evenodd"
viewBox="0 0 720.77 580.75"
 xmlns:xlink="http://www.w3.org/1999/xlink"
 xmlns:xodm="http://www.corel.com/coreldraw/odm/2003">
 <defs>
  <style type="text/css">
   <![CDATA[
    .fil0 {fill:#151514}
   ]]>
  </style>
 </defs>
 <g id="Layer_x0020_1">
  <metadata id="CorelCorpID_0Corel-Layer"/>
  <path class="fil0" d="M597.81 473.67c-0.58,-3.45 0.59,-0.41 -1.71,-3.95l-40.77 -42.84c-5.84,-4.69 -4.23,-4.43 -7.94,-4.98 -4.85,-8.42 -57.46,-35.08 -72.55,-39.58 -2.28,-2.72 -42.08,-16.33 -60.92,-38.27 -2.79,-3.25 -0.61,-2.15 -3.26,-2.68 -6.3,-13.58 -14.06,-24.13 -2.49,-40.03 7.14,-9.8 23.49,-15.52 41.21,-14.56l12.39 3.19c3,3.77 7.66,5.92 11.07,8.57 3.97,3.09 6.13,6.51 9.78,9.58 5.93,4.98 14.98,16.44 20.36,18.96l6.61 6.15c3.6,2.97 4.59,3.66 8.84,5.73 2.47,5.32 34.53,20.9 42.41,23.28 1.83,3.56 44.13,17.32 51.97,21.67 7.4,4.11 13.85,11.59 22.02,15.54 10.01,4.82 19.84,5.07 31.08,6.8 -2.05,-4.15 -16,-8.09 -19.85,-12.73 24.33,0.42 30.43,17.74 40.75,13.28 0.14,-8.05 -13,-17.06 -19.93,-21.23l-55.84 -26.57c-5.91,-2.95 -23.88,-14.4 -26.88,-14.84 -0.22,-0.25 -0.58,-0.94 -0.7,-0.72l-55.58 -44.94c-1.77,-3.9 -9.7,-12.28 -13.99,-18 -6.3,-8.4 -33.54,-50.14 -45.22,-52.5 -4.76,-7.67 -24.34,-13.87 -35.98,-15.74l19.32 0.29c-2.98,-7.82 -8.38,-13.63 -2.65,-24.91 3.9,2.03 6.31,4.43 12.12,6.33 53.11,6.49 78.54,-76.76 23.76,-88.42 -12.58,-2.68 -25.2,0.7 -34.82,7.91 -4.19,3.14 -5.8,5.01 -6.49,8.95 -12.43,8.08 -12.51,48.87 -30.93,51.72 -21.9,-11.31 14.29,-65.44 19.58,-74.51 4.45,-6.1 7.56,-10.68 11.72,-16.52 10.54,-14.82 28.48,-31.93 45.13,-42.1 46.26,-28.28 65.09,-4.36 89.14,-19.83l4.34 -3.81c-8.97,0.4 -18.28,2.4 -24.48,-2.62 15.61,-2.22 41.58,2.31 44.9,-7.77 -2.5,-3.56 -6.28,-4.09 -12.21,-4.79l-48.36 -2.18c-37.69,1.13 -71.33,13.59 -100.79,34.7 -11.2,8.03 -27.97,22.94 -35.59,33.19 -0.21,0.08 -0.52,0.06 -0.59,0.34l-23.15 30.76c-18.08,29.99 -23.29,43.5 -35.89,76.79 -5.3,13.98 -13.69,26.75 -17.43,40.79l-1.36 3.19c-2.98,3.26 -11.07,30.3 -12.67,37.18 -8.14,34.89 -7.84,80.14 1.2,115.41 1.51,5.89 5.56,15.54 5.98,19.43 -0.58,-3.86 -6.74,-12.39 -8.89,-17.61 -2.37,-5.76 -4.32,-13.3 -8.42,-17.95 -37.06,4.11 -90.95,20.02 -122.67,38.14 -8.6,4.91 -11.76,7.01 -18.37,13.12 -5.83,5.39 -10.28,8.04 -15.07,16.47 -14.54,25.62 -19.83,34.22 -36.76,58.98 -4.89,7.14 -9.31,12.74 -14.28,18.42 -3.51,4.01 -2.71,4.17 -7.43,8.32 -3.13,2.76 -4.79,5 -7.86,7.9 -12.49,11.85 -16.57,17.73 -35.21,28.98 -25.69,15.5 -23.82,11.03 -47.24,16.37 -5.01,25.21 52.07,8.43 60.48,7.93 19.86,-1.18 38.56,9.5 39.3,-12.59 0.68,-20.24 -2.91,-14.35 23.63,-32.44 28.26,-19.27 52.08,-37.02 77.15,-60.97 14.34,-13.7 57.91,-24.34 83.72,-27.45l14.89 -2.95c7.67,2.04 25.47,-0.97 34.79,-1.13 8.61,-0.15 30.92,2.07 36.89,-0.01l3.18 1.17c1.46,0.38 2.86,0.57 4.36,0.76 21.6,2.75 31.05,4.73 52.59,11.47 32.84,10.27 93.79,39.38 125.68,56.05 8.82,4.61 16.84,9.92 25.67,13.12 1.33,1.76 18.74,11.95 22.23,14.12 39.78,24.76 0.93,44.6 32.23,45.72 15.07,0.54 21.18,-1.95 37.25,0.95 14.11,3.86 35.05,6.85 46.4,-0.05 0.07,-2.77 -0.31,-4.81 -0.58,-6.17 -7.1,-1.91 -14.94,-4.93 -21.82,-7.98 -5.07,-2.25 -13.79,-8.48 -18.41,-8.74l-19.34 -14.07c-16.66,-12.58 -19.2,-17.31 -33.81,-31.6 -2.95,-2.88 -4.77,-5.71 -7.8,-9.16 -3.07,-3.49 -3.06,-5.01 -7.26,-7.8 -1.54,-4.08 -9.94,-15.35 -13.93,-17.43z"/>
 </g>
</svg>
