<?xml version="1.0" encoding="UTF-8"?>
<!DOCTYPE svg PUBLIC "-//W3C//DTD SVG 1.1//EN" "http://www.w3.org/Graphics/SVG/1.1/DTD/svg11.dtd">
<!-- Creator: CorelDRAW -->
<svg xmlns="http://www.w3.org/2000/svg" xml:space="preserve" width="7.71667in" height="6.63634in" version="1.1" style="shape-rendering:geometricPrecision; text-rendering:geometricPrecision; image-rendering:optimizeQuality; fill-rule:evenodd; clip-rule:evenodd"
viewBox="0 0 806.69 693.76"
 xmlns:xlink="http://www.w3.org/1999/xlink"
 xmlns:xodm="http://www.corel.com/coreldraw/odm/2003">
 <defs>
  <style type="text/css">
   <![CDATA[
    .fil0 {fill:#111111}
   ]]>
  </style>
 </defs>
 <g id="Layer_x0020_1">
  <metadata id="CorelCorpID_0Corel-Layer"/>
  <path class="fil0" d="M596.5 514.85c16.59,9.29 33.18,30.86 46.35,46.5l41.28 51.64c24.71,29.94 59.16,52.36 97.34,63.87 3.39,1.02 5.9,1.61 9.16,2.55 1.14,0.33 3.28,0.95 4.28,1.5 3.39,1.87 1.41,0.41 3.34,2.78 -20.38,4.39 -33.14,-0.4 -52.7,-1.2 -15.03,-0.61 -39.34,8.14 -50.97,-0.08 -4.46,-8.49 -0.16,-24.02 -9.89,-39.41 -33.08,-52.33 -113.94,-69.93 -162.69,-89.99 -20.78,-8.55 -42.45,-21.79 -61.08,-27.4l-6.8 -2.13c-3.06,-1.3 -1.67,-0.6 -3.32,-1.73 -0.45,4.28 9.14,9.48 16.64,14.69 6.75,4.68 13.4,9.13 21.05,13.79 63.64,38.84 187.64,57.98 194.93,118.73 1.53,12.72 -0.28,20.71 11.15,23.48 17.31,4.19 43.22,-3.09 64.76,-0.92 8.18,0.82 41.76,3.8 46.53,-5.21 2.71,-5.12 -1.85,-7.59 -3.57,-10.48 -32.97,-6.9 -74.91,-29.98 -90.58,-48.28 -3.39,-3.96 -3.5,-3.96 -7.77,-8.16 -3.09,-3.04 -4.62,-5.87 -7.65,-9.78l-43.79 -60.74c-11.32,-14.81 -27.49,-32.51 -41.48,-44.2 -36.52,-30.5 -81.43,-47.91 -120.54,-71.15 -14.41,-8.56 -27.04,-18.25 -35.19,-33.01 -11.09,-20.09 -4.49,-39.02 10.47,-48.38 42.1,-26.33 71.44,22.07 87.21,37.79 49.15,48.99 121.31,56.01 134.51,73.12 12.29,15.93 39.81,25.21 47.98,18.38 -7.58,-5.67 -24.6,-4.6 -34.96,-13.97 -11.76,-10.64 1.95,-8.72 -28.85,-21.99 -50.46,-21.74 -84.42,-40.58 -120.23,-80.13 -12.61,-13.92 -33.73,-37.58 -66.77,-35.53 -50.63,3.15 -79.45,63.52 -14.1,110.58 17.39,12.52 71.53,40 97.09,53.94 5.31,2.9 10.89,6.53 15.13,9.54 3.2,2.27 4.99,3.55 7.7,5.4l6.03 5.58zm165.85 -40.97c-15.52,-1.06 -27.1,-9.44 -43.56,-6.78 5.82,4.62 41.62,15.73 51.33,10.83 3.09,-13.03 -22.52,-25.07 -32.37,-28.91 -15.58,-6.07 -30.31,-12.75 -44.11,-19.77 -45.08,-22.9 -75.45,-47.25 -108.11,-83.54 -18.14,-20.15 -32.55,-53.41 -57.91,-69.86 -11.53,-7.48 -33.36,-17.27 -50.99,-11.73 9.37,5.42 21.46,1.42 41.49,18.32 12.51,10.55 17.81,19.25 28.15,34.29 13.05,19 23.29,36.34 41.24,51.7 37.4,32.03 39.36,33.67 92.63,62.72 19.41,10.58 77.08,27.29 82.2,42.71zm-722.91 196.56c-8.82,4.18 -28.8,1.25 -39.44,2.81 1.15,5.46 4.58,5.8 11.16,7.35 16.34,3.86 34.37,2.05 50.1,-2.7 37.71,-11.39 68.34,-33.26 97.34,-56.54 7.21,-5.79 15.84,-11.93 21.27,-17.91 6.3,-6.92 14.77,-12.11 21.09,-18.14 22.9,-21.83 54.88,-46.67 93.14,-60.73 33.59,-12.34 68.21,-12.45 103.73,-7.05 10.45,1.59 23.79,4.96 33.04,5.7l-2.31 -2.19c-19.3,-4.74 -34.25,-12.02 -56.28,-15.73 -43.61,-7.34 -80.11,-2.92 -118.9,17.71 -12.31,6.55 -41.59,27.97 -51.9,38.15l-67.02 59.28c-21.31,17.19 -58.43,44.99 -95.02,49.97zm380.26 -427.45c27.43,2.64 48.79,-6.91 55.34,-32.48 1.7,-6.64 5.34,-19.73 2.59,-24.82 -13.17,13.11 -3.62,34.31 -36.73,50.1 -6.53,3.11 -16.51,4.67 -21.2,7.21zm60.45 -69.22c4.1,-2.47 4.82,-7.52 7.14,-12.13 2.23,-4.43 4.65,-8.23 7.62,-11.24 6.73,-6.81 11.46,-12.52 23.65,-15.4 42.71,-10.09 76.7,43.36 31.5,80.73 -32.24,26.66 -45.74,9.43 -55.53,5.22 8.87,43.74 100.93,-0.28 84.83,-59.07 -5.7,-20.82 -27.77,-40.21 -55.52,-36.63 -20.88,2.7 -47.36,24.39 -43.7,48.51zm-27.51 37.23c-0.22,-35.2 0.74,-35.06 23.49,-70.66 17.01,-26.6 14.6,-28.67 37.3,-58.53 10.34,-13.6 32.4,-31.04 55.25,-39.11 22.01,-7.78 18.78,-3.17 40.91,-3.47 10.9,-0.15 32.33,-3.95 36.66,-12.28 -8.41,-3.9 -17.09,6.48 -42.54,4.81 -18.37,-1.2 -17.21,-3.09 -40.8,5.14 -24.16,8.43 -30,13.68 -47.6,26.48 -16.83,12.24 -41.05,48.69 -52.21,71.21 -5.14,10.38 -11.74,21.88 -14.81,34.56 -2.91,12.05 -4.91,34.03 4.34,41.85zm-396.5 445.06l19.3 -13.29c5.94,-4.46 11.77,-10.09 17.04,-14.92l23.51 -24.38c3.11,-3.25 3.72,-5.41 7.03,-8.98 19.5,-21.04 35.54,-47.94 51.22,-76.54 5.13,-9.35 6.48,-12.06 13.24,-18.68 4.98,-4.88 10.47,-10.07 17.1,-14.84 42.2,-30.3 113.05,-45.79 126.8,-66.9 -2.6,-2.14 2.13,-2.14 -6.39,-1.05 -3.82,4.25 -37.33,12.94 -46.13,15.86 -152.69,50.68 -91.61,83.05 -197.98,194.08l-34.26 30.17 9.51 -0.52zm277.34 -271.21l8.48 34.56c8.97,29.5 28.81,57.59 58.74,68.84 -3.27,-7.19 -28.25,-15.14 -43.46,-63.78 -19.35,-61.86 -1.67,-119.64 22.59,-177.18 10.58,-25.11 18.42,-53.25 28.4,-79.06 20.91,-54.05 55.98,-94.11 94.97,-119.89 20.78,-13.74 45.73,-26.23 74.77,-32.69 14.39,-3.2 32.28,-6.5 47.57,-6.42 10.25,0.06 40.24,1.48 47.3,6.1 -6.66,7.08 -20.21,3.19 -28.19,7.26 4.71,3.16 13.74,2.7 20.15,1.91 10.24,-1.27 14.22,-2.71 16.16,-8.14 3.91,-12.55 -19.91,-12.29 -29.98,-13.29 -16.36,-1.62 -27.42,-3.16 -44.31,-3.08 -91.3,4.08 -156.22,57.51 -197.47,130.05 -18.54,32.61 -31.95,80.88 -47.39,118.14 -12.54,30.28 -23.64,62.74 -27.08,96.06 -1.11,10.78 1.17,32.95 -1.25,40.61z"/>
 </g>
</svg>
