<?xml version="1.0" encoding="UTF-8"?>
<!DOCTYPE svg PUBLIC "-//W3C//DTD SVG 1.1//EN" "http://www.w3.org/Graphics/SVG/1.1/DTD/svg11.dtd">
<!-- Creator: CorelDRAW -->
<svg xmlns="http://www.w3.org/2000/svg" xml:space="preserve" width="6.66609in" height="5.21864in" version="1.1" style="shape-rendering:geometricPrecision; text-rendering:geometricPrecision; image-rendering:optimizeQuality; fill-rule:evenodd; clip-rule:evenodd"
viewBox="0 0 561.24 439.37"
 xmlns:xlink="http://www.w3.org/1999/xlink"
 xmlns:xodm="http://www.corel.com/coreldraw/odm/2003">
 <defs>
  <style type="text/css">
   <![CDATA[
    .fil0 {fill:#1A1A1A}
   ]]>
  </style>
 </defs>
 <g id="Layer_x0020_1">
  <metadata id="CorelCorpID_0Corel-Layer"/>
  <path class="fil0" d="M309.11 311.58c4.92,7.96 34.03,8.7 44.55,6.84 8.71,-1.54 12.92,-3.13 19.97,-6.81 11.36,-5.92 12.08,-8.92 15.12,-10.51 -3.03,0.06 -26.24,10.1 -36.22,11.8 -13.85,2.36 -29.91,1.11 -43.43,-1.32zm191.22 41.05c0.34,-4.94 -0.53,-6.84 -4.73,-9.24 1,4.26 1.62,7.02 4.73,9.24zm-268.85 2.92c11.51,7.21 41.74,6.53 49.24,-3.83 -8.03,0.87 -15.54,3.25 -23.98,4.17 -8.87,0.96 -16.6,-0.25 -25.25,-0.34zm87.06 -19.87c5.63,4.82 22.54,6.46 31.13,5.5 11.88,-1.33 18.15,-6.44 26.3,-8.51 -4.97,-0.17 -20.33,3.22 -27.37,3.99 -11.88,1.31 -19.57,-0.94 -30.06,-0.98zm115.27 -17.87c1.99,1.88 -1.85,-0.23 2.88,2.15 0.68,0.34 2.74,0.98 3.52,1.21 7,2.04 18.11,3.49 25.29,3.19 11.14,-0.47 21.4,-3.45 29,-8.4 -27.46,4.14 -31.3,6.44 -60.69,1.85zm-9.63 -25.8c11.72,12.94 62.52,15.53 82.01,-4.23 -5.85,1.43 -12.84,4.9 -19.84,6.65 -21.34,5.36 -41.57,2.45 -62.17,-2.43zm-81.52 108.81c-16.38,2.26 -28.94,-1.11 -42.1,-6.73 -18.66,-7.97 -17.05,-11.85 -35.94,-2.12 -26.97,13.89 -53.65,12.58 -75.32,-6.1l3.34 -2.72c1.3,-0.84 2.5,-1.42 3.69,-2.16 14.23,-8.85 15.57,-13.96 18.92,-16.25 9.67,6.25 15.64,10.9 30.37,12.98 24.29,3.42 48.33,-3.27 67.28,-16.97 7.18,-5.19 5.63,-3.92 16.17,-2.11 7.11,1.22 12.95,0.64 19.48,2.78 0.33,5.51 -2.56,12.57 -3.73,18.29 -1.56,7.67 -1.09,13.68 -2.16,21.11zm169.93 17.88c8.53,-26.87 4.55,-35.1 -8.17,-54.74 2.16,16.07 11.78,42.09 1.26,58.6 -10.28,16.13 -51.77,-1.72 -94.59,3.77 -8.35,1.07 -22.85,4.04 -30.69,3.46 -31.14,-2.3 -33.6,-46.13 -17.66,-67.14 7.55,-9.96 16.47,-9.85 33.45,-19.15 24.39,-13.36 12.24,-12.62 36.65,-4.42 16.7,5.61 45.59,3.78 61.95,-1.1 15.51,-4.63 31.08,-20.39 35.47,-34.62 18.34,11.51 25.05,37.31 18.54,65.34 -5.11,22.01 -23.89,40.91 -36.22,50zm-310.99 -377.85c-0.86,1.65 -18.71,17.34 -21.44,19.96 -6.77,6.49 -15.94,12.14 -27.02,15.1 -11.99,3.21 -22.67,3.14 -34.35,7.7 -10.3,4.02 -20.09,11.58 -25.87,17.41 -15.65,15.81 -17.87,27.28 -40.38,44.97 -10.01,7.87 -43.77,25.82 -49.86,34.98 17.39,-5.46 50.88,-23.71 61.75,-32.45 2.06,-1.66 3.92,-4.09 5.76,-5.9 2.28,-2.24 3.44,-3.65 5.79,-5.93 8.73,-8.43 20.26,-27.93 33.95,-37.35 21.15,-14.55 48.33,-9.07 69.81,-24.92 33.97,-25.05 19.76,-31.64 64.73,-30.96 39.91,0.61 44.16,-10.16 69.72,-25.19 28.36,-16.67 47.87,-4.73 70.2,9.04 42.95,26.49 84.66,0.46 110.73,31.88 5.28,6.36 14.04,23.74 13.24,34.42 5.71,7.74 5.28,40.35 4.86,51.62 -1.51,-2.17 -2.18,-4.13 -3.47,-7.05 -0.47,-1.06 -1.25,-2.99 -1.84,-3.99l-3.24 -4.06c-0.04,13.81 9.85,47.83 13.29,62.9 4.61,20.22 8.65,43.87 10.06,65.23 1.5,22.76 -5.56,43.43 -17,56.23 -12.66,14.17 -34.38,18.91 -58.46,17.69 -24.66,-1.25 -36.71,-11.63 -41.89,-33 -7.98,-32.93 -9.8,-105.15 -2.83,-138.28 4.6,-21.87 19.31,-36.17 22.58,-53.47 -5.79,5.51 -11.78,17.6 -17.56,20.51 -0.19,-0.25 -0.44,-0.96 -0.51,-0.78l-1.32 -2.46c-1.97,-4.6 -3.26,-11.4 -7.25,-19.75 -2,-4.2 -1.45,-4.48 -5.22,-5.13 1.3,3.83 1.28,2.29 0.04,6.1 0.79,1.14 0.28,-0.01 1.44,2.56l2.9 8.96c3.99,14.81 -0.6,25.52 -3.68,38.49 -4.09,17.23 -4.75,38.75 -4.66,56.85 0.1,20.26 0.78,39.23 2.24,59.38 2.33,32.24 4.24,26.75 10.97,50.54 -6.92,10.17 -47.01,30.27 -73.06,26.6 -31.84,-4.49 -38.76,-26.21 -43.93,-57.79 -9.45,-57.74 -11.42,-105.45 3.49,-161.1 1.34,-5 5.35,-17.77 1.11,-22.09 0.27,7.46 -8.31,32.19 -12.37,37.11l-18.45 -25.48c1.23,8.58 6.42,17.6 9.52,25.73 4.82,12.64 3.12,17.64 2.25,30.91 -2.72,41.34 -2.12,89.15 6.75,129.59 8.28,37.73 17.38,35.27 23.98,44.58 -9.2,12.16 -47.63,23.82 -73.7,12.22 -26.05,-11.6 -32.31,-32.05 -39.5,-57.5 -8.26,-29.24 -8.14,-57.07 -7.23,-88 1.77,-60.05 12.63,-51.44 17.52,-79.02 -6.59,7.49 -13.86,28.35 -20.78,33.11 -4.27,-5.24 -6.05,-18.74 -11.85,-22.89l2.51 18.01c0.19,0.28 0.43,0.38 0.51,0.89l1.54 3.69c0.46,1.58 0.82,4.2 1.17,5.94 7.42,36.93 -10.4,71.31 9.62,138.75 5.22,17.59 8.04,25.52 17.33,38.46 -13.06,13.57 -38.51,20.37 -59.8,9.85 -19.6,-9.69 -27.77,-22.27 -37.26,-44.56 -8.23,-19.34 -17.9,-38.87 -19.69,-62.45 -2.15,-28.36 10.7,-47.31 12.32,-70.62l-16.56 31.88c-3.23,-6.42 -3.02,-23.12 -2.73,-30.31l-0.11 -9.12c-0.88,-3.17 0.44,-0.55 -1.31,-2.59 0.5,7.56 -2.1,15.74 -2.64,23.81 -0.61,9.06 0.3,18.06 -1.08,27.04 -4.1,-0.79 -9.83,-13.09 -12.01,-18.19 -3.02,-7.05 -5.61,-16.6 -8.91,-22.76 -1.42,12.38 2.2,26.15 7.7,36.78 0.81,1.56 1.72,2.96 2.6,4.41 2.47,4.05 1.74,1.42 2.51,5.42 11.16,6.53 10.51,19.51 11.09,25.37 3.71,37.84 20.83,60.56 28.09,84.55 -22.21,-16.33 -37.31,-39.95 -46.72,-67 -3.4,-9.77 -5.26,-20.32 -8.96,-30.24 -3.71,3.63 -0.31,16.91 -0.8,22.24 1.04,1.36 9.78,30.86 12.99,37.46 6.93,14.27 12.73,20.56 20.63,31.39l12.31 11.62c-38.1,10.73 -80.7,-30.73 -95.49,-153.09 -4.46,53.01 28.15,181.67 91.17,168.69 20.99,-4.32 19.99,-6.99 37.14,3.12 7.49,4.42 24.79,13.24 28.62,20.13 -6.87,0.58 -61.47,6.84 -63.74,7.92 20.89,3.86 50.7,3.59 71.51,-0.98 20.61,-4.52 10.55,-4.4 26.33,4.95 7.5,4.45 17.69,9.2 27.64,10.96 32.72,5.8 52.48,-13.36 61.63,-13.02 5.4,0.21 21.43,8.44 28.59,10.52 13.64,3.96 21.23,3.43 35.87,3.69 3.41,13.52 12.7,22.81 26.6,26.2 14.77,3.6 33.92,-0.46 49.27,-1.56 30.89,-2.22 70.72,11.82 92.95,-5.14 9.15,-6.99 12.71,-11.72 19.41,-19.21 9.03,-10.11 19.01,-16.93 25.15,-41.48 8.41,-33.62 -3.6,-64.15 -23.29,-76.2 1.17,-14.63 4.62,-18.31 3.03,-35.91 -0.82,-9.06 -5.13,-29.47 -3.53,-36.73 -0.17,-0.29 -0.33,-0.69 -0.42,-0.92 -0.09,-0.23 -0.29,-0.64 -0.39,-0.93l-6 -29.32c-9.62,-41.69 -0.24,-60.23 -9.31,-101.72 -13.42,-61.37 -47.68,-54.47 -91.05,-57.57 -29.23,-2.09 -33.17,-12.06 -53.1,-21.75 -56.59,-27.53 -71.36,15.11 -106.63,23.59 -11.86,2.85 -23.98,1.19 -36.24,1.23 -16.75,0.06 -17.82,3.25 -29.99,6.9zm172.48 378.9c1.13,-22.61 -10.09,-50.58 32.89,-51.19 14.28,-0.2 26.7,-0.19 32.25,10.86 6.6,13.15 2.39,23.8 -1.4,35.64 9.66,-5.35 12.36,-26 7.21,-37.95 -5.86,-13.6 -19.81,-15.16 -36.85,-14.78 -18.23,0.41 -29.89,2.48 -36.54,15.1 -6.37,12.08 -4.13,31.83 2.44,42.32zm-159.23 -86.49c0.91,0.76 0.14,0.37 2.16,1.67l11.98 4.46c13,3.15 39.96,0.36 46.22,-11.18 -10.09,2.06 -16.74,6.25 -28.42,7.43 -12.74,1.29 -20.4,-1.25 -31.94,-2.38zm-87.11 11.07c3.02,5.43 20.53,7.01 27.51,6.14 10.45,-1.31 18.52,-5.23 23.43,-11 -19.47,4.56 -28.04,9.06 -50.94,4.87z"/>
 </g>
</svg>
