<?xml version="1.0" encoding="UTF-8"?>
<!DOCTYPE svg PUBLIC "-//W3C//DTD SVG 1.1//EN" "http://www.w3.org/Graphics/SVG/1.1/DTD/svg11.dtd">
<!-- Creator: CorelDRAW -->
<svg xmlns="http://www.w3.org/2000/svg" xml:space="preserve" width="7.25048in" height="5.30294in" version="1.1" style="shape-rendering:geometricPrecision; text-rendering:geometricPrecision; image-rendering:optimizeQuality; fill-rule:evenodd; clip-rule:evenodd"
viewBox="0 0 550.77 402.83"
 xmlns:xlink="http://www.w3.org/1999/xlink"
 xmlns:xodm="http://www.corel.com/coreldraw/odm/2003">
 <defs>
  <style type="text/css">
   <![CDATA[
    .fil0 {fill:black}
   ]]>
  </style>
 </defs>
 <g id="Layer_x0020_1">
  <metadata id="CorelCorpID_0Corel-Layer"/>
  <g id="_1178756922416">
   <path class="fil0" d="M255.71 340.51l0 -0.16c4.37,0 3.03,-0.83 4.52,-0.78 0.57,0.02 0.9,0.16 1.74,0.15 0.82,-0 0.99,0.12 1.58,0.16 0.71,0.04 0.86,-0.15 1.7,-0.16 2.66,-0.02 7.02,-0.85 9.62,-1.34 1.88,-0.35 4.46,-0.85 6.51,-0.85 -3.51,3.05 -6.79,3.28 -11.83,3.98 -5.45,0.75 -4.52,0.47 -10.29,-0.49 -1.11,-0.19 -2.44,-0.51 -3.56,-0.51zm-100.96 -10.8c-7.89,0 -10.03,-2.19 -17.22,-2.19 1.46,-2.18 12.5,-0.38 15.77,-0.83 0.84,-0.11 1.72,-0.04 2.7,-0.12 0.79,-0.06 1.85,-0.21 2.67,-0.3 1.76,-0.2 3.31,-0.53 4.85,-0.94l8.9 -2.68c1.06,-0.34 3.39,-1.08 4.72,-1.08l-2.19 1.56c-3.02,2.12 -3.35,2.55 -7.29,4.14 -3.13,1.26 -8.6,2.44 -12.9,2.44zm95.8 -4.85c-7.6,0 -10.3,-1.08 -17,-2.41 -0.9,-0.18 -1.6,-0.29 -2.51,-0.47 -0.89,-0.18 -1.61,-0.4 -2.57,-0.4 0.03,-0.02 0.09,-0.08 0.1,-0.05l0.45 -0.18c0.74,-0.19 1.64,-0.04 2.42,-0.08l3.29 -0.16c4.05,0 7.58,0.47 11.58,0.47 7.78,0 10.39,-0.33 17.98,-1.59 2.19,-0.36 4.4,-0.81 6.58,-1.24 3.24,-0.65 4.8,-1.41 5.96,0.33 -1.02,0.02 -2.14,0.56 -3.07,0.84 -2.58,0.76 -6.45,2.22 -8.87,3.19 -1.75,0.7 -0.91,0.59 -3.09,0.83 -4.05,0.44 -6.91,0.94 -11.27,0.94zm189.72 -25.67c7.01,0 12.8,1.1 19.88,1.1 8.54,0 19.25,-2.66 23.17,-2.66 0.28,0 0.02,-0.01 0.31,0.16 -0.14,0.38 -0.04,0.21 -0.37,0.41 -1.14,0.68 -8.01,2.59 -9.17,2.88 -4.23,1.03 -7.18,1.05 -11.44,1.4 -1.87,0.16 -10.12,-0.71 -11.86,-0.96 -1.22,-0.17 -8.74,-1.59 -10.3,-2.22l-0.21 -0.1zm-54.63 -9.55l-3.13 2.35c-1.42,1.06 -5.16,3.68 -6.19,4.76 -0.27,0.28 0.02,0.04 -0.32,0.31 -0.03,0.02 -0.07,0.04 -0.09,0.06l-0.19 0.13c-0.66,0.51 0.44,-0.4 -0.17,0.14 -0.46,0.41 -0.06,0.34 -0.9,0.51 -0.95,0.19 -1.46,0.25 -2.3,0.52 -2.81,0.9 -5.36,1.97 -8.21,2.9 -2.67,0.87 -10.3,2.2 -13.91,2.68 -1.68,0.22 -9.17,0.2 -10.92,0.2 -5.41,0 -9.44,-0.82 -14.49,-2.26l-8.36 -2.75c0.83,0 1.67,0 2.51,-0 1.05,-0.01 1.49,0.14 2.34,0.16 3.31,0.1 7.03,0.59 9.4,0.62 3.11,0.04 5.69,0.47 9.71,0.47 3.28,0 4.21,0.08 7.5,-0.17l6.76 -0.91c11.49,-1.91 17.34,-4.43 27.17,-8.36 0.9,-0.36 2.9,-1.29 3.8,-1.36zm0 0zm73.73 -5.17l-73.73 5.17zm73.73 -5.17c-7.82,0 -11.33,0.01 -19.11,-1.55 -2.17,-0.44 -4.2,-1.08 -6.11,-1.72 -0.92,-0.3 -2,-0.72 -2.8,-1.11l-2.66 -1.41c2.97,0 9.78,0.84 13,1.09 16.58,1.26 21.55,1.23 38.8,-1.09 3.24,-0.44 6.43,-1.21 9.28,-1.99 4.83,-1.33 1.91,-1.57 6.06,-2.4 0.67,-0.13 1.67,-0.4 2.36,-0.46 -1.12,2.12 -7.43,4.53 -9.92,5.42l-4.74 1.52c-3.77,1.01 -8.8,2.22 -12.74,2.75 -3.52,0.48 -7.47,0.95 -11.42,0.95zm-261.1 -146.2l0.09 -0.34 -0.09 0.34zm0 0c0,0.91 -0.2,1.64 -0.34,2.48 -0.55,3.31 -0.71,6.71 -1.94,9.8 -0.32,0.8 -0.51,1.34 -0.79,2.18 -3.47,10.41 -7.03,26.96 -8.56,38.56 -0.45,3.42 -0.91,7.36 -0.89,10.85 0.01,1.17 -0.17,1.65 -0.16,2.81l0.32 17.38c0.02,0.46 -0.02,0.96 -0.01,1.41 0.02,0.75 0.13,0.71 0.16,1.4 0.27,5.34 0.8,10.91 1.42,16.27 1.21,10.44 2.79,20.39 4.83,30.55 2.6,12.98 7.85,34.93 12.51,46.5 2.35,5.85 5.62,9.82 10.18,13.46 1.1,0.88 2.23,1.55 3.38,2.42l6.8 5.1c3.5,2.57 7.14,4.63 11.09,6.6 5.46,2.73 10.82,5.39 16.83,6.8 1.54,0.36 3.29,0.72 4.86,0.93 1.9,0.25 2.97,0.76 4.87,1.08 8.58,1.43 17.88,-1.02 25,-3.67 5.67,-2.11 16.38,-7.06 20.91,-11.64 1.58,-1.6 2.88,-2.95 3.95,-4.97l-0.9 -1.13c-2.16,-2.41 -3.31,-3.05 -5.24,-4.93 -0.45,-0.43 -0.65,-0.56 -1.09,-0.94 -1.03,-0.9 -2.2,-2 -3.03,-3.08 -2.55,-3.3 -2.81,-3.52 -5.01,-7.2 -1.55,-2.59 -2.66,-5.59 -3.78,-8.43 -3.56,-9.06 -5.45,-19.85 -7.29,-29.34 -0.43,-2.2 -0.81,-4.68 -1.19,-6.95 -0.39,-2.35 -0.79,-4.68 -1.11,-7.03 -1.32,-9.68 -2.81,-19.34 -3.62,-29.09 -0.2,-2.35 -0.5,-5.04 -0.74,-7.4 -0.26,-2.53 -0.37,-5.09 -0.63,-7.51l-1.12 -19.23c0.01,-1.54 -0.16,-2.5 -0.16,-3.91 0.01,-2.83 -0.16,-5.17 -0.16,-7.98l-0.01 -10.18c0,-0.91 0.14,-1.07 0.17,-1.87 0.12,-4 0.15,-7.54 0.71,-11.5 0.17,-1.18 0.3,-2.6 0.37,-3.7 0.16,-2.33 0.77,-7.38 0.79,-9.38 0.03,-3.34 0.46,-6.12 -0.16,-9.71 -0.83,-4.82 -3.92,-11.71 -6.06,-16.33 -0.25,-0.54 -0.35,-0.88 -0.62,-1.41 -0.28,-0.56 -0.46,-0.74 -0.74,-1.3l-1.07 -1.9c-0.19,-0.29 -0.32,-0.39 -0.48,-0.62 -0.55,-0.79 -0.19,-0.91 -0.12,-1.75 0.6,0.44 6.18,8.09 6.78,8.88 1.15,1.54 2.21,2.93 3.36,4.47 1.21,1.62 1.9,3.36 4.11,3.87 1.41,-2.66 1.99,-3.16 3.33,-6.53 0.97,-2.44 1.77,-4.93 2.6,-7.42 1.44,-4.31 2.93,-10.32 5.24,-14.17 0.19,-0.31 0.08,-0.16 0.26,-0.37 0,9.81 -4.4,22.22 -6.46,31.89 -0.54,2.55 -1.11,5.16 -1.62,7.93 -0.51,2.82 -0.82,5.41 -1.21,8.34 -0.74,5.56 -1.12,11.78 -1.2,18.06 -0.01,0.9 -0.17,1.18 -0.17,2.18l0.16 14.09c-0.01,1.05 0.15,1.42 0.16,2.34 0.19,15.08 2.98,38.45 4.99,52.77 1.58,11.23 3.33,22.22 4.91,33.44 0.03,0.18 0.07,0.64 0.13,0.97 0.21,1.16 1.66,4.92 2.08,6.37 0.72,2.53 1.43,4.87 2.03,7.52 1.16,5.12 2.33,10.67 4.43,14.83 0.58,1.15 1.03,1.94 1.68,3.01 1.68,2.74 4.22,5.68 6.76,7.65 0.3,0.23 0.32,0.28 0.58,0.52l1.97 1.63c1.83,1.46 4.04,2.52 6.13,3.58 9.25,4.67 32.09,10.28 42.85,2.78 0.88,-0.61 0.63,-0.38 1.91,-0.44 0.77,-0.03 1.2,-0.16 2.2,-0.15 3.18,0.03 3.87,-0.73 6.95,-2.6l12.19 -7.06c0.55,-0.3 0.92,-0.58 1.47,-0.88 1.53,-0.85 3.14,-1.62 4.48,-2.72 2.7,-2.21 5.53,-3.99 8.47,-5.93 2.37,-1.57 4.73,-3.32 6.56,-5.49 0.3,-0.35 0.92,-0.96 0.98,-1.32 0.13,-0.76 -0.51,-3.35 -0.74,-4.03 -0.41,-1.2 -0.77,-2.23 -1.34,-3.36 -1.65,-3.27 -2.96,-6.85 -4.1,-10.3 -0.2,-0.6 -0.41,-1.16 -0.65,-1.7 -0.22,-0.49 -0.53,-1.27 -0.78,-1.72 -1.88,-3.31 -0.95,-0.6 -1.27,-3.58 -0.32,-2.98 -0.6,-5.55 -1.29,-8.26 -0.66,-2.61 -1.33,-5.22 -1.8,-7.91 -0.71,-4.14 -1.38,-8.5 -1.74,-12.66l-0.66 -6.54c-0.06,-0.53 -0.13,-1.48 -0.22,-2.13 -0.54,-3.76 -0.67,-9.47 -1,-13.4 -0.06,-0.74 0.05,-1.57 -0.03,-2.32 -0.56,-5.03 -0.45,-20.77 -0.45,-26.01 0,-3.3 0.17,-6.07 0.15,-9.4 -0,-1 0.16,-1.28 0.17,-2.18 0.01,-0.78 -0.01,-1.58 -0.01,-2.36 -0,-1 0.16,-1.28 0.17,-2.18l0.31 -7.05c-0.02,-2.45 0.85,-10.46 1.09,-13.31 0.71,-8.24 2.68,-16.34 4.64,-24.16 0.65,-2.58 1.37,-5.03 1.83,-7.72 0.23,-1.37 0.46,-2.61 0.6,-4.26 0.24,-2.81 0.07,-6.43 -0.01,-9.25 -0.07,-2.08 -0.44,-4.44 -0.74,-6.46 -0.09,-0.65 -0.29,-1.71 -0.28,-2.15 0.01,-1.09 0.7,-2.74 0.7,-4.07l3.98 8.7c0.95,2.39 2.66,6.84 4.47,8.05 1.76,-1.53 3.31,-3.12 4.8,-4.9 0.34,-0.4 0.6,-0.71 0.92,-1.11 0.62,-0.78 1.11,-1.41 1.72,-2.19l4.11 -5.59c0.68,-0.9 1.73,-2.84 2.53,-3.42 -0.24,1.02 -2.21,5.22 -2.67,6.26l-3.39 7.73c-0.26,0.55 -0.46,0.91 -0.73,1.46 -0.54,1.06 -0.93,2.01 -1.46,3.08l-5.11 10.54c-1.26,2.5 -2.45,5.22 -3.41,7.86 -2.25,6.21 -3.96,10.6 -4.92,17.46 -0.39,2.78 -0.47,5.65 -0.2,8.36 0.14,1.42 0.68,2.42 0.19,3.84 -0.74,2.16 -0.96,5.2 -1.27,7.65 -0.36,2.84 -0.21,6.09 -0.58,8.5 -0.39,2.61 0.05,6.02 -0.34,8.58 -0.3,1.99 -0.05,16.43 -0.07,20.13l0.16 4.38c-0.01,1.85 0.44,6.43 0.47,8.45 0.04,2.94 0.69,9.06 1.83,11.63 0.41,0.92 0.29,5.52 0.21,6.55 -0.09,1.22 0.01,0.04 -0.24,0.63 -0.26,0.62 2.68,12.06 3.01,13.63 1.7,8.07 4.01,16.77 7.06,24.4 0.45,1.12 0.85,2.1 1.38,3.16 1.54,3.07 2.76,5.67 4.86,8.45l3.05 3.68c1.35,1.44 4.68,3.9 6.44,4.83 5.44,2.89 11.13,4.54 17.47,5.07 11.46,0.96 21.9,-0.56 32.89,-2.36 1.26,-0.21 2.5,-0.45 3.82,-0.72 3.7,-0.75 3.42,-0.63 6.67,-2.26l6 -2.92c2.92,-1.46 5.76,-3.12 8.33,-5.13 4.23,-3.31 7.78,-7.22 10.55,-11.84l1.63 -2.91c0.28,-0.51 0.4,-0.97 0.68,-1.51 1.83,-3.6 3.16,-7.78 4.08,-11.73 0.58,-2.48 1.06,-4.8 1.49,-7.43l1.01 -8.07c0.35,-2.7 0.18,-5.67 0.49,-8.43 0.17,-1.47 0.14,-7.61 -0.07,-8.97l-0.22 -6.36c-0.2,-7.14 -1.96,-19.18 -2.95,-26.32 -0.37,-2.64 -0.86,-5.09 -1.28,-7.65 -0.83,-5.03 -1.83,-9.99 -3.01,-14.99 -0.28,-1.2 -0.53,-2.41 -0.82,-3.72 -0.29,-1.31 -0.61,-2.47 -0.86,-3.68 -1.42,-6.86 -5.49,-21.86 -7.55,-28.3l-3.25 -10.21c-1.49,-4.51 -3.1,-9 -4.37,-13.63 -0.31,-1.13 -0.79,-2.56 -0.81,-3.72l2.63 4.1c1.32,2.11 2.56,4.09 3.68,6.34 0.43,0.85 0.68,1.46 1.09,2.35 0.38,0.82 0.74,1.48 1.15,2.3 0.23,0.45 0.35,0.7 0.57,1.15 0.25,0.51 0.27,0.82 0.73,0.99 0,-3.28 0.7,-9.36 0.27,-12.48l-0.43 -8.18c-0.01,-2.07 -0.42,-5.89 -0.71,-8.05 -0.88,-6.33 -1.71,-12.78 -2.92,-18.83 -0.94,-4.68 -2.15,-9.3 -3.44,-13.94 -1.19,-4.28 -2.8,-8.75 -4.55,-12.83 -0.91,-2.11 -1.73,-3.88 -2.72,-5.89 -0.3,-0.6 -0.49,-0.86 -0.78,-1.41 -0.3,-0.57 -0.43,-0.88 -0.77,-1.43 -1.87,-3.08 -3.72,-6.32 -6.29,-8.89 -0.44,-0.44 -0.57,-0.73 -1.01,-1.18 -0.4,-0.4 -0.69,-0.7 -1.1,-1.1 -6.37,-6.3 -16.99,-10.21 -25.63,-11.15 -4.61,-0.5 -11.59,-1.06 -16.62,-0.49 -1.92,0.22 -4.29,0.18 -6.24,0.18 -0.96,-0 -1.21,0.14 -2.03,0.17 -0.71,0.02 -1.49,-0.04 -2.2,-0.01 -0.75,0.04 -1.08,0.16 -2.03,0.16 -1.41,-0.01 -2.97,-0.11 -4.29,0.09 -0.93,0.14 -3.17,0.15 -4.12,0.02 -1.26,-0.17 -2.88,0.02 -4.25,-0.14 -9.38,-1.05 -12.34,-1.09 -21.56,-4.58 -4.53,-1.72 -8.85,-4.01 -13.11,-6.3 -0.54,-0.29 -0.92,-0.43 -1.45,-0.74 -0.97,-0.58 -1.84,-0.98 -2.82,-1.57l-14 -7.76c-0.95,-0.47 -1.92,-1.02 -2.93,-1.45 -2.48,-1.06 -5.09,-2.3 -7.94,-2.7 -0.97,-0.14 -1.01,-0.07 -1.61,-0.58 -0.91,-0.78 -1.61,-1.14 -2.7,-1.68 -3.87,-1.91 -9.84,-2.14 -15.28,-1.34 -7.7,1.13 -14.37,3.49 -20.8,7.38l-5.25 3.35c-0.43,0.31 -0.83,0.55 -1.31,0.88 -2.63,1.74 -5.1,3.66 -7.63,5.52 -13.62,10 -25.4,15.99 -42.6,18.14 -3.39,0.42 -6.77,0.57 -10.14,0.67 -2,0.06 -4.21,0.31 -6.26,0.31 -0.94,0 -1.14,0.16 -2.02,0.17 -0.92,0.01 -1.37,0.05 -2.06,0.13 -0.71,0.08 -1.47,0.09 -2.04,0.15 -0.8,0.09 -1.25,0.11 -2,0.2 -2.67,0.3 -4.96,1.34 -5.05,1.35 -1.49,0.18 -4.28,-0.72 -9.66,1 -2.13,0.68 -4.26,1.43 -6.28,2.33 -0.5,0.22 -0.92,0.48 -1.46,0.73 -5.29,2.45 -10.36,5.59 -15.16,8.79 -1.75,1.17 -3.45,2.28 -5.13,3.47l-5.23 3.54c-1.78,1.18 -3.44,2.29 -5.27,3.34 -1.91,1.09 -3.7,2.05 -5.78,2.98 -3.06,1.37 -6.21,2.6 -9.45,3.54 -14.47,4.19 -27.04,2.97 -42.41,9.56 -1.45,0.62 -2.83,1.42 -4.15,2.27l-5.15 3.61c-0.47,0.35 -0.76,0.59 -1.23,0.96l-9.03 8.35 -17.54 19.4c-1.51,1.8 -8.8,9.53 -10.62,10.98l-2.21 2.18c-1.68,1.7 -6.14,5.44 -8.07,7.12 -1.96,1.71 -4.07,3.26 -6.14,4.82 -2.05,1.54 -4.2,3.13 -6.47,4.33 -1.03,0.55 -1.81,0.98 -2.87,1.51l-1.45 0.74c-1.43,1.35 -1.65,1.68 -3.43,2.99 -0.87,0.64 -1.66,1.17 -2.59,1.79 -0.5,0.33 -0.89,0.54 -1.35,0.84 -5.96,3.97 -20.97,11.93 -25.16,16.16 -1.47,1.49 -2.7,3.07 -3.69,4.92 -4.31,8.02 -7.5,32.7 -8.43,41.35 -1.15,10.77 -1.42,24.43 1.06,34.37 0.17,0.67 0.3,1.09 0.46,1.73 0.48,1.9 0.67,3.64 1.07,5.5 0.99,4.52 2.48,8.95 4.27,13.1 1.12,2.59 2.08,4.98 3.42,7.38l2.99 5.62c0.28,0.55 0.5,0.88 0.81,1.38 3.67,6.06 7.33,12.09 12.04,17.38l7.98 8.3c2.44,2.35 5.51,4.94 8.23,6.96 0.87,0.65 1.62,1.25 2.48,1.9 11.05,8.34 26.85,16.62 39.83,20.9 2.24,0.74 4.26,1.51 6.58,2.19l13.77 3.61c2.4,0.55 4.72,0.98 7.22,1.39 1.17,0.2 2.49,0.41 3.79,0.59 1.19,0.16 2.62,0.46 3.92,0.46 -0.49,-0.66 -3.74,-2.73 -4.63,-3.35 -0.62,-0.43 -1.08,-0.7 -1.67,-1.14l-4.81 -3.33c-0.59,-0.39 -1.02,-0.74 -1.66,-1.16 -0.61,-0.4 -0.98,-0.69 -1.56,-1.1 -0.58,-0.4 -1.03,-0.66 -1.59,-1.08 -2.07,-1.56 -4.31,-2.99 -6.33,-4.63l-2.99 -2.49c-0.32,-0.31 -0.31,-0.29 -0.68,-0.58l-9.18 -8.5c-0.55,-0.55 -0.79,-0.96 -1.33,-1.49 -0.98,-0.97 -1.73,-1.81 -2.67,-2.81l-2.51 -2.97c-0.45,-0.52 -0.76,-0.9 -1.2,-1.46 -3.63,-4.63 -7.18,-9.4 -10,-14.57l-2.92 -5.22c-0.31,-0.63 -0.62,-1.25 -0.94,-1.88 -2.45,-4.9 -3,-6.53 -4.96,-11.47 -1.07,-2.69 -1.52,-2.55 -2.3,-5.68 -1.88,-7.52 -4.17,-14.75 -4.78,-22.61l-0.17 -5.32c-0.01,-1.13 0.16,-1.56 0.16,-2.66l0.78 1.41c0.24,0.49 0.48,0.91 0.72,1.47 0.48,1.15 0.9,2.14 1.3,3.24 0.79,2.18 1.78,4.38 2.5,6.58 2.11,6.36 4.75,13.19 7.74,19.18 0.27,0.54 0.48,0.98 0.73,1.46l1.57 2.97c2.29,4.39 4.86,8.67 7.49,12.86 1.16,1.85 2.38,3.53 3.66,5.27 2.43,3.31 7.17,9.45 10.03,12.51 1.81,1.94 3.44,3.92 5.32,5.79 0.51,0.5 0.65,0.7 1.1,1.25 2,2.39 11.96,11.49 14.82,12.26 -0.27,-3.28 -11.74,-31.79 -13.08,-35.13 -4.07,-10.1 -7.81,-20.33 -11.51,-30.59 -1.63,-4.5 -2.96,-9.19 -4.31,-13.85 -0.24,-0.82 -0.44,-1.57 -0.66,-2.31 -0.88,-2.99 -1.16,-6.46 -3.19,-8.86 -0.25,-0.3 -0.44,-0.42 -0.69,-0.72 -4.38,-5.21 -8.94,-10.31 -12.48,-16.16 -1.17,-1.94 -2.15,-3.96 -3.06,-6.02 -3.27,-7.45 -5.1,-15.61 -4.4,-23.96 0.04,-0.48 0.02,-0.88 0.33,-1.23 0,6.44 3.64,14.04 6.47,19.36 1.81,3.39 3.99,6.61 6.3,9.67 0.86,1.14 3.57,4.56 4.61,5.25 0,-3.94 -0.92,-7.88 -1.09,-11.9 -0.03,-0.82 -0.12,-2.04 -0.25,-2.88 -0.27,-1.83 -0.65,-11.19 -0.51,-12.43 0.21,-1.83 0.15,-4.25 0.4,-6.17 0.15,-1.12 0.21,-1.88 0.38,-2.91 0.33,-1.94 0.72,-3.65 1.2,-5.38 0.34,-1.21 1.03,-3.65 1.91,-4.66 0,1.57 -0,3.13 0,4.7l-0 11.59c-0.01,1.05 0.16,1.43 0.16,2.34 0.03,4.64 1.11,9.72 2.6,14 0.23,0.65 0.55,1.21 0.69,1.82l0.31 0c0.29,-1.24 1.13,-2.62 1.61,-3.87 1.55,-3.97 2.7,-8.23 4.55,-12.05 1.88,-3.89 6.68,-12.22 6.68,-15.55 0.49,0.26 0.66,0.44 1.25,0.16 0.02,0.78 0.43,1.39 0.42,1.9 -0.01,0.34 -0.17,0.5 -0.39,0.79 -2.13,2.75 -3.71,8.09 -4.54,11.43 -1.98,8.01 -3.84,16.68 -4.1,25.18 -0.02,0.83 -0.17,1.18 -0.16,2.18 0.02,3.6 -0.07,7.56 1.47,10.9 0.37,0.8 0.3,3.33 0.46,4.55 0.88,7.06 4.09,16.23 6.51,22.92l5.36 14.2c1.86,4.63 3.68,9.29 5.57,14 1.9,4.75 3.62,9.55 5.5,14.22 0.94,2.34 1.9,4.62 2.82,6.89 1.6,3.98 3.55,7.79 5.45,11.61 1.88,3.77 4.26,7.15 6.78,10.44 1.75,2.29 3.8,4.41 6.29,5.92 2.82,1.71 1.83,1.16 4.29,3.07 2.39,1.86 3.04,2.59 5.86,4 3.46,1.73 6.75,3.02 10.71,4.01 4.24,1.06 8.16,1.57 12.57,2.14 1.34,0.17 3.19,0.14 4.65,0.36 1.77,0.27 7.09,0.07 9.48,0.07 5.95,0 11.9,-0.87 17.57,-1.99 5.45,-1.08 10.43,-2.81 14.67,-5.05 -0.79,-1.19 -5.56,-5.96 -6.95,-7.76 -0.51,-0.66 -1.14,-1.26 -1.68,-1.92 -1.69,-2.09 -3.36,-4.15 -4.86,-6.41 -4.17,-6.25 -6.02,-13.3 -8.08,-21.51 -1,-3.98 -1.86,-7.87 -2.76,-11.95l-2.66 -12.21c-2.11,-9.16 -4.11,-22.01 -5.37,-31.57l-0.74 -6.62c-0.56,-4.01 -0.81,-9.48 -1.18,-13.69 -0.09,-1.02 -0.23,-2.31 -0.31,-3.29l-0.17 -3.59c0.01,-2.45 0.01,-4.91 0,-7.36 -0,-1.38 0.17,-2.18 0.16,-3.44l0.3 -5.33c0.05,-0.64 -0.02,-1.15 0.07,-1.8 0.18,-1.23 0.14,-2.23 0.27,-3.49 0.7,-6.74 3.3,-22.41 -0.03,-28.19 -0.16,-0.27 -0.57,-0.83 -0.65,-1.18 -0.05,-0.2 -0.05,-2.69 -0.13,-3.36 -0.23,-2.1 -0.83,-4.29 -1.43,-6.09 -1.27,-3.77 -2.67,-7.38 -3.58,-11.29 1.55,1.04 5.02,7.25 6.05,9.13 0.93,1.71 1.88,3.14 2.96,4.71 0.59,0.86 1.76,2.44 2.54,3.09 0.22,0.18 0.27,0.18 0.53,0.41 0.29,0.25 0.27,0.29 0.59,0.5 1.01,-1.51 1.85,-1.96 3.24,-4.75 0.36,-0.72 0.62,-1.21 0.98,-1.84l1.73 -3.6c0.61,-1.24 1.15,-2.47 1.73,-3.75 1.11,-2.46 2.24,-5.03 3.26,-7.54l3.15 -7.81z"/>
   <path class="fil0" d="M379.68 386.22l-1.66 -3.19c-0.46,-1.32 -0.82,-2.21 -1.19,-3.67 -1.71,-6.87 -1.83,-14.18 0.81,-20.85 1.84,-4.65 5.18,-8.9 9.33,-11.64 8.45,-5.6 18.01,-6.82 28.4,-6.82 8.67,0 20.44,2.02 26.57,7.87 0.41,0.39 0.62,0.47 1.02,0.86 0.83,0.79 2.71,3.19 3.24,4.12 4.43,7.72 4.18,17.3 0.83,25.24 -0.7,1.67 -1.47,3.27 -2.39,4.65 -0.77,1.16 -2.07,3.11 -3.29,3.76l1.2 -4.12c2.39,-8.21 4.22,-19.46 -0.42,-27.18 -0.82,-1.36 -1.78,-2.55 -2.92,-3.65 -0.3,-0.29 -0.54,-0.44 -0.86,-0.7 -0.34,-0.28 -0.59,-0.48 -0.97,-0.75 -6.42,-4.63 -16.25,-5.54 -24.04,-5.54 -5.74,0 -12.47,0.53 -16.81,1.97 -2.62,0.87 -4.35,1.54 -6.45,2.94 -1.54,1.03 -3.12,2.45 -4.22,3.92 -1.62,2.14 -2.61,4.37 -3.53,7.12 -2.17,6.48 -2.39,16.27 -2.48,23.35 -0.01,0.91 -0.16,1.29 -0.16,2.34zm80.93 -66.21c-4.92,0 -9.54,-0.13 -14.27,-0.92 -6.19,-1.03 -11.74,-2.42 -17.91,-3.53 -12.55,-2.27 -20.26,-0.52 -32.14,4.31 -4.27,1.74 -8.43,3.88 -12.38,6.25l-4.83 3.15c-1.57,1.07 -4.42,3.32 -5.86,4.78l-2.74 2.58c-0.48,0.48 -0.85,0.85 -1.33,1.33 -0.55,0.55 -0.76,0.81 -1.26,1.4 -0.44,0.52 -0.8,0.9 -1.23,1.43 -1.21,1.52 -2.29,3.22 -3.26,4.88 -1.26,2.18 -2.35,4.91 -3.27,7.37l-2.15 5.84c-0.93,2.33 -0.51,1.66 -0.15,4.09 0.37,2.55 0.11,5.22 0.38,7.61 0.26,2.3 0.06,5.09 0.36,7.62 0.08,0.67 0.27,1.78 0.41,2.41 0.88,3.87 2.39,7.97 4.92,11.05 0.81,0.98 1.68,1.87 2.69,2.63 4.93,3.74 11.23,3.98 17.47,3.98 9.44,0 29.58,-0.08 37.57,-2.19 2.44,-0.65 1.13,-0.35 4.21,0.01 3.64,0.42 8.09,0.29 11.6,-0.33 1.51,-0.27 4.66,0.47 6.32,0.72 4.33,0.67 8.59,1.21 12.79,1.92 2.11,0.36 4.35,0.55 6.39,0.97 4.05,0.85 7.9,1.99 12.04,2.67 7.48,1.23 13.23,1.13 20.39,-1.26 1.55,-0.52 2.87,-1.14 3.94,-2.17 2.21,-2.14 3.51,-4.84 4.48,-7.73 0.51,-1.53 0.89,-3.14 1.21,-4.9 1.12,-6.21 1.09,-13.46 1.01,-19.98 -0.01,-0.96 -0.17,-1.51 -0.16,-2.66 0.01,-1.86 -0.23,-3.39 -0.31,-5.17 -0.15,-2.96 -0.63,-7.96 -0.63,-10.33l0.32 0.47c1.62,2.9 2.94,7.21 3.72,10.37 2.16,8.66 3.07,19.64 -0.22,28.21 -0.7,1.83 -1.27,3.13 -2.23,4.66 -0.54,0.87 -2.3,3.3 -3.16,3.88 0.3,0.56 0.31,1.19 0.31,1.88 3.24,0 1.4,-0.15 6.1,-2.98 4.2,-2.53 5.95,-3.25 10.03,-6.41 0.4,-0.31 0.58,-0.54 1,-0.87 3.04,-2.37 5.73,-5.43 8.35,-8.24 0.36,-0.39 0.47,-0.61 0.86,-1.02 0.37,-0.39 0.43,-0.56 0.78,-0.94 4.99,-5.37 10.5,-15.15 13.42,-21.8 0.74,-1.69 1.41,-3.5 2.06,-5.3 2.7,-7.47 4.52,-16.7 4.52,-25.06l0 -0.17c-0,-3.53 -0.07,-7.35 -0.56,-10.7 -0.52,-3.54 -1.09,-7.08 -2.2,-10.48 -1.99,-6.08 -4.56,-11.8 -8.53,-16.83 -1.88,-2.37 -3.99,-4.43 -6.46,-6.22 -0.93,-0.68 -4.43,-2.94 -5.57,-3.04 -0.14,1.66 -1.03,3.62 -1.58,5.15 -2,5.52 -5.23,10.62 -8.95,15l-3.28 3.61c-1.35,1.48 -5.65,5.09 -7.39,6.39l-4.83 3.62c-0.65,0.46 -2.92,1.11 -3.77,1.39 -13.49,4.5 -21.69,7.57 -37.04,7.57z"/>
   <path class="fil0" d="M282.16 364.46l10.94 3.15c5.54,1.77 17.07,4.53 22.55,5.63 4.05,0.81 14.3,2.46 18.64,2.65l13.31 0.78c0.68,-0.09 0.42,-0.44 0.49,-1.21 0.05,-0.56 0.13,-0.95 0.13,-1.75 -0.01,-1.39 0.16,-2.12 0.16,-3.44 -0.05,-10.6 -0.16,-12.22 2.38,-22.35 0.86,-3.44 1.48,-5.16 -3.68,-5.94l-9.98 -0.98c-4.31,-0.21 -6.77,-0.79 -11.89,-0.79 -1.14,0 -2.18,0.69 -2.78,1.29 -0.38,0.37 -0.64,0.64 -1.01,1.02 -0.46,0.47 -0.73,0.6 -1.18,1.01l-1.63 1.51c-0.25,0.2 -0.33,0.31 -0.57,0.53l-2.36 1.86c-4.16,3.11 -6.01,4.28 -10.13,6.78 -2.65,1.61 -5.54,2.91 -8.37,4.15 -0.98,0.43 -1.97,0.79 -3.01,1.21 -4.83,1.94 -6.36,1.95 -11.33,4.47 -0,0 -0.29,0.15 -0.31,0.16 -0.31,0.19 -0.16,0.08 -0.37,0.26z"/>
  </g>
 </g>
</svg>
